<svg width="262" height="229" viewBox="0 0 262 229" fill="none" xmlns="http://www.w3.org/2000/svg">
	<g opacity="0.2">
		<path d="M154.424 202.641C155.44 206.564 157.821 209.768 161.048 211.555C164.275 213.342 168.086 213.566 171.651 212.179C173.416 211.486 175.066 210.416 176.507 209.029C177.948 207.643 179.151 205.968 180.048 204.101C180.944 202.233 181.517 200.209 181.734 198.145C181.95 196.08 181.805 194.016 181.308 192.07C180.812 190.122 179.974 188.331 178.84 186.798C177.706 185.265 176.3 184.02 174.701 183.134C173.102 182.249 171.342 181.74 169.522 181.637C167.701 181.534 165.856 181.839 164.092 182.534C160.536 183.95 157.526 186.857 155.715 190.623C153.904 194.388 153.441 198.708 154.424 202.641Z" fill="#23B3E8" />
		<path d="M27.7616 179.69C28.8043 183.517 31.2047 186.653 34.4397 188.415C37.6746 190.177 41.4819 190.423 45.032 189.098C48.5709 187.743 51.5544 184.933 53.3334 181.28C55.1124 177.627 55.5428 173.425 54.531 169.591C53.4929 165.761 51.0956 162.621 47.8616 160.854C44.6276 159.087 40.8193 158.837 37.2672 160.158C33.722 161.511 30.7329 164.325 28.9521 167.984C27.1712 171.644 26.7433 175.852 27.7616 179.69Z" fill="#F15832" />
		<path d="M166.513 154.391L113.46 223.66C112.592 224.797 111.538 225.745 110.357 226.451C109.176 227.156 107.893 227.605 106.581 227.77C105.268 227.941 103.952 227.827 102.707 227.434C101.463 227.04 100.315 226.375 99.3295 225.476L97.8589 224.145C96.8701 223.249 96.0626 222.137 95.4824 220.873C94.9023 219.61 94.5611 218.219 94.4783 216.78C94.3954 215.341 94.5725 213.884 94.9996 212.49C95.4266 211.096 96.0952 209.794 96.9669 208.658L151.022 138.064C152.512 136.122 154.611 134.869 156.858 134.581C159.104 134.293 161.314 134.993 163.002 136.528L165.621 138.904C166.609 139.801 167.415 140.913 167.994 142.177C168.573 143.441 168.914 144.831 168.997 146.269C169.08 147.707 168.903 149.165 168.477 150.558C168.051 151.952 167.383 153.254 166.513 154.391Z" fill="#4DBD98" />
		<path d="M127.215 150.442L57.3122 241.849C55.6193 244.059 53.2378 245.487 50.6882 245.823C49.4277 245.991 48.1634 245.881 46.9694 245.5C45.7731 245.122 44.6696 244.483 43.7226 243.618L41.7147 241.741C40.7731 240.873 40.001 239.805 39.4403 238.594C38.8882 237.375 38.5634 236.036 38.484 234.651C38.4022 233.268 38.5721 231.866 38.9839 230.527C39.3988 229.187 40.0406 227.935 40.8738 226.837L111.891 133.948C112.58 133.042 113.418 132.286 114.356 131.723C115.294 131.16 116.313 130.8 117.355 130.665C118.398 130.53 119.442 130.622 120.43 130.936C121.417 131.25 122.328 131.78 123.109 132.494L126.41 135.495C127.36 136.356 128.136 137.425 128.694 138.64C129.252 139.856 129.582 141.194 129.663 142.579C129.744 143.964 129.576 145.368 129.168 146.711C128.759 148.054 128.119 149.31 127.284 150.407L127.215 150.442Z" fill="#F3E503" />
		<path opacity="0.15" d="M190.669 59.5781L137.685 128.849C136.373 130.559 134.651 131.831 132.735 132.504C130.82 133.177 128.797 133.222 126.92 132.633C125.676 132.237 124.527 131.571 123.539 130.675L122.069 129.343C120.081 127.523 118.868 124.875 118.694 121.971C118.616 120.535 118.791 119.081 119.21 117.689C119.638 116.296 120.306 114.994 121.176 113.857L175.244 43.269C175.977 42.3053 176.869 41.501 177.869 40.9025C178.868 40.304 179.955 39.9233 181.066 39.7823C183.313 39.4924 185.524 40.1882 187.217 41.7178L189.833 44.1065C190.82 45.0034 191.626 46.1155 192.206 47.3792C192.785 48.6429 193.126 50.0335 193.209 51.4716C193.292 52.9097 193.115 54.3671 192.689 55.7606C192.263 57.154 191.595 58.4563 190.725 59.5931L190.669 59.5781Z" fill="#A5A4A4" />
		<path opacity="0.15" d="M229.839 178.623L176.795 247.879C175.929 249.02 174.874 249.972 173.692 250.679C172.511 251.387 171.225 251.836 169.911 252.001C168.595 252.177 167.275 252.061 166.029 251.662C164.785 251.263 163.637 250.598 162.647 249.704L161.177 248.373C159.186 246.558 157.976 243.907 157.812 241.003C157.728 239.566 157.903 238.109 158.329 236.717C158.755 235.324 159.423 234.023 160.295 232.889L214.356 162.299C215.846 160.36 217.942 159.109 220.186 158.818C222.43 158.527 224.639 159.221 226.33 160.748L228.958 163.14C230.95 164.953 232.162 167.602 232.327 170.506C232.492 173.41 231.597 176.329 229.839 178.623Z" fill="#A5A4A4" />
		<path opacity="0.15" d="M54.7162 132.344L1.67192 201.6C0.805792 202.741 -0.248861 203.692 -1.43065 204.4C-2.61243 205.108 -3.89774 205.557 -5.21185 205.722C-6.52758 205.898 -7.84766 205.782 -9.09392 205.383C-10.3376 204.984 -11.486 204.319 -12.4757 203.425L-13.9465 202.094C-15.9371 200.279 -17.1472 197.628 -17.3106 194.724C-17.3955 193.287 -17.2199 191.83 -16.7938 190.438C-16.3678 189.045 -15.6998 187.744 -14.8282 186.61L39.2327 116.02C40.7228 114.081 42.8189 112.83 45.0629 112.539C47.3068 112.248 49.516 112.942 51.2072 114.469L53.8345 116.86C55.8266 118.674 57.0385 121.323 57.2039 124.227C57.3692 127.131 56.4744 130.05 54.7162 132.344Z" fill="#A5A4A4" />
		<path opacity="0.15" d="M45.6286 193.885L-7.41572 263.141C-8.28185 264.282 -9.33651 265.234 -10.5183 265.941C-11.7001 266.649 -12.9854 267.098 -14.2995 267.263C-15.6152 267.439 -16.9353 267.323 -18.1816 266.924C-19.4252 266.525 -20.5737 265.86 -21.5633 264.966L-23.0342 263.635C-25.0248 261.82 -26.2348 259.169 -26.3983 256.265C-26.4831 254.828 -26.3075 253.372 -25.8815 251.979C-25.4554 250.586 -24.7874 249.285 -23.9159 248.151L30.1451 177.561C31.6351 175.622 33.7313 174.371 35.9752 174.08C38.2192 173.789 40.4283 174.483 42.1196 176.01L44.7469 178.402C46.7389 180.215 47.9509 182.865 48.1162 185.768C48.2815 188.672 47.3867 191.591 45.6286 193.885Z" fill="#A5A4A4" />
		<path opacity="0.15" d="M129.449 91.9874L76.4046 161.243C75.5385 162.384 74.4838 163.336 73.302 164.043C72.1202 164.751 70.8349 165.2 69.5208 165.365C68.2051 165.541 66.885 165.425 65.6387 165.026C64.3951 164.627 63.2466 163.962 62.257 163.068L60.7861 161.737C58.7955 159.922 57.5855 157.271 57.422 154.367C57.3372 152.93 57.5128 151.474 57.9388 150.081C58.3649 148.688 59.0329 147.387 59.9045 146.253L113.965 75.6627C115.455 73.7241 117.552 72.4726 119.796 72.182C122.039 71.8914 124.249 72.5852 125.94 74.1117L128.567 76.5036C130.559 78.3169 131.771 80.9666 131.937 83.8702C132.102 86.7738 131.207 89.6935 129.449 91.9874Z" fill="#A5A4A4" />
		<path opacity="0.15" d="M166.646 215.005L113.601 284.26C112.735 285.401 111.681 286.353 110.499 287.061C109.317 287.768 108.032 288.218 106.718 288.383C105.402 288.558 104.082 288.443 102.836 288.044C101.592 287.645 100.443 286.98 99.4538 286.086L97.9829 284.754C95.9923 282.939 94.7823 280.288 94.6188 277.385C94.534 275.948 94.7096 274.491 95.1356 273.098C95.5616 271.706 96.2297 270.405 97.1012 269.27L151.162 198.68C152.652 196.741 154.748 195.49 156.992 195.199C159.236 194.909 161.445 195.603 163.137 197.129L165.764 199.521C167.756 201.334 168.968 203.984 169.133 206.888C169.299 209.791 168.404 212.711 166.646 215.005Z" fill="#A5A4A4" />
		<path opacity="0.15" d="M248.197 86.7826L195.153 156.038C194.287 157.179 193.232 158.131 192.05 158.839C190.868 159.546 189.583 159.996 188.269 160.16C186.953 160.336 185.633 160.221 184.387 159.822C183.143 159.423 181.995 158.758 181.005 157.864L179.534 156.532C177.544 154.717 176.334 152.066 176.17 149.163C176.085 147.726 176.261 146.269 176.687 144.876C177.113 143.484 177.781 142.183 178.652 141.048L232.713 70.4579C234.203 68.5193 236.3 67.2679 238.544 66.9772C240.788 66.6866 242.997 67.3804 244.688 68.907L247.315 71.2988C249.307 73.1121 250.519 75.7618 250.685 78.6654C250.85 81.569 249.955 84.4887 248.197 86.7826Z" fill="#A5A4A4" />
		<path opacity="0.15" d="M101.412 244.968L48.3688 314.208C46.6122 316.501 44.1366 317.983 41.4851 318.328C40.1695 318.497 38.8505 318.382 37.6028 317.989C36.359 317.59 35.2105 316.925 34.2207 316.031L32.7496 314.7C31.7662 313.785 30.965 312.658 30.3907 311.383C29.8141 310.12 29.4756 308.731 29.3945 307.295C29.3094 305.858 29.4849 304.402 29.9108 303.01C30.3367 301.618 31.0047 300.317 31.8762 299.183L85.9322 228.622C87.4221 226.684 89.5183 225.433 91.7624 225.143C94.0064 224.853 96.2157 225.547 97.9072 227.073L100.535 229.464C102.524 231.276 103.735 233.923 103.901 236.822C104.068 239.722 103.176 242.638 101.422 244.93L101.412 244.968Z" fill="#A5A4A4" />
	</g>
</svg>
