<svg width="307" height="224" viewBox="0 0 307 224" fill="none" xmlns="http://www.w3.org/2000/svg">
<g opacity="0.14">
<path d="M199.185 202.453C200.202 206.376 202.583 209.58 205.809 211.367C209.036 213.154 212.847 213.378 216.412 211.991C218.177 211.298 219.828 210.228 221.268 208.841C222.709 207.455 223.912 205.78 224.809 203.913C225.706 202.045 226.278 200.021 226.495 197.957C226.711 195.893 226.566 193.828 226.069 191.882C225.573 189.934 224.735 188.143 223.601 186.61C222.467 185.077 221.061 183.832 219.462 182.946C217.863 182.061 216.103 181.552 214.283 181.449C212.462 181.346 210.617 181.651 208.853 182.346C205.297 183.762 202.287 186.669 200.476 190.435C198.666 194.2 198.202 198.52 199.185 202.453Z" fill="#23B3E8"/>
<path d="M72.5226 179.503C73.5653 183.329 75.9657 186.465 79.2006 188.227C82.4356 189.989 86.2429 190.235 89.793 188.91C93.3318 187.555 96.3154 184.746 98.0944 181.092C99.8734 177.439 100.304 173.238 99.292 169.403C98.2539 165.573 95.8565 162.433 92.6226 160.666C89.3886 158.899 85.5803 158.649 82.0282 159.97C78.483 161.324 75.4939 164.137 73.713 167.796C71.9322 171.456 71.5042 175.664 72.5226 179.503Z" fill="#F15832"/>
<path d="M211.274 154.203L158.221 223.472C157.354 224.609 156.299 225.558 155.118 226.263C153.937 226.968 152.654 227.417 151.342 227.582C150.029 227.754 148.713 227.639 147.468 227.246C146.224 226.852 145.076 226.187 144.09 225.288L142.62 223.957C141.631 223.061 140.824 221.949 140.243 220.686C139.663 219.422 139.322 218.031 139.239 216.592C139.156 215.154 139.334 213.696 139.761 212.302C140.188 210.908 140.856 209.606 141.728 208.47L195.783 137.876C197.273 135.934 199.373 134.681 201.619 134.393C203.865 134.105 206.075 134.805 207.763 136.34L210.382 138.716C211.37 139.613 212.176 140.725 212.755 141.989C213.334 143.253 213.675 144.643 213.758 146.081C213.841 147.52 213.664 148.977 213.238 150.37C212.812 151.764 212.145 153.066 211.274 154.203Z" fill="#4DBD98"/>
<path d="M171.976 150.254L102.073 241.661C100.38 243.871 97.9988 245.299 95.4492 245.635C94.1887 245.803 92.9244 245.693 91.7303 245.312C90.534 244.934 89.4306 244.295 88.4836 243.43L86.4757 241.553C85.534 240.685 84.762 239.617 84.2013 238.406C83.6492 237.187 83.3243 235.848 83.245 234.463C83.1632 233.08 83.3331 231.678 83.7449 230.339C84.1598 228.999 84.8015 227.747 85.6348 226.649L156.652 133.76C157.341 132.854 158.179 132.098 159.117 131.535C160.055 130.972 161.074 130.612 162.116 130.477C163.159 130.342 164.203 130.434 165.191 130.748C166.178 131.062 167.089 131.592 167.87 132.306L171.17 135.307C172.121 136.168 172.897 137.237 173.455 138.453C174.013 139.668 174.343 141.006 174.424 142.391C174.505 143.776 174.337 145.18 173.929 146.523C173.52 147.866 172.88 149.122 172.045 150.219L171.976 150.254Z" fill="#F3E503"/>
<path opacity="0.15" d="M235.429 59.3902L182.446 128.661C181.134 130.371 179.412 131.643 177.496 132.316C175.581 132.989 173.558 133.034 171.681 132.445C170.437 132.049 169.288 131.383 168.3 130.487L166.829 129.155C164.841 127.335 163.629 124.687 163.455 121.783C163.377 120.347 163.552 118.893 163.971 117.501C164.399 116.108 165.067 114.806 165.937 113.669L220.005 43.081C220.738 42.1173 221.63 41.313 222.63 40.7145C223.629 40.116 224.716 39.7353 225.827 39.5944C228.074 39.3044 230.285 40.0002 231.978 41.5298L234.594 43.9185C235.581 44.8154 236.387 45.9275 236.967 47.1912C237.546 48.4549 237.887 49.8455 237.97 51.2836C238.052 52.7217 237.876 54.1791 237.45 55.5726C237.023 56.9661 236.356 58.2684 235.486 59.4051L235.429 59.3902Z" fill="#A5A4A4"/>
<path opacity="0.15" d="M274.6 178.435L221.556 247.691C220.69 248.832 219.635 249.784 218.454 250.491C217.272 251.199 215.986 251.648 214.672 251.813C213.357 251.989 212.036 251.873 210.79 251.474C209.547 251.075 208.398 250.41 207.409 249.516L205.938 248.185C203.947 246.37 202.737 243.719 202.573 240.815C202.489 239.378 202.664 237.922 203.09 236.529C203.516 235.136 204.184 233.835 205.056 232.701L259.117 162.111C260.607 160.172 262.703 158.921 264.947 158.63C267.191 158.339 269.4 159.033 271.091 160.56L273.719 162.952C275.711 164.765 276.923 167.415 277.088 170.318C277.253 173.222 276.359 176.141 274.6 178.435Z" fill="#A5A4A4"/>
<path opacity="0.15" d="M99.4773 132.156L46.433 201.412C45.5669 202.553 44.5122 203.505 43.3305 204.212C42.1487 204.92 40.8634 205.369 39.5493 205.534C38.2335 205.71 36.9134 205.594 35.6672 205.195C34.4235 204.796 33.2751 204.131 32.2854 203.237L30.8146 201.906C28.824 200.091 27.6139 197.44 27.4505 194.536C27.3656 193.099 27.5412 191.643 27.9673 190.25C28.3933 188.857 29.0613 187.556 29.9329 186.422L83.9938 115.832C85.4839 113.893 87.58 112.642 89.824 112.351C92.0679 112.06 94.2771 112.754 95.9683 114.281L98.5956 116.673C100.588 118.486 101.8 121.136 101.965 124.039C102.13 126.943 101.235 129.862 99.4773 132.156Z" fill="#A5A4A4"/>
<path opacity="0.15" d="M90.3895 193.697L37.3453 262.953C36.4791 264.094 35.4245 265.046 34.2427 265.753C33.0609 266.461 31.7756 266.91 30.4615 267.075C29.1458 267.251 27.8257 267.135 26.5794 266.736C25.3357 266.337 24.1873 265.672 23.1977 264.778L21.7268 263.447C19.7362 261.632 18.5262 258.981 18.3627 256.077C18.2779 254.64 18.4535 253.184 18.8795 251.791C19.3055 250.398 19.9736 249.097 20.8451 247.963L74.9061 177.373C76.3961 175.434 78.4922 174.183 80.7362 173.892C82.9802 173.601 85.1893 174.295 86.8806 175.822L89.5079 178.214C91.4999 180.027 92.7119 182.677 92.8772 185.58C93.0425 188.484 92.1477 191.404 90.3895 193.697Z" fill="#A5A4A4"/>
<path opacity="0.15" d="M174.21 91.7995L121.166 161.055C120.3 162.196 119.245 163.148 118.063 163.855C116.881 164.563 115.596 165.012 114.282 165.177C112.966 165.353 111.646 165.238 110.4 164.838C109.156 164.439 108.008 163.775 107.018 162.88L105.547 161.549C103.557 159.734 102.347 157.083 102.183 154.179C102.098 152.742 102.274 151.286 102.7 149.893C103.126 148.5 103.794 147.199 104.666 146.065L158.727 75.4747C160.217 73.5361 162.313 72.2847 164.557 71.9941C166.801 71.7034 169.01 72.3973 170.701 73.9238L173.328 76.3157C175.32 78.1289 176.532 80.7787 176.698 83.6822C176.863 86.5858 175.968 89.5056 174.21 91.7995Z" fill="#A5A4A4"/>
<path opacity="0.15" d="M211.407 214.817L158.362 284.072C157.496 285.213 156.442 286.165 155.26 286.873C154.078 287.58 152.793 288.03 151.479 288.195C150.163 288.37 148.843 288.255 147.597 287.856C146.353 287.457 145.204 286.792 144.215 285.898L142.744 284.566C140.753 282.751 139.543 280.1 139.38 277.197C139.295 275.76 139.471 274.303 139.897 272.91C140.323 271.518 140.991 270.217 141.862 269.082L195.923 198.492C197.413 196.553 199.509 195.302 201.753 195.011C203.997 194.721 206.206 195.415 207.898 196.941L210.525 199.333C212.517 201.146 213.729 203.796 213.894 206.7C214.06 209.603 213.165 212.523 211.407 214.817Z" fill="#A5A4A4"/>
<path opacity="0.15" d="M292.958 86.5948L239.914 155.85C239.048 156.991 237.993 157.943 236.811 158.651C235.629 159.358 234.344 159.808 233.03 159.973C231.714 160.148 230.394 160.033 229.148 159.634C227.904 159.235 226.756 158.57 225.766 157.676L224.295 156.344C222.305 154.529 221.095 151.878 220.931 148.975C220.846 147.538 221.022 146.081 221.448 144.688C221.874 143.296 222.542 141.995 223.414 140.86L277.474 70.27C278.965 68.3314 281.061 67.08 283.305 66.7894C285.549 66.4987 287.758 67.1925 289.449 68.7191L292.076 71.1109C294.068 72.9242 295.28 75.5739 295.446 78.4775C295.611 81.3811 294.716 84.3008 292.958 86.5948Z" fill="#A5A4A4"/>
<path opacity="0.15" d="M146.173 244.78L93.1297 314.02C91.373 316.313 88.8974 317.795 86.246 318.14C84.9304 318.309 83.6113 318.194 82.3637 317.801C81.1199 317.402 79.9714 316.737 78.9816 315.843L77.5105 314.512C76.5271 313.597 75.7258 312.47 75.1515 311.195C74.575 309.932 74.2365 308.543 74.1553 307.107C74.0703 305.67 74.2458 304.214 74.6717 302.822C75.0976 301.43 75.7656 300.129 76.637 298.995L130.693 228.434C132.183 226.496 134.279 225.245 136.523 224.955C138.767 224.665 140.977 225.359 142.668 226.885L145.296 229.276C147.285 231.088 148.496 233.735 148.662 236.634C148.828 239.534 147.937 242.45 146.183 244.742L146.173 244.78Z" fill="#A5A4A4"/>
</g>
</svg>
