<svg width="66" height="51" viewBox="0 0 66 51" fill="none" xmlns="http://www.w3.org/2000/svg">
    <path d="M54.9218 29.2438C55.7948 30.5781 57.1561 31.5168 58.7133 31.8585C60.2706 32.2002 61.8997 31.9175 63.2509 31.0713C64.5808 30.1984 65.5165 28.8398 65.858 27.286C66.1995 25.7321 65.9196 24.1064 65.0782 22.7562C64.2052 21.4219 62.844 20.4832 61.2868 20.1415C59.7295 19.7998 58.1003 20.0825 56.7491 20.9287C55.4192 21.8016 54.4835 23.1602 54.142 24.714C53.8005 26.2679 54.0804 27.8936 54.9218 29.2438Z" fill="#23B3E8"/>
    <path d="M1.00044 29.0162C1.94542 30.4607 3.419 31.4769 5.10477 31.8468C6.79054 32.2167 8.55413 31.9107 10.0169 30.9946C11.461 30.0494 12.477 28.5756 12.8468 26.8895C13.2166 25.2034 12.9107 23.4395 11.9948 21.9765C11.05 20.5366 9.57962 19.5234 7.8978 19.1537C6.21598 18.784 4.4563 19.0871 2.99496 19.9981C1.54808 20.9407 0.528591 22.4133 0.155646 24.0996C-0.217299 25.7859 0.0860297 27.5512 1.00044 29.0162Z" fill="#F15832"/>
    <path d="M55.5406 6.45531L40.9856 36.5981C40.7453 37.0922 40.4083 37.537 39.9929 37.908C39.5721 38.2705 39.0854 38.5549 38.5573 38.7469C38.0241 38.9322 37.4589 39.0171 36.8925 38.9971C36.328 38.9678 35.7739 38.8381 35.2583 38.6145L34.4947 38.2612C33.9756 38.04 33.512 37.7137 33.1354 37.3046C32.7488 36.9066 32.4524 36.4354 32.2649 35.921C32.0652 35.4091 31.9767 34.863 32.0052 34.3168C32.0301 33.7719 32.165 33.237 32.4023 32.7419L47.3086 2.02515C47.5104 1.60707 47.7959 1.23151 48.1487 0.920027C48.5016 0.608539 48.9148 0.367246 49.3646 0.209991C49.8144 0.0527365 50.292 -0.0173868 50.77 0.00364591C51.248 0.0246786 51.7169 0.136453 52.15 0.332556L53.5093 0.936006C54.5443 1.40262 55.3455 2.2452 55.7376 3.2795C56.1297 4.31379 56.0808 5.45563 55.6017 6.45531H55.5406Z" fill="#4DBD98"/>
    <path d="M38.6335 9.2673L20.4882 48.6986C20.2761 49.1774 19.9664 49.6054 19.5795 49.9546C19.1937 50.3172 18.7388 50.5962 18.2428 50.7745C17.7467 50.9528 17.22 51.0266 16.6947 50.9915C16.1947 50.9685 15.7043 50.8443 15.2523 50.6264L14.2571 50.159C13.7945 49.9402 13.3781 49.6328 13.031 49.2536C12.6863 48.8651 12.4171 48.4142 12.2377 47.9246C12.0536 47.436 11.975 46.9131 12.007 46.3912C12.033 45.8854 12.1555 45.3895 12.3676 44.9307L30.8302 4.88605C31.1956 4.10368 31.8474 3.49607 32.6476 3.19196C33.4529 2.90034 34.3393 2.94233 35.1142 3.30879L36.744 4.06822C37.6839 4.51498 38.4105 5.32075 38.7647 6.30896C39.1189 7.29718 39.0717 8.38725 38.6335 9.34033V9.2673Z" fill="#F3E503"/>
    <path d="M54.9306 29.2668C55.8065 30.6007 57.172 31.535 58.7311 31.8672C60.2902 32.1994 61.9172 31.9026 63.2593 31.0413C64.5861 30.1718 65.5195 28.8159 65.8593 27.2648C66.199 25.7136 65.918 24.0909 65.0765 22.745C64.2084 21.4161 62.8546 20.4812 61.3059 20.1409C59.7572 19.8007 58.137 20.0821 56.7932 20.9249C55.4465 21.7878 54.4949 23.1489 54.146 24.7115C53.7971 26.2742 54.0792 27.9116 54.9306 29.2668Z" fill="#23B3E8"/>
    <path d="M1.001 29.0151C1.94651 30.4601 3.42093 31.4767 5.10764 31.8467C6.79435 32.2168 8.55894 31.9107 10.0225 30.9942C11.463 30.0489 12.4764 28.5776 12.8462 26.8949C13.216 25.2121 12.9129 23.4514 12.0015 21.9893C11.0588 20.5461 9.58872 19.5292 7.90577 19.1563C6.22281 18.7833 4.46078 19.0839 2.99664 19.9937C1.54895 20.9366 0.528888 22.4098 0.155733 24.0967C-0.217421 25.7836 0.086078 27.5496 1.001 29.0151Z" fill="#F15832"/>
    <path d="M55.5599 6.465L40.993 36.5957C40.755 37.0905 40.4178 37.5351 40.0007 37.9039C39.5836 38.2727 39.0949 38.5585 38.5627 38.7447C38.031 38.9373 37.4638 39.0224 36.8965 38.995C36.3294 38.98 35.772 38.8495 35.261 38.6123L34.4967 38.2737C33.9829 38.0445 33.5213 37.7198 33.1383 37.3181C32.7553 36.9165 32.4586 36.4458 32.2651 35.9333C32.0652 35.4213 31.9767 34.8752 32.0052 34.3289C32.0285 33.7838 32.1636 33.2486 32.4027 32.7539L47.3211 2.03444C47.5202 1.61491 47.8038 1.23758 48.1553 0.924282C48.5069 0.610986 48.9196 0.367951 49.3694 0.209231C50.2818 -0.105974 51.2861 -0.0636979 52.1665 0.326978L53.5269 0.945204C54.0436 1.17019 54.5076 1.49351 54.8911 1.89571C55.2747 2.29792 55.5698 2.7707 55.7586 3.28559C55.947 3.80158 56.0264 4.34862 55.9923 4.8946C55.9582 5.44057 55.8112 5.97449 55.5599 6.465Z" fill="#4DBD98"/>
    <path d="M38.6573 8.27745L20.4939 47.7022C20.2773 48.1742 19.9677 48.5965 19.5842 48.9434C19.196 49.3036 18.7407 49.5821 18.2449 49.7626C17.7491 49.9431 17.2228 50.022 16.6966 49.9947C16.197 49.9651 15.7073 49.8413 15.2527 49.6297L14.2565 49.1624C13.7927 48.9384 13.376 48.626 13.0291 48.2425C12.6781 47.8586 12.4079 47.4066 12.2351 46.9137C12.0592 46.4484 11.9805 45.9512 12.0041 45.4536C12.0268 44.9474 12.1496 44.4509 12.365 43.9934L30.8172 3.89691C31.1779 3.1109 31.8322 2.50171 32.6365 2.2031C33.0341 2.05328 33.4572 1.98515 33.8812 2.0027C34.3051 2.02025 34.7213 2.12313 35.1055 2.30531L36.737 3.06461C37.679 3.51352 38.406 4.32236 38.7584 5.31329C38.9377 5.80027 39.0187 6.3187 38.9964 6.83789C38.9741 7.35708 38.849 7.86646 38.6285 8.33586L38.6573 8.27745Z" fill="#F3E503"/>
</svg>
