<svg width="12" height="15" viewBox="0 0 12 15" fill="none" xmlns="http://www.w3.org/2000/svg">
<path d="M0.257201 8.55921L8.47493 3.49616C8.65898 3.38335 8.89461 3.39415 9.06694 3.52736C9.84768 4.12859 10.5452 4.73822 11.0106 5.25065C11.0106 5.25065 11.4115 5.66107 11.585 5.92148C11.8652 6.2767 12 6.74112 12 7.19234C12 7.69877 11.8523 8.17759 11.558 8.56041C11.4912 8.62881 11.2368 8.93003 10.9965 9.17604C9.59447 10.7073 5.93459 13.237 4.00969 14.0039C3.72952 14.1275 2.9816 14.3855 2.59357 14.3999C2.21961 14.3999 1.85855 14.3183 1.51155 14.1395C1.08484 13.8935 0.750734 13.5119 0.563168 13.0594C0.442423 12.745 0.256029 11.8018 0.256029 11.7742C0.135284 11.1009 0.0450175 10.1553 0.000470628 9.05124C-0.00773538 8.85323 0.091909 8.66122 0.257201 8.55921Z" fill="white"/>
<path opacity="0.4" d="M0.806765 5.83184C0.444529 6.05625 -0.011491 5.76944 0.00609333 5.33862C0.049468 4.32817 0.124494 3.43772 0.215933 2.77529C0.23 2.76089 0.416394 1.58603 0.630922 1.18881C1.00488 0.450774 1.73873 -0.000448227 2.52768 -0.000448227H2.59333C3.1021 0.0127521 4.18412 0.463974 4.18412 0.491576C4.72924 0.718387 5.44082 1.10241 6.20632 1.56443C6.55097 1.77324 6.55918 2.28567 6.21453 2.49808L0.806765 5.83184Z" fill="white"/>
</svg>
