<svg width="25" height="25" viewBox="0 0 25 25" fill="none" xmlns="http://www.w3.org/2000/svg">
<path opacity="0.2" fill-rule="evenodd" clip-rule="evenodd" d="M12.5 25C19.4036 25 25 19.4036 25 12.5C25 5.59644 19.4036 0 12.5 0C5.59644 0 0 5.59644 0 12.5C0 19.4036 5.59644 25 12.5 25Z" fill="#0585B4"/>
<path d="M8.62526 17.9307C8.01186 17.6015 7.55438 17.042 7.35347 16.3754C7.15256 15.7089 7.22467 14.9898 7.55394 14.3764L10.8647 8.20879C11.3037 7.39092 12.0496 6.78095 12.9384 6.51307C13.8272 6.24518 14.7859 6.34133 15.6038 6.78036C16.4217 7.21939 17.0317 7.96534 17.2995 8.8541C17.5674 9.74286 17.4713 10.7016 17.0322 11.5195L13.1008 18.8435C13.0459 18.9458 12.9526 19.022 12.8415 19.0555C12.7305 19.089 12.6106 19.077 12.5084 19.0221C12.4061 18.9672 12.3299 18.874 12.2964 18.7629C12.2629 18.6518 12.2749 18.5319 12.3298 18.4297L16.2613 11.1057C16.5906 10.4923 16.6627 9.77319 16.4618 9.10661C16.2609 8.44004 15.8034 7.88058 15.19 7.55131C14.5766 7.22204 13.8575 7.14993 13.1909 7.35084C12.5243 7.55175 11.9649 8.00923 11.6356 8.62263L8.32489 14.7902C8.10537 15.1992 8.0573 15.6785 8.19124 16.1229C8.32518 16.5673 8.63017 16.9403 9.0391 17.1598C9.44804 17.3793 9.92743 17.4274 10.3718 17.2934C10.8162 17.1595 11.1892 16.8545 11.4087 16.4456L14.5125 10.6635C14.6222 10.459 14.6463 10.2193 14.5793 9.99711C14.5123 9.77492 14.3598 9.58844 14.1554 9.47868C13.9509 9.36892 13.7112 9.34489 13.489 9.41186C13.2668 9.47883 13.0803 9.63132 12.9706 9.83579L10.2806 14.847C10.2257 14.9492 10.1325 15.0254 10.0214 15.0589C9.91031 15.0924 9.79046 15.0804 9.68823 15.0255C9.586 14.9706 9.50975 14.8774 9.47626 14.7663C9.44278 14.6552 9.4548 14.5353 9.50968 14.4331L12.1996 9.42195C12.4192 9.01301 12.7921 8.70803 13.2365 8.57408C13.6809 8.44014 14.1603 8.48822 14.5692 8.70773C14.9781 8.92725 15.2831 9.30022 15.4171 9.7446C15.551 10.189 15.5029 10.6684 15.2834 11.0773L12.1796 16.8594C11.8504 17.4728 11.2909 17.9303 10.6243 18.1312C9.95775 18.3321 9.23867 18.26 8.62526 17.9307Z" fill="#0585B4"/>
</svg>
