<svg width="25" height="25" viewBox="0 0 25 25" fill="none" xmlns="http://www.w3.org/2000/svg">
<g opacity="0.2">
<path fill-rule="evenodd" clip-rule="evenodd" d="M12.5 25C19.4036 25 25 19.4036 25 12.5C25 5.59644 19.4036 0 12.5 0C5.59644 0 0 5.59644 0 12.5C0 19.4036 5.59644 25 12.5 25Z" fill="#4DBD98"/>
<path fill-rule="evenodd" clip-rule="evenodd" d="M12.5 25C19.4036 25 25 19.4036 25 12.5C25 5.59644 19.4036 0 12.5 0C5.59644 0 0 5.59644 0 12.5C0 19.4036 5.59644 25 12.5 25Z" fill="#4DBD98"/>
<path fill-rule="evenodd" clip-rule="evenodd" d="M12.5 25C19.4036 25 25 19.4036 25 12.5C25 5.59644 19.4036 0 12.5 0C5.59644 0 0 5.59644 0 12.5C0 19.4036 5.59644 25 12.5 25Z" fill="#4DBD98"/>
<path fill-rule="evenodd" clip-rule="evenodd" d="M12.5 25C19.4036 25 25 19.4036 25 12.5C25 5.59644 19.4036 0 12.5 0C5.59644 0 0 5.59644 0 12.5C0 19.4036 5.59644 25 12.5 25Z" fill="#4DBD98"/>
</g>
<path d="M11.2499 15.6474L18.8327 8L20 9.17627L11.2499 18L6 12.7059L7.16646 11.5297L11.2499 15.6474Z" fill="#4DBD98"/>
<path d="M11.2499 15.6474L18.8327 8L20 9.17627L11.2499 18L6 12.7059L7.16646 11.5297L11.2499 15.6474Z" fill="#4DBD98"/>
<path d="M11.2499 15.6474L18.8327 8L20 9.17627L11.2499 18L6 12.7059L7.16646 11.5297L11.2499 15.6474Z" fill="#4DBD98"/>
<path d="M11.2499 15.6474L18.8327 8L20 9.17627L11.2499 18L6 12.7059L7.16646 11.5297L11.2499 15.6474Z" fill="#4DBD98"/>
</svg>
