<svg width="21" height="18" viewBox="0 0 21 18" fill="none" xmlns="http://www.w3.org/2000/svg">
	<path fillRule="evenodd" clipRule="evenodd" d="M19.4444 9.69443H17.3611V11.7778C17.3611 12.1611 17.05 12.4722 16.6667 12.4722C16.2833 12.4722 15.9722 12.1611 15.9722 11.7778V9.69443H13.8889C13.5056 9.69443 13.1944 9.38332 13.1944 8.99999C13.1944 8.61666 13.5056 8.30554 13.8889 8.30554H15.9722V6.22221C15.9722 5.83888 16.2833 5.52777 16.6667 5.52777C17.05 5.52777 17.3611 5.83888 17.3611 6.22221V8.30554H19.4444C19.8278 8.30554 20.1389 8.61666 20.1389 8.99999C20.1389 9.38332 19.8278 9.69443 19.4444 9.69443ZM8.90486 9.97221C11.75 10.7847 13.8889 13.2958 13.8889 16.1764V16.6389C13.8889 17.0222 13.5778 17.3333 13.1944 17.3333H0.694444C0.311111 17.3333 0 17.0222 0 16.6389V16.1764C0 13.2958 2.13889 10.7847 4.98403 9.97221C3.27778 9.21666 2.08333 7.51041 2.08333 5.52777C2.08333 2.84721 4.26389 0.666656 6.94444 0.666656C9.625 0.666656 11.8056 2.84721 11.8056 5.52777C11.8056 7.51041 10.6111 9.21666 8.90486 9.97221ZM1.39514 15.9444H12.4937C12.3569 13.2868 9.87083 11.0833 6.94444 11.0833C4.01806 11.0833 1.53264 13.2868 1.39514 15.9444ZM6.94444 2.05555C5.02986 2.05555 3.47222 3.61318 3.47222 5.52777C3.47222 7.44235 5.02986 8.99999 6.94444 8.99999C8.85903 8.99999 10.4167 7.44235 10.4167 5.52777C10.4167 3.61318 8.85903 2.05555 6.94444 2.05555Z" fill="white" />
</svg>
