<svg width="19" height="15" viewBox="0 0 19 15" fill="none" xmlns="http://www.w3.org/2000/svg">
<path d="M13.0964 13.9111V12.5036C13.0964 11.7571 12.7999 11.0412 12.272 10.5133C11.7441 9.98539 11.0281 9.68883 10.2816 9.68883H4.65197C3.90544 9.68883 3.18948 9.98539 2.6616 10.5133C2.13372 11.0412 1.83716 11.7571 1.83716 12.5036V13.9111M17.3186 13.9111V12.5036C17.3182 11.88 17.1106 11.2741 16.7285 10.7812C16.3464 10.2883 15.8114 9.93623 15.2075 9.78031M12.3927 1.33587C12.9982 1.49089 13.5349 1.84303 13.9181 2.33675C14.3013 2.83048 14.5093 3.43771 14.5093 4.06272C14.5093 4.68773 14.3013 5.29496 13.9181 5.78868C13.5349 6.28241 12.9982 6.63454 12.3927 6.78957M10.2816 4.0592C10.2816 5.61378 9.02137 6.87401 7.46679 6.87401C5.91221 6.87401 4.65197 5.61378 4.65197 4.0592C4.65197 2.50462 5.91221 1.24438 7.46679 1.24438C9.02137 1.24438 10.2816 2.50462 10.2816 4.0592Z" stroke="#FCFCFC" stroke-width="2" stroke-linecap="round" stroke-linejoin="round"/>
</svg>
