<svg width="16" height="13" viewBox="0 0 16 13" fill="none" xmlns="http://www.w3.org/2000/svg">
<path d="M13.8663 3.03708V1.65201L4.5328 1.65167V3.03675L13.8663 3.03708ZM13.8665 8.57701L13.8663 5.11488L4.53271 5.11454L4.53296 8.57666L13.8665 8.57701ZM13.8663 0.266941C14.603 0.266941 15.1997 0.886041 15.1997 1.65201L15.1999 8.57701C15.1999 9.34303 14.6032 9.96208 13.8665 9.96208L4.53296 9.96174C3.79625 9.96174 3.19957 9.34268 3.19957 8.57666L3.20608 1.65167C3.20608 0.885701 3.79608 0.266602 4.5328 0.266602L13.8663 0.266941ZM1.86659 11.3482H11.867V12.7333L1.86675 12.7329C1.13004 12.7329 0.533363 12.1138 0.533363 11.3478L0.533203 3.73029H1.86659V11.3482Z" fill="white"/>
</svg>
