<svg width="40" height="31" viewBox="0 0 40 31" fill="none" xmlns="http://www.w3.org/2000/svg">
<path d="M33.253 16.0112C33.7815 16.8191 34.6056 17.3874 35.5485 17.5943C36.4913 17.8012 37.4777 17.6301 38.2958 17.1177C39.101 16.5892 39.6676 15.7666 39.8743 14.8259C40.081 13.8851 39.9116 12.9007 39.4021 12.0833C38.8736 11.2754 38.0494 10.7071 37.1066 10.5002C36.1637 10.2933 35.1774 10.4645 34.3593 10.9768C33.5541 11.5053 32.9875 12.3279 32.7808 13.2687C32.5741 14.2094 32.7435 15.1938 33.253 16.0112Z" fill="#23B3E8"/>
<path d="M0.604522 18.2921C1.17528 19.1659 2.0654 19.7816 3.08435 20.0074C4.10329 20.2332 5.17015 20.0512 6.05662 19.5004C6.93312 18.9295 7.55069 18.0375 7.77662 17.0162C8.00255 15.9948 7.81879 14.9256 7.26485 14.0383C6.69239 13.1634 5.79973 12.5479 4.77851 12.3239C3.75728 12.0998 2.68891 12.2852 1.80279 12.84C0.930668 13.4124 0.317039 14.3032 0.0931199 15.322C-0.130799 16.3408 0.052749 17.4068 0.604522 18.2921Z" fill="#F15832"/>
<path d="M33.0609 4.64311L24.5979 22.8937C24.455 23.1883 24.2593 23.4542 24.0206 23.6779C23.7786 23.9031 23.4951 24.0787 23.1859 24.1947C22.8753 24.3041 22.5467 24.3525 22.2179 24.3373C21.8886 24.3272 21.565 24.2482 21.2677 24.1056L20.8237 23.9006C20.5255 23.7604 20.2572 23.5637 20.0333 23.3214C19.8115 23.0782 19.6395 22.7936 19.5272 22.4837C19.4154 22.1726 19.3641 21.8429 19.3762 21.5124C19.3949 21.1831 19.4731 20.86 19.6071 20.5589L28.2388 1.96079C28.3554 1.70688 28.5208 1.47859 28.7256 1.28907C28.9304 1.09955 29.1705 0.952529 29.4321 0.85646C29.6937 0.760392 29.9717 0.717172 30.25 0.729288C30.5283 0.741404 30.8015 0.808617 31.0539 0.92706L31.8531 1.30134C32.1519 1.4402 32.4204 1.63703 32.6431 1.88049C32.8657 2.12395 33.0381 2.40923 33.1504 2.71988C33.2627 3.03052 33.3126 3.36039 33.2972 3.69048C33.2818 4.02056 33.2015 4.34432 33.0609 4.64311Z" fill="#4DBD98"/>
<path d="M22.7615 5.74584L12.1747 29.6108C12.0486 29.8943 11.8714 30.1494 11.6529 30.3621C11.4306 30.5777 11.1705 30.7458 10.8871 30.8571C10.6036 30.962 10.3038 31.0099 10.0034 30.9985C9.71252 30.9786 9.42743 30.9037 9.16184 30.7775L8.58116 30.4947C8.31087 30.3591 8.06802 30.17 7.86585 29.9378C7.66216 29.7067 7.50439 29.4352 7.4018 29.1392C7.2992 28.8433 7.25382 28.5288 7.26832 28.2142C7.28159 27.9078 7.35312 27.6073 7.47872 27.3304L18.2087 3.09417C18.3127 2.85545 18.4609 2.64084 18.6447 2.46284C18.8284 2.28485 19.044 2.14701 19.279 2.05735C19.5139 1.96769 19.7635 1.92801 20.0132 1.94061C20.2629 1.95321 20.5077 2.01784 20.7334 2.13074L21.6843 2.59036C22.2342 2.85914 22.66 3.34614 22.8683 3.9444C23.0766 4.54266 23.0503 5.20327 22.7952 5.78119L22.7615 5.74584Z" fill="#F3E503"/>
</svg>
