<svg width="273" height="191" viewBox="0 0 273 191" fill="none" xmlns="http://www.w3.org/2000/svg">
<path d="M0 0H273V186C273 188.761 270.761 191 268 191H5C2.23858 191 0 188.761 0 186V0Z" fill="#03293D"/>
<path d="M92.0167 96.6337C93.1003 98.3135 94.8042 99.4969 96.7568 99.9262C98.7094 100.355 100.753 99.9956 102.441 98.9253C104.119 97.8418 105.302 96.1395 105.731 94.1887C106.16 92.238 105.802 90.1966 104.733 88.509C103.651 86.8271 101.948 85.641 99.9957 85.2094C98.0429 84.7778 95.9986 85.1356 94.3086 86.2048C92.6268 87.2883 91.4419 88.993 91.0125 90.9468C90.5831 92.9007 90.9441 94.945 92.0167 96.6337Z" fill="#F15832"/>
<path d="M162.05 91.6562C163.133 93.3851 164.836 94.6032 166.788 95.045C168.739 95.4868 170.782 95.1165 172.469 94.0148C173.304 93.4661 174.025 92.7534 174.592 91.9175C175.159 91.0816 175.56 90.1389 175.773 89.1432C175.986 88.1475 176.006 87.1184 175.832 86.1148C175.658 85.1111 175.294 84.1526 174.76 83.2939C174.227 82.4347 173.535 81.6921 172.723 81.1084C171.911 80.5248 170.996 80.1117 170.028 79.8926C169.061 79.6736 168.062 79.6529 167.087 79.8318C166.112 80.0107 165.181 80.3857 164.347 80.9353C162.668 82.0494 161.485 83.8011 161.055 85.8089C160.625 87.8168 160.982 89.9184 162.05 91.6562Z" fill="#23B3E8"/>
<path d="M161.7 67.3185L143.366 106.721C143.066 107.368 142.642 107.948 142.118 108.43C141.593 108.911 140.978 109.283 140.309 109.526C139.64 109.771 138.93 109.881 138.218 109.851C137.507 109.82 136.808 109.649 136.163 109.347L135.201 108.901C134.555 108.601 133.974 108.176 133.491 107.651C133.009 107.125 132.635 106.51 132.391 105.84C132.146 105.169 132.037 104.457 132.068 103.745C132.099 103.032 132.27 102.332 132.571 101.686L151.25 61.5311C151.765 60.426 152.698 59.571 153.843 59.1539C154.988 58.7368 156.252 58.7918 157.357 59.3067L159.07 60.1034C159.716 60.4043 160.297 60.8296 160.778 61.355C161.26 61.8805 161.634 62.4957 161.878 63.1657C162.122 63.8357 162.232 64.5473 162.202 65.2599C162.171 65.9724 162.001 66.6719 161.7 67.3185Z" fill="#4DBD98"/>
<path d="M140.414 70.3636L116.276 122.346C115.691 123.603 114.634 124.576 113.335 125.054C112.693 125.291 112.011 125.397 111.328 125.366C110.644 125.337 109.973 125.172 109.352 124.882L108.031 124.245C107.413 123.952 106.857 123.543 106.392 123.04C105.931 122.533 105.573 121.94 105.338 121.294C105.102 120.651 104.996 119.966 105.027 119.281C105.059 118.595 105.223 117.922 105.509 117.299L130.028 64.4759C130.266 63.9614 130.603 63.499 131.019 63.1153C131.435 62.7316 131.923 62.4341 132.454 62.2399C132.985 62.0457 133.55 61.9586 134.114 61.9837C134.679 62.0088 135.233 62.1455 135.745 62.3859L137.905 63.3927C138.527 63.6814 139.085 64.09 139.549 64.5953C140.013 65.1006 140.374 65.6926 140.609 66.3375C140.845 66.9825 140.952 67.6677 140.924 68.3541C140.896 69.0405 140.734 69.7147 140.446 70.3381L140.414 70.3636Z" fill="#F3E503"/>
<path opacity="0.15" d="M161.225 19.444L142.928 58.839C142.474 59.812 141.742 60.6289 140.825 61.1869C139.909 61.7449 138.847 62.019 137.775 61.9748C137.063 61.9429 136.364 61.7719 135.718 61.4713L134.756 61.0251C133.454 60.4127 132.445 59.3113 131.948 57.9594C131.707 57.2899 131.596 56.5801 131.623 55.8689C131.655 55.1564 131.826 54.457 132.126 53.8102L150.812 13.6568C151.065 13.1092 151.423 12.6172 151.867 12.2091C152.311 11.801 152.831 11.4851 153.398 11.2795C154.543 10.8614 155.807 10.9141 156.913 11.4261L158.626 12.2291C159.273 12.53 159.853 12.9553 160.335 13.4807C160.817 14.0061 161.191 14.6214 161.435 15.2914C161.679 15.9613 161.789 16.6729 161.758 17.3854C161.728 18.0979 161.557 18.7974 161.257 19.444H161.225Z" fill="#A5A4A4"/>
<path opacity="0.15" d="M198.492 70.8654L180.16 110.261C179.862 110.909 179.439 111.491 178.914 111.973C178.389 112.456 177.773 112.829 177.103 113.071C176.433 113.319 175.72 113.43 175.007 113.397C174.295 113.363 173.597 113.192 172.95 112.893L171.988 112.447C170.685 111.837 169.677 110.734 169.185 109.381C168.94 108.712 168.83 108.001 168.86 107.289C168.891 106.577 169.062 105.878 169.364 105.232L188.046 65.0782C188.562 63.9748 189.493 63.1207 190.637 62.7027C191.78 62.2846 193.043 62.3367 194.148 62.8474L195.868 63.6505C197.172 64.2593 198.18 65.3613 198.673 66.7143C199.165 68.0673 199.1 69.5604 198.492 70.8654Z" fill="#A5A4A4"/>
<path opacity="0.15" d="M99.6363 70.8654L81.3047 110.261C81.0068 110.909 80.583 111.491 80.0582 111.973C79.5333 112.456 78.9177 112.829 78.2474 113.071C77.5776 113.319 76.865 113.43 76.1518 113.397C75.4399 113.363 74.7412 113.192 74.0944 112.893L73.1326 112.447C71.8292 111.837 70.8211 110.734 70.33 109.381C70.0848 108.712 69.9744 108.001 70.005 107.289C70.0356 106.577 70.2067 105.878 70.5083 105.232L89.1903 65.0782C89.7062 63.9748 90.6377 63.1207 91.7812 62.7027C92.9247 62.2846 94.1871 62.3367 95.2923 62.8474L97.0121 63.6505C98.316 64.2593 99.325 65.3613 99.8171 66.7143C100.309 68.0673 100.244 69.5604 99.6363 70.8654Z" fill="#A5A4A4"/>
<path opacity="0.15" d="M139.979 118.308L121.646 157.695C121.038 159 119.939 160.01 118.588 160.505C117.917 160.75 117.205 160.86 116.492 160.83C115.78 160.797 115.082 160.626 114.435 160.327L113.473 159.881C112.826 159.571 112.246 159.138 111.766 158.606C111.285 158.081 110.913 157.466 110.67 156.797C110.425 156.128 110.314 155.417 110.345 154.705C110.375 153.993 110.547 153.295 110.848 152.649L129.532 112.51C130.048 111.407 130.979 110.553 132.123 110.135C133.266 109.717 134.529 109.769 135.634 110.28L137.354 111.083C138.657 111.691 139.664 112.792 140.156 114.143C140.648 115.494 140.584 116.985 139.979 118.289V118.308Z" fill="#A5A4A4"/>
</svg>
