<svg width="1496" height="340" viewBox="0 0 1496 340" fill="none" xmlns="http://www.w3.org/2000/svg">
<path d="M695.389 262.134L701.07 225.062H609.478L709.641 77.7775L709.043 75.1653H559.645L553.964 112.338H643.663L543.998 259.22L544.596 262.134H695.389ZM858.64 237.419L833.524 215.216C828.611 220.256 822.698 224.194 816.172 226.774C809.646 229.353 802.654 230.516 795.652 230.186C785.489 230.365 775.658 226.545 768.244 219.536C764.237 215.13 761.573 209.654 760.57 203.763H864.121V194.821C864.888 184.794 863.583 174.715 860.29 165.221C856.996 155.727 851.785 147.026 844.986 139.665C838.143 132.93 830.008 127.674 821.079 124.219C812.151 120.764 802.617 119.182 793.061 119.572C773.36 119.397 754.384 127.049 740.238 140.871C733.672 147.665 728.525 155.719 725.101 164.554C721.678 173.39 720.047 182.828 720.305 192.31C719.999 201.813 721.607 211.279 725.033 220.138C728.459 228.996 733.632 237.063 740.238 243.849C747.496 250.809 756.052 256.249 765.41 259.853C774.768 263.457 784.742 265.155 794.755 264.847C806.766 265.427 818.751 263.261 829.815 258.512C840.878 253.762 850.732 246.551 858.64 237.419V237.419ZM768.941 160.864C772.176 157.797 775.982 155.41 780.14 153.84C784.298 152.271 788.723 151.55 793.16 151.721C797.413 151.565 801.653 152.276 805.627 153.813C809.6 155.349 813.224 157.679 816.282 160.663C820.695 165.262 823.495 171.189 824.255 177.541H760.071C761.33 171.221 764.416 165.418 768.941 160.864V160.864ZM1022.89 237.419L997.772 215.216C992.848 220.269 986.919 224.215 980.374 226.795C973.83 229.375 966.819 230.53 959.8 230.186C949.638 230.365 939.806 226.545 932.392 219.536C928.386 215.13 925.721 209.654 924.718 203.763H1028.07V194.821C1028.86 184.792 1027.57 174.706 1024.27 165.209C1020.98 155.712 1015.75 147.012 1008.93 139.665C1002.09 132.93 993.957 127.674 985.028 124.219C976.1 120.764 966.565 119.182 957.009 119.572C937.337 119.391 918.39 127.045 904.287 140.871C897.693 147.645 892.527 155.695 889.102 164.535C885.676 173.376 884.061 182.823 884.354 192.31C884.006 201.817 885.596 211.296 889.024 220.16C892.453 229.025 897.647 237.087 904.287 243.849C911.484 250.744 919.96 256.139 929.23 259.725C938.499 263.311 948.38 265.017 958.305 264.746C970.341 265.37 982.36 263.235 993.46 258.502C1004.56 253.768 1014.45 246.56 1022.39 237.419H1022.89ZM933.189 160.864C936.433 157.811 940.241 155.433 944.397 153.864C948.552 152.295 952.973 151.567 957.408 151.721C961.661 151.559 965.903 152.268 969.877 153.805C973.852 155.341 977.475 157.674 980.53 160.663C984.973 165.252 987.808 171.179 988.603 177.541H924.319C925.425 171.315 928.258 165.532 932.491 160.864H933.189ZM1166.6 262.134H1197.5V61.2004H1157.63V136.852C1152.52 131.39 1146.34 127.06 1139.47 124.136C1132.61 121.213 1125.22 119.762 1117.77 119.873C1108.71 119.534 1099.67 121.071 1091.22 124.389C1082.77 127.706 1075.08 132.734 1068.63 139.163C1055.16 153.665 1047.66 172.791 1047.66 192.661C1047.66 212.531 1055.16 231.657 1068.63 246.16C1075.06 252.516 1082.71 257.479 1091.1 260.745C1099.5 264.01 1108.48 265.509 1117.47 265.148C1126.55 265.444 1135.55 263.37 1143.6 259.128C1151.65 254.886 1158.48 248.619 1163.42 240.936L1166.6 262.134ZM1123.85 228.176C1119.01 228.434 1114.17 227.696 1109.63 226.008C1105.08 224.319 1100.92 221.716 1097.41 218.355C1093.89 214.995 1091.1 210.948 1089.18 206.461C1087.27 201.975 1086.28 197.143 1086.28 192.259C1086.28 187.376 1087.27 182.544 1089.18 178.057C1091.1 173.571 1093.89 169.524 1097.41 166.164C1100.92 162.803 1105.08 160.199 1109.63 158.511C1114.17 156.822 1119.01 156.084 1123.85 156.342C1128.69 156.084 1133.52 156.822 1138.07 158.511C1142.62 160.199 1146.77 162.803 1150.29 166.164C1153.8 169.524 1156.6 173.571 1158.51 178.057C1160.43 182.544 1161.41 187.376 1161.41 192.259C1161.41 197.143 1160.43 201.975 1158.51 206.461C1156.6 210.948 1153.8 214.995 1150.29 218.355C1146.77 221.716 1142.62 224.319 1138.07 226.008C1133.52 227.696 1128.69 228.434 1123.85 228.176V228.176ZM1326.67 262.134H1356.96V179.852C1357.17 171.824 1355.76 163.838 1352.81 156.377C1349.87 148.916 1345.45 142.137 1339.82 136.45C1326.46 124.626 1309.04 118.533 1291.29 119.471C1268.21 119.132 1245.74 126.873 1227.7 141.373L1247.33 169.303C1258.32 159.33 1272.42 153.539 1287.2 152.927C1295.71 152.304 1304.12 155.083 1310.62 160.663C1313.51 163.799 1315.67 167.545 1316.95 171.629C1318.22 175.713 1318.58 180.032 1318 184.272C1306.37 180.151 1294.14 178.012 1281.82 177.943C1250.72 177.943 1225.91 194.018 1225.91 221.144C1225.91 248.27 1247.23 264.545 1277.83 264.545C1286.42 264.643 1294.93 262.983 1302.86 259.668C1310.8 256.352 1317.98 251.449 1323.98 245.256L1326.67 262.134ZM1265.57 219.536C1265.57 209.489 1274.94 203.662 1289.19 203.662C1299.04 203.769 1308.8 205.64 1318 209.188V223.856C1309.02 230.589 1298.08 234.123 1286.9 233.903C1274.04 233.702 1265.57 228.478 1265.57 219.536ZM1438.09 176.637C1426.13 174.326 1421.55 171.212 1421.55 164.581C1421.55 157.95 1429.52 151.922 1440.68 151.922C1454.69 151.95 1468.35 156.375 1479.75 164.581L1492.81 134.441C1476.41 124.437 1457.56 119.252 1438.39 119.471C1405.5 119.471 1382.98 137.957 1382.98 163.777C1382.98 189.597 1399.52 200.849 1423.54 205.169L1441.48 208.686C1450.65 210.394 1456.03 213.508 1456.03 219.636C1456.03 227.975 1447.46 232.798 1434.9 232.798C1420.53 232.574 1406.52 228.292 1394.44 220.44L1379.59 251.183C1397.64 260.338 1417.58 265.087 1437.79 265.047C1471.98 265.047 1496 246.662 1496 220.44C1496 196.328 1479.75 185.076 1453.74 179.651L1438.09 176.637Z" fill="white"/>
<path d="M373.471 171.657C379.407 180.73 388.663 187.114 399.253 189.437C409.842 191.761 420.92 189.839 430.109 184.084V184.084C439.152 178.149 445.515 168.91 447.837 158.344C450.159 147.778 448.256 136.723 442.534 127.542C436.598 118.469 427.342 112.085 416.752 109.762C406.163 107.438 395.085 109.36 385.896 115.115V115.115C376.853 121.05 370.49 130.289 368.168 140.855C365.846 151.421 367.75 162.476 373.471 171.657V171.657Z" fill="#23B3E8"/>
<path d="M6.78953 197.273C13.1998 207.087 23.197 214.001 34.641 216.537C46.085 219.074 58.0671 217.03 68.0233 210.843V210.843C77.8675 204.431 84.8036 194.414 87.341 182.943C89.8784 171.472 87.8147 159.463 81.5932 149.497V149.497C75.1637 139.672 65.1381 132.759 53.6685 130.242C42.1989 127.726 30.1998 129.807 20.2476 136.039C10.4525 142.467 3.56074 152.472 1.04585 163.915C-1.46904 175.358 0.592436 187.33 6.78953 197.273Z" fill="#F15832"/>
<path d="M371.314 43.9794L276.264 248.955C274.66 252.265 272.462 255.251 269.781 257.763C267.064 260.293 263.879 262.265 260.406 263.568C256.918 264.796 253.227 265.34 249.535 265.169C245.836 265.055 242.201 264.169 238.863 262.567L233.876 260.265C230.527 258.69 227.513 256.481 224.999 253.76C222.507 251.028 220.576 247.831 219.314 244.351C218.059 240.857 217.483 237.154 217.619 233.442C217.828 229.744 218.707 226.115 220.212 222.733L317.157 13.8536C318.466 11.0019 320.324 8.43799 322.624 6.30944C324.924 4.18089 327.621 2.52965 330.559 1.45069C333.497 0.37172 336.619 -0.113694 339.745 0.0223824C342.871 0.158459 345.939 0.913352 348.774 2.2436L357.75 6.4472C361.106 8.00675 364.121 10.2174 366.622 12.9518C369.122 15.6862 371.059 18.8902 372.32 22.3792C373.581 25.8681 374.141 29.5729 373.969 33.2802C373.796 36.9874 372.894 40.6237 371.314 43.9794V43.9794Z" fill="#4DBD98"/>
<path d="M255.64 56.3628L136.736 324.396C135.32 327.58 133.33 330.445 130.876 332.834C128.38 335.256 125.458 337.144 122.275 338.393C119.091 339.571 115.724 340.11 112.351 339.981C109.083 339.758 105.882 338.917 102.899 337.5L96.377 334.323C93.3412 332.8 90.6137 330.676 88.3432 328.069C86.0555 325.473 84.2835 322.423 83.1312 319.1C81.979 315.776 81.4693 312.244 81.6322 308.711C81.7811 305.269 82.5846 301.894 83.9951 298.784L204.506 26.5814C205.674 23.9002 207.339 21.4899 209.403 19.4908C211.466 17.4916 213.888 15.9435 216.527 14.9366C219.165 13.9296 221.968 13.484 224.773 13.6255C227.577 13.767 230.326 14.4928 232.861 15.7608L243.542 20.9229C249.717 23.9417 254.5 29.4113 256.839 36.1304C259.178 42.8496 258.883 50.2692 256.018 56.7599L255.64 56.3628Z" fill="#F3E503"/>
</svg>
