<svg width="122" height="123" viewBox="0 0 122 123" fill="none" xmlns="http://www.w3.org/2000/svg">
<path fill-rule="evenodd" clip-rule="evenodd" d="M44.2553 51.3388C44.3563 61.9787 56.2812 79.5301 70.9094 79.9725C81.8995 80.3047 108.377 69.426 109.943 57.5692C110.903 50.2791 100.595 20.4939 71.8695 24.3973C59.8183 26.0358 44.129 37.975 44.2553 51.3388Z" fill="#C4E2E6"/>
<path fill-rule="evenodd" clip-rule="evenodd" d="M42.9901 104.616C42.6611 105.609 37.9325 111.473 37.2497 111.362C36.0359 111.165 40.0314 103.514 41.0682 103.305C42.5096 103.008 43.1419 104.051 42.9901 104.616Z" fill="#784B63"/>
<path fill-rule="evenodd" clip-rule="evenodd" d="M84.0327 68.1632C81.2763 89.261 43.7232 104.89 42.3323 104.33C40.9415 103.77 41.3461 103.006 42.3323 102.657C61.1974 95.8308 71.1104 74.4708 73.1588 61.8915C73.4875 59.9626 84.3362 65.9434 84.0327 68.1632Z" fill="#EB8268"/>
<mask id="mask0" mask-type="alpha" maskUnits="userSpaceOnUse" x="76" y="78" width="7" height="5">
<path fill-rule="evenodd" clip-rule="evenodd" d="M76.5732 82.7914C77.6606 81.5678 78.6469 80.304 79.5573 79.0059C80.4676 78.7834 81.378 78.5309 82.3137 78.2502L82.2631 78.4066C82.2631 78.4066 77.6859 82.571 76.5732 82.7914Z" fill="white"/>
</mask>
<g mask="url(#mask0)">
<path fill-rule="evenodd" clip-rule="evenodd" d="M76.5732 82.7914H82.3137V78.2502H76.5732V82.7914Z" fill="#FFFFFE"/>
</g>
<path fill-rule="evenodd" clip-rule="evenodd" d="M76.5732 82.7915C79.5825 79.3951 81.9596 75.6964 83.2241 71.7751C82.4148 74.2837 81.1504 76.7011 79.5573 79.006C78.6469 80.304 77.6606 81.5678 76.5732 82.7915Z" fill="#EFA630"/>
<path fill-rule="evenodd" clip-rule="evenodd" d="M39.955 104.329L39.8032 103.937C40.0561 103.862 40.309 103.783 40.5619 103.701C40.4354 103.858 40.2584 104.057 40.1067 104.288C40.0561 104.302 40.0053 104.315 39.955 104.329Z" fill="#FFFFFE"/>
<path fill-rule="evenodd" clip-rule="evenodd" d="M40.1074 104.288C40.2592 104.057 40.4362 103.858 40.5626 103.701C40.8661 103.605 41.144 103.506 41.4477 103.402C41.4477 103.43 41.4477 103.458 41.4477 103.486C41.4477 103.594 41.473 103.703 41.5489 103.812C41.0684 103.982 40.5879 104.141 40.1074 104.288Z" fill="#784B63"/>
<path fill-rule="evenodd" clip-rule="evenodd" d="M41.5491 103.812C41.4732 103.703 41.4479 103.594 41.4479 103.486C41.4479 103.594 41.4732 103.703 41.5491 103.812V103.812Z" fill="#EFA630"/>
<path fill-rule="evenodd" clip-rule="evenodd" d="M76.4721 82.8007C76.2698 82.8005 76.2445 82.6154 76.4468 82.1692C77.7112 79.456 77.4583 76.3479 76.5227 73.6282C77.3572 72.0167 78.0147 70.4336 78.4952 68.9026C80.1389 69.8266 81.7068 70.7853 83.2241 71.7752C81.9596 75.6964 79.5826 79.3951 76.5732 82.7915C76.5227 82.7976 76.4974 82.8007 76.4721 82.8007Z" fill="#DE7960"/>
<path fill-rule="evenodd" clip-rule="evenodd" d="M71.9951 67.1079V67.1077C72.1721 66.4896 72.3239 65.8832 72.4756 65.2881V65.2883C72.3239 65.8826 72.1721 66.4906 71.9951 67.1079Z" fill="#DF882F"/>
<path fill-rule="evenodd" clip-rule="evenodd" d="M76.2941 73.0189C75.232 70.2981 73.5124 68.047 71.9951 67.1079C72.1721 66.4906 72.3239 65.8826 72.4756 65.2883C72.7285 65.759 73.0572 66.1078 73.4113 66.2815C75.0297 67.0427 76.5723 67.8366 78.0643 68.6613C77.6344 70.0614 77.0528 71.5207 76.2941 73.0189Z" fill="#DE7960"/>
<path fill-rule="evenodd" clip-rule="evenodd" d="M41.5479 103.812C41.4721 103.703 41.4468 103.594 41.4468 103.486C41.4468 103.458 41.4468 103.43 41.4468 103.402C48.7295 100.838 56.8979 95.5667 64.0798 88.7303C69.5926 83.516 73.8158 78.0443 76.294 73.0189C77.0527 71.5207 77.6343 70.0614 78.0642 68.6613C78.1906 68.7411 78.3424 68.8223 78.4941 68.9026C78.0136 70.4336 77.3561 72.0166 76.5216 73.6282C70.3766 85.5867 55.1277 99.075 41.5479 103.812Z" fill="#DB7055"/>
<path fill-rule="evenodd" clip-rule="evenodd" d="M115.643 115.201C117.262 115.914 122.471 122.213 121.965 122.937C121.46 123.659 114.379 117.98 114.126 117.292C113.57 115.864 115.036 114.941 115.643 115.201Z" fill="#784B63"/>
<path fill-rule="evenodd" clip-rule="evenodd" d="M75.6883 56.0372C70.5548 58.4872 71.3134 65.2822 73.4123 66.2815C103.253 80.4707 113.621 106.456 114.632 115.619C114.733 116.504 115.871 115.94 115.897 114.992C116.933 83.9894 88.56 58.2128 82.2632 55.6198C80.0884 54.723 78.0907 54.8901 75.6883 56.0372Z" fill="#F98E73"/>
<path fill-rule="evenodd" clip-rule="evenodd" d="M114.1 116.172C114.201 114.653 113.999 112.705 113.518 110.43C114.1 112.402 114.454 114.109 114.631 115.466C114.403 115.639 114.201 115.879 114.1 116.172Z" fill="#FFFFFE"/>
<path fill-rule="evenodd" clip-rule="evenodd" d="M114.303 116.874C114.303 116.874 114.303 116.874 114.278 116.873C114.151 116.862 114.05 116.761 114.05 116.646C114.076 116.493 114.101 116.335 114.101 116.172C114.202 115.879 114.404 115.639 114.632 115.466C114.632 115.487 114.632 115.508 114.632 115.528C114.632 115.932 114.607 116.317 114.556 116.682C114.556 116.791 114.43 116.874 114.303 116.874Z" fill="#784B63"/>
<path fill-rule="evenodd" clip-rule="evenodd" d="M114.631 115.528C114.631 115.508 114.631 115.487 114.631 115.466C114.454 114.109 114.1 112.402 113.518 110.429C113.518 110.429 113.518 110.428 113.518 110.428C114.1 112.43 114.479 114.161 114.631 115.528V115.528Z" fill="#F4B927"/>
<path fill-rule="evenodd" clip-rule="evenodd" d="M72.5764 59.0599C72.9557 58.3077 73.4867 57.6008 74.1948 57.0011C74.8776 56.9392 75.7374 56.879 76.496 56.8765H76.5719C77.6087 56.8781 78.4685 56.9883 78.4938 57.3448C78.595 58.125 74.3465 58.3977 72.5764 59.0599Z" fill="#DF882F"/>
<path fill-rule="evenodd" clip-rule="evenodd" d="M114.632 115.528C114.48 114.161 114.101 112.43 113.519 110.428C112.153 104.01 108.461 94.9987 102.341 85.7382C90.8606 68.2277 79.1268 62.295 72.0967 60.2987C72.1473 60.1609 72.1978 60.0237 72.2231 59.8872C77.736 61.4239 83.1982 64.48 88.5088 68.992C93.5664 73.3132 98.5229 79.0349 102.797 85.5383C109.903 96.352 114.707 108.638 114.632 115.528Z" fill="#DB7055"/>
<path fill-rule="evenodd" clip-rule="evenodd" d="M61.5268 14.0612C66.1546 13.2499 70.6559 5.34516 75.4354 9.04285C86.9668 17.9763 75.2078 35.1615 73.9181 36.4349C72.6284 37.7081 74.2974 43.7113 71.3892 46.4714C69.5432 48.2083 67.2925 48.0645 64.8901 47.9206C62.7154 47.7887 60.4141 47.6559 58.2393 48.9805C56.1404 50.2594 56.2416 53.7149 51.6644 53.7902C49.2114 53.8302 47.7953 53.1267 46.632 52.4225C45.4182 51.6767 44.5078 50.9302 43.0664 51.0715C37.2248 51.6407 33.7603 55.8404 30.6751 52.5352C27.1092 48.7271 34.3164 43.9614 34.9741 42.0805C36.4156 37.972 27.3876 37.3317 29.1578 31.4165C30.8268 25.8451 38.3122 25.8474 42.0548 23.0522C46.8341 19.4848 45.2917 13.1355 49.8942 11.552C52.7012 10.5872 54.4461 11.6256 56.191 12.664C57.7083 13.5617 59.2509 14.4602 61.5268 14.0612Z" fill="#F8D9AF"/>
<path fill-rule="evenodd" clip-rule="evenodd" d="M85.2984 29.9529C105.832 36.3166 102.924 29.0762 98.4483 23.0523C98.1449 22.6558 99.4851 22.5944 99.7127 22.8436C106.161 30.6116 108.488 39.5043 82.0109 35.5988C80.873 35.43 84.2616 29.6366 85.2984 29.9529Z" fill="#3D43A2"/>
<path fill-rule="evenodd" clip-rule="evenodd" d="M101.583 36.0633C101.381 35.8158 101.153 35.5703 100.951 35.3265C103.075 34.3761 103.935 32.9348 103.935 31.2334C103.935 30.8409 103.884 30.4355 103.809 30.0181C103.834 29.6378 103.96 29.5067 104.112 29.4998H104.137C104.441 29.5127 104.795 29.9529 104.795 29.9529V33.5075L101.583 36.0633Z" fill="#FFFFFE"/>
<path fill-rule="evenodd" clip-rule="evenodd" d="M93.0357 36.5494C91.1138 36.5494 88.8884 36.4234 86.3596 36.153C85.955 34.9793 85.7021 33.8546 85.5757 32.893C89.9506 34.1793 93.4909 34.7345 96.2473 34.7345C101.305 34.7345 103.707 32.8371 103.783 30.1615C103.783 30.1101 103.809 30.0624 103.809 30.0181C103.884 30.4354 103.935 30.8409 103.935 31.2333C103.935 34.3207 101.103 36.5494 93.0357 36.5494Z" fill="#2D3182"/>
<path fill-rule="evenodd" clip-rule="evenodd" d="M98.4489 22.8435C98.2466 22.4031 101.635 19.8268 102.242 20.3343C102.824 20.842 102.849 22.1296 102.495 22.4255C102.116 22.7206 100.497 23.4263 99.9662 23.471C99.4098 23.5149 98.6259 23.2832 98.4489 22.8435Z" fill="#F2BCB6"/>
<path fill-rule="evenodd" clip-rule="evenodd" d="M69.1899 31.3511C74.7534 41.7809 75.7649 50.4369 75.3856 55.8245C75.3097 56.8165 82.1881 57.9786 83.5031 56.1233C84.0847 55.3066 85.7032 45.1268 85.1974 41.1477C86.4113 40.7241 87.5745 38.9599 87.1193 38.0198C85.1468 34.048 85.3744 29.9528 85.3744 29.9528C85.3744 29.9528 82.795 29.3103 81.0754 28.4829C80.772 28.3334 80.4938 28.4645 80.2156 28.5956C79.9627 28.7298 79.7099 28.8643 79.5076 28.698C78.673 28.0233 76.7258 28.307 76.2201 28.698C76.0431 28.8467 75.7396 28.7419 75.4614 28.6372C75.2086 28.5389 74.9557 28.4398 74.7787 28.5548C73.2866 29.6283 71.8452 30.2487 69.1899 31.3511Z" fill="#4C52BC"/>
<path fill-rule="evenodd" clip-rule="evenodd" d="M85.3974 41.0661C86.4089 40.5959 87.3193 39.2767 87.2182 38.3623C87.3193 39.2767 86.4089 40.5959 85.3974 41.0661Z" fill="#4A5256"/>
<path fill-rule="evenodd" clip-rule="evenodd" d="M79.3041 41.4375C77.7363 41.4375 76.3707 41.3342 75.9661 41.035C75.8649 40.9411 75.7891 40.8054 75.7891 40.6471V40.6158C75.8144 39.9456 76.6994 38.9093 77.5087 38.9093C77.5845 38.9093 77.6604 38.9204 77.7363 38.9438C77.9133 38.9921 78.242 39.0128 78.6719 39.0128C80.8467 39.0126 85.7274 38.5292 87.2194 38.3623C87.3205 39.2767 86.4101 40.5959 85.3986 41.0661C84.4124 41.2194 81.6307 41.4375 79.3041 41.4375Z" fill="#383D95"/>
<path fill-rule="evenodd" clip-rule="evenodd" d="M72.1973 57.4122C73.0571 57.6104 78.3929 58.2128 78.5446 57.2125C78.6711 56.2116 72.9306 55.8193 72.2478 56.3471C71.5903 56.875 71.3375 57.2136 72.1973 57.4122Z" fill="#F2BCB6"/>
<path fill-rule="evenodd" clip-rule="evenodd" d="M93.718 15.6087C91.9478 16.1578 90.304 17.8101 91.0121 19.4831C91.6949 21.1546 94.3249 21.2858 95.8169 20.9508C97.3089 20.6158 104.971 19.7844 107.323 19.679C108.992 19.6046 110.788 20.4343 112.254 21.2648C113.822 22.1418 114.985 23.0185 115.213 22.8291C117.312 21.053 115.87 7.46187 112.103 5.93107C110.965 5.47314 109.397 10.7495 106.666 11.5297C99.5848 13.5657 94.5525 15.3434 93.718 15.6087Z" fill="#D8E0F7"/>
<path fill-rule="evenodd" clip-rule="evenodd" d="M97.5364 19.9452C97.5617 20.2896 99.8376 23.5087 100.546 23.5158C101.229 23.5222 101.937 23.4622 102.063 23.1057C102.164 22.7477 101.633 22.7973 101.304 22.4742C100.976 22.1506 100.697 19.9939 100.318 19.5414C99.9388 19.0889 97.4858 19.6006 97.5364 19.9452Z" fill="#49A1CD"/>
<path fill-rule="evenodd" clip-rule="evenodd" d="M99.7889 24.9725C99.3842 24.3304 98.9291 23.6845 98.4486 23.0522C98.398 22.9687 98.398 22.9001 98.4486 22.8462C98.6256 23.2487 99.3084 23.4762 99.8394 23.4762C99.89 23.4762 99.9406 23.4745 99.9659 23.471C100.042 23.4657 100.118 23.4517 100.193 23.4306C100.573 23.9023 100.927 24.3757 101.281 24.8502L99.7889 24.9725Z" fill="#3D43A2"/>
<path fill-rule="evenodd" clip-rule="evenodd" d="M99.8393 23.4763C99.3082 23.4763 98.6254 23.2488 98.4484 22.8463C98.4484 22.8455 98.4484 22.8446 98.4484 22.8436C98.3978 22.7221 98.6254 22.4375 98.9795 22.1001C99.4347 22.6778 99.9151 23.1999 100.269 23.4136C100.244 23.4197 100.219 23.4255 100.193 23.4308C100.117 23.4519 100.042 23.4659 99.9657 23.4711C99.9404 23.4747 99.8899 23.4763 99.8393 23.4763ZM101.862 22.7855C101.71 22.7094 101.483 22.642 101.306 22.4743C101.103 22.2886 100.926 21.4999 100.749 20.7758C101.255 20.4766 101.736 20.2686 102.039 20.2686C102.115 20.2686 102.191 20.2893 102.241 20.3344C102.823 20.8421 102.848 22.1297 102.494 22.4256C102.393 22.5168 102.14 22.6473 101.862 22.7855Z" fill="#F2BCB6"/>
<path fill-rule="evenodd" clip-rule="evenodd" d="M100.623 23.5163C100.598 23.5163 100.572 23.5163 100.547 23.5159C100.471 23.5152 100.37 23.4786 100.269 23.4136C99.9148 23.1999 99.4343 22.6778 98.9791 22.1001C98.5745 21.5955 98.1699 21.0485 97.917 20.6282C98.7009 20.5233 99.6366 20.4099 100.623 20.2993C100.673 20.4497 100.699 20.6109 100.749 20.7759C100.926 21.5 101.103 22.2887 101.306 22.4744C101.483 22.642 101.71 22.7094 101.862 22.7855C102.014 22.8557 102.115 22.9337 102.064 23.1058C101.938 23.4464 101.306 23.5163 100.623 23.5163Z" fill="#6D7897"/>
<path fill-rule="evenodd" clip-rule="evenodd" d="M90.1534 20.4218L89.6223 19.7071C89.6223 19.7071 89.4453 19.3974 89.4959 19.194L90.1534 20.4218Z" fill="#FFFFFE"/>
<path fill-rule="evenodd" clip-rule="evenodd" d="M90.8877 19.0417C90.8624 18.9159 90.8624 18.7904 90.8624 18.6662C90.8624 17.3508 92.1521 16.1635 93.5682 15.6656C93.113 16.3224 93.1383 17.4884 93.4671 18.5857C92.3797 18.7973 91.4946 18.9621 90.8877 19.0417Z" fill="#6D7897"/>
<path fill-rule="evenodd" clip-rule="evenodd" d="M115.138 22.8553C114.759 22.8553 113.672 22.0601 112.255 21.2649C110.865 20.4693 109.145 19.6743 107.552 19.6743C107.476 19.6743 107.4 19.676 107.324 19.6791C106.06 19.7364 103.202 20.0088 100.623 20.2993C100.522 19.9587 100.421 19.6753 100.319 19.5415C100.218 19.4144 99.9401 19.3634 99.6114 19.3634C98.7516 19.3634 97.4871 19.6975 97.5377 19.9453C97.5377 20.0298 97.6895 20.2874 97.917 20.6282C96.9561 20.7539 96.1974 20.8676 95.8181 20.9508C95.6158 20.9964 95.3882 21.0334 95.1606 21.0589C94.402 20.6537 93.7951 19.6521 93.4663 18.5857C94.7813 18.3304 96.3492 18.0072 97.9929 17.6839C101.559 16.9786 105.428 16.2733 107.476 16.2733C108.184 16.2733 108.69 16.362 108.842 16.5704C111.573 19.9373 113.292 22.0177 114.506 22.0177C114.557 22.0177 114.607 22.0141 114.658 22.0068C115.062 21.9503 115.417 21.8564 115.644 21.8564C115.695 21.8564 115.745 21.8602 115.771 21.8692C115.644 22.307 115.442 22.6372 115.214 22.8292C115.189 22.8469 115.164 22.8553 115.138 22.8553Z" fill="#E4EBFF"/>
<path fill-rule="evenodd" clip-rule="evenodd" d="M97.9169 20.6281C97.6893 20.2873 97.5376 20.0297 97.5376 19.9452C97.487 19.6974 98.7514 19.3633 99.6112 19.3633C99.94 19.3633 100.218 19.4143 100.319 19.5414C100.42 19.6753 100.522 19.9586 100.623 20.2992C99.6365 20.4098 98.7009 20.5231 97.9169 20.6281Z" fill="#6D7897"/>
<path fill-rule="evenodd" clip-rule="evenodd" d="M94.4023 21.0991C93.0367 21.0991 91.5194 20.6978 91.0136 19.4831C90.9631 19.3355 90.9125 19.1883 90.8872 19.0417C91.4941 18.9621 92.3792 18.7973 93.4666 18.5857C93.7954 19.6521 94.4023 20.6537 95.1609 21.0589C94.9333 21.0848 94.6804 21.0991 94.4023 21.0991Z" fill="#6D7897"/>
<path fill-rule="evenodd" clip-rule="evenodd" d="M112.23 6.74047C111.598 6.63509 111.547 10.968 112.28 14.9846C112.938 18.5813 114.329 21.9243 114.885 21.6008C116.048 20.9399 114.228 7.07419 112.23 6.74047Z" fill="#AEB9D8"/>
<path fill-rule="evenodd" clip-rule="evenodd" d="M112.685 13.2278C112.912 13.022 116.63 12.6787 116.984 14.0838C117.237 15.1504 114.126 16.0991 113.418 16.1591C112.609 15.2455 112.609 13.9956 112.685 13.2278Z" fill="#6D7897"/>
<path fill-rule="evenodd" clip-rule="evenodd" d="M99.7112 22.6342C100.065 22.4479 102.392 21.5105 102.24 21.1705C102.063 20.8305 98.8514 21.6537 98.9525 22.0069C99.0284 22.36 99.3319 22.8207 99.7112 22.6342Z" fill="#F2BCB6"/>
<path fill-rule="evenodd" clip-rule="evenodd" d="M69.8718 30.9986C71.4143 30.4629 74.019 35.6387 73.1592 35.8074C69.2143 36.5754 56.3425 52.8479 72.6535 56.0899C73.3615 56.2338 72.8811 57.4528 71.6419 57.3449C54.3953 55.8342 57.8093 35.1655 69.8718 30.9986Z" fill="#3D43A2"/>
<path fill-rule="evenodd" clip-rule="evenodd" d="M66.8368 48.0001C66.2046 48.0001 65.5724 47.9604 64.8896 47.9206C64.8137 47.9154 64.7379 47.9104 64.6367 47.9054C65.0411 43.3682 68.961 38.3931 71.6669 36.5344C72.1473 37.6914 72.5772 38.819 72.9566 39.9168L68.43 47.8876C67.9242 47.971 67.3931 48.0001 66.8368 48.0001Z" fill="#F8D9AF"/>
<path fill-rule="evenodd" clip-rule="evenodd" d="M64.6613 49.5736C64.6613 49.5734 64.6613 49.5732 64.6613 49.5727C63.9282 43.732 70.5284 36.3199 73.1584 35.8074C73.6136 35.7185 73.1078 34.2434 72.2986 32.9436C73.1078 34.2436 73.6136 35.7185 73.1584 35.8074C72.7538 35.8883 72.248 36.142 71.6664 36.5344C68.9605 38.3931 65.0406 43.3682 64.6362 47.9054C64.5857 48.4704 64.6109 49.0291 64.6613 49.5736Z" fill="#343A3F"/>
<path fill-rule="evenodd" clip-rule="evenodd" d="M64.6617 49.5727C64.6366 49.5169 64.6113 49.459 64.586 49.3986C61.3744 41.3531 69.2897 34.497 72.299 32.9436C73.1082 34.2434 73.614 35.7185 73.1588 35.8074C70.5288 36.3199 63.9285 43.732 64.6617 49.5727Z" fill="#2D3182"/>
<path fill-rule="evenodd" clip-rule="evenodd" d="M76.6997 14.1691C80.6699 15.9653 82.5413 23.6455 81.1251 24.1906C80.1136 24.5918 78.6469 23.7477 78.6469 23.7477C78.6469 23.7477 78.2675 27.3639 81.555 28.5854C80.417 29.8283 76.3709 30.2592 74.626 28.4926C76.8767 27.1384 75.8904 23.1706 75.5111 22.1138C72.7547 14.0907 74.8536 13.3219 76.6997 14.1691Z" fill="#F2BCB6"/>
<path fill-rule="evenodd" clip-rule="evenodd" d="M78.647 24.4463C78.647 24.3108 78.647 24.1903 78.647 24.0893C78.647 23.8748 78.647 23.7477 78.647 23.7477C78.647 23.7477 79.001 23.9499 79.4815 24.1092C79.178 24.219 78.8999 24.3319 78.647 24.4463Z" fill="#FBDFD0"/>
<path fill-rule="evenodd" clip-rule="evenodd" d="M75.4599 26.8163L75.207 22.2159C75.207 22.2159 75.3335 22.0765 75.4346 21.8822C75.4599 21.9587 75.4852 22.0359 75.5105 22.1137C75.7128 22.6502 76.0668 23.9376 76.0668 25.2522C76.0668 25.5579 76.0415 25.8651 75.991 26.1645C75.6116 26.5547 75.4599 26.8163 75.4599 26.8163Z" fill="#FBDFD0"/>
<path fill-rule="evenodd" clip-rule="evenodd" d="M75.9915 26.1646C76.0421 25.8652 76.0674 25.558 76.0674 25.2523C76.0674 23.9377 75.7134 22.6503 75.511 22.1137C75.4858 22.0359 75.4605 21.9588 75.4352 21.8823C75.6122 21.6048 75.7892 21.2159 75.7134 20.9612C76.826 22.79 78.5456 23.742 79.5066 24.0976C79.5066 24.1016 79.5066 24.1054 79.4813 24.1091C79.0008 23.9498 78.6468 23.7476 78.6468 23.7476C78.6468 23.7476 78.6468 23.8748 78.6468 24.0893C78.6468 24.1903 78.6468 24.3107 78.6468 24.4462C77.2812 25.0518 76.472 25.6995 75.9915 26.1646Z" fill="#E98B96"/>
<path fill-rule="evenodd" clip-rule="evenodd" d="M76.1679 13.3394C76.699 14.2537 76.4714 22.8167 74.246 24.5077C72.0207 26.1989 70.2505 21.2784 70.2505 21.2784L71.9954 14.5285C71.9954 14.5285 75.6369 12.4252 76.1679 13.3394Z" fill="#F8D9AF"/>
<path opacity="0.497768" fill-rule="evenodd" clip-rule="evenodd" d="M0.13593 12.447C-0.725203 11.6401 2.694 6.06227 5.07478 8.95384C6.34115 -3.55841 31.2634 -1.686 19.2328 6.7826C26.4005 4.96741 35.3411 6.67492 26.7548 11.5029C27.4642 11.0627 31.162 11.2285 31.5926 12.2109C32.4535 14.1381 1.68065 13.8862 0.13593 12.447Z" fill="#C4E2E6"/>
</svg>
