<svg width="25" height="25" viewBox="0 0 25 25" fill="none" xmlns="http://www.w3.org/2000/svg">
<path opacity="0.2" fill-rule="evenodd" clip-rule="evenodd" d="M12.5 25C19.4036 25 25 19.4036 25 12.5C25 5.59644 19.4036 0 12.5 0C5.59644 0 0 5.59644 0 12.5C0 19.4036 5.59644 25 12.5 25Z" fill="#F15832"/>
<path d="M11.4168 7.625H13.5835C14.7328 7.625 15.835 8.08155 16.6476 8.8942C17.4603 9.70686 17.9168 10.8091 17.9168 11.9583C17.9168 13.1076 17.4603 14.2098 16.6476 15.0225C15.835 15.8351 14.7328 16.2917 13.5835 16.2917V18.1875C10.8752 17.1042 7.0835 15.4792 7.0835 11.9583C7.0835 10.8091 7.54004 9.70686 8.3527 8.8942C9.16536 8.08155 10.2676 7.625 11.4168 7.625Z" fill="#F15832"/>
</svg>
