<svg width="543" height="393" viewBox="0 0 543 393" fill="none" xmlns="http://www.w3.org/2000/svg">
<g opacity="0.2">
<path d="M176.908 426.995C179.623 436.133 185.696 443.671 193.804 447.965C201.912 452.259 211.398 452.963 220.194 449.921C228.962 446.807 236.302 440.213 240.616 431.575C244.931 422.936 245.872 412.951 243.234 403.794C240.53 394.649 234.464 387.1 226.358 382.794C218.253 378.488 208.765 377.774 199.963 380.808C191.18 383.919 183.826 390.521 179.507 399.174C175.188 407.827 174.254 417.828 176.908 426.995Z" fill="#F15832"/>
<path d="M521.53 371.111L391.617 534.301C389.493 536.98 386.897 539.205 383.979 540.847C381.062 542.489 377.881 543.516 374.619 543.868C371.357 544.236 368.076 543.923 364.966 542.947C361.856 541.972 358.977 540.353 356.497 538.184L352.794 534.969C350.305 532.806 348.26 530.136 346.776 527.11C345.293 524.085 344.4 520.764 344.149 517.338C343.898 513.912 344.294 510.448 345.313 507.144C346.333 503.841 347.957 500.763 350.091 498.086L482.457 331.774C486.107 327.199 491.294 324.283 496.877 323.668C502.46 323.052 507.984 324.787 512.234 328.492L518.827 334.228C521.313 336.393 523.355 339.065 524.836 342.09C526.317 345.116 527.209 348.436 527.46 351.861C527.711 355.286 527.317 358.748 526.299 362.051C525.282 365.354 523.661 368.433 521.53 371.111Z" fill="#4DBD98"/>
<path d="M423.575 360.49L252.407 575.838C248.262 581.043 242.378 584.369 236.041 585.088C232.908 585.448 229.758 585.148 226.773 584.204C223.783 583.268 221.017 581.711 218.632 579.625L213.575 575.094C211.204 573 209.249 570.434 207.815 567.535C206.403 564.617 205.553 561.419 205.312 558.121C205.065 554.829 205.444 551.498 206.428 548.323C207.419 545.148 208.977 542.187 211.018 539.602L384.914 320.758C386.602 318.625 388.664 316.852 390.981 315.541C393.298 314.23 395.825 313.406 398.415 313.117C401.006 312.828 403.61 313.08 406.078 313.858C408.546 314.636 410.829 315.924 412.796 317.65L421.105 324.892C423.498 326.972 425.464 329.54 426.891 332.45C428.318 335.36 429.18 338.555 429.425 341.853C429.67 345.151 429.295 348.487 428.321 351.67C427.347 354.854 425.793 357.823 423.747 360.407L423.575 360.49Z" fill="#F3E503"/>
<path opacity="0.15" d="M578.708 146.231L448.969 309.429C445.755 313.457 441.508 316.43 436.76 317.973C432.013 319.515 426.978 319.559 422.289 318.098C419.178 317.116 416.298 315.498 413.811 313.333L410.108 310.118C405.103 305.726 402.002 299.385 401.478 292.469C401.239 289.05 401.63 285.596 402.629 282.294C403.652 278.993 405.274 275.916 407.404 273.236L539.802 106.939C541.598 104.668 543.794 102.782 546.263 101.389C548.732 99.9959 551.425 99.1237 554.186 98.8229C559.771 98.2028 565.298 99.9277 569.56 103.62L576.145 109.386C578.632 111.552 580.674 114.223 582.155 117.249C583.636 120.274 584.528 123.594 584.779 127.019C585.03 130.444 584.636 133.906 583.618 137.209C582.601 140.512 580.98 143.591 578.849 146.269L578.708 146.231Z" fill="#A5A4A4"/>
<path opacity="0.15" d="M679.929 430.75L550.038 593.91C547.917 596.597 545.322 598.83 542.402 600.477C539.482 602.124 536.296 603.153 533.03 603.505C529.76 603.882 526.47 603.566 523.355 602.578C520.247 601.59 517.367 599.971 514.876 597.813L511.173 594.598C506.161 590.217 503.066 583.871 502.568 576.956C502.312 573.533 502.704 570.072 503.721 566.771C504.739 563.47 506.361 560.395 508.495 557.722L640.876 391.419C644.525 386.852 649.704 383.939 655.281 383.318C660.858 382.696 666.379 384.416 670.637 388.101L677.252 393.875C682.268 398.252 685.367 404.596 685.869 411.511C686.371 418.426 684.235 425.346 679.929 430.75Z" fill="#A5A4A4"/>
<path opacity="0.15" d="M242.535 315.163L112.643 478.322C110.523 481.01 107.927 483.242 105.007 484.889C102.087 486.537 98.9013 487.566 95.6351 487.918C92.3651 488.294 89.0753 487.979 85.9605 486.99C82.852 486.002 79.9724 484.384 77.4809 482.225L73.7779 479.01C68.7659 474.629 65.671 468.284 65.1737 461.368C64.9177 457.946 65.3095 454.485 66.3267 451.184C67.3439 447.883 68.9663 444.808 71.1006 442.135L203.481 275.832C207.13 271.265 212.309 268.352 217.887 267.73C223.464 267.108 228.985 268.828 233.243 272.514L239.857 278.288C244.873 282.665 247.973 289.008 248.475 295.923C248.977 302.838 246.84 309.759 242.535 315.163Z" fill="#A5A4A4"/>
<path opacity="0.15" d="M221.828 461.332L91.937 624.491C89.8164 627.179 87.2206 629.411 84.3007 631.059C81.3808 632.706 78.1951 633.735 74.9289 634.087C71.659 634.463 68.3692 634.148 65.2543 633.16C62.1458 632.171 59.2662 630.553 56.7748 628.395L53.0717 625.179C48.0597 620.798 44.9648 614.453 44.4675 607.538C44.2115 604.115 44.6033 600.654 45.6205 597.353C46.6377 594.052 48.2602 590.977 50.3945 588.304L182.775 422.001C186.424 417.434 191.603 414.521 197.18 413.899C202.757 413.278 208.279 414.997 212.536 418.683L219.151 424.457C224.167 428.834 227.266 435.178 227.768 442.093C228.27 449.007 226.134 455.928 221.828 461.332Z" fill="#A5A4A4"/>
<path opacity="0.15" d="M427.318 221.45L297.426 384.61C295.306 387.297 292.71 389.53 289.79 391.177C286.87 392.824 283.684 393.854 280.418 394.205C277.148 394.582 273.858 394.266 270.744 393.278C267.635 392.29 264.755 390.671 262.264 388.513L258.561 385.298C253.549 380.917 250.454 374.571 249.957 367.656C249.701 364.233 250.093 360.772 251.11 357.471C252.127 354.17 253.749 351.095 255.884 348.423L388.264 182.119C391.913 177.552 397.093 174.639 402.67 174.018C408.247 173.396 413.768 175.116 418.026 178.801L424.641 184.575C429.656 188.952 432.756 195.296 433.258 202.211C433.76 209.126 431.623 216.046 427.318 221.45Z" fill="#A5A4A4"/>
<path opacity="0.15" d="M722.768 212.764L592.876 375.923C590.755 378.611 588.16 380.843 585.24 382.49C582.32 384.138 579.134 385.167 575.868 385.518C572.598 385.895 569.308 385.58 566.193 384.591C563.085 383.603 560.205 381.985 557.714 379.826L554.011 376.611C548.999 372.23 545.904 365.885 545.407 358.969C545.151 355.547 545.542 352.086 546.56 348.785C547.577 345.484 549.199 342.409 551.333 339.736L683.714 173.432C687.363 168.866 692.542 165.953 698.119 165.331C703.696 164.709 709.218 166.429 713.475 170.115L720.09 175.889C725.106 180.266 728.205 186.609 728.707 193.524C729.209 200.439 727.073 207.36 722.768 212.764Z" fill="#A5A4A4"/>
</g>
</svg>
