<svg width="23" height="26" viewBox="0 0 23 26" fill="none" xmlns="http://www.w3.org/2000/svg">
<path d="M15.9589 0H1.20513C0.842597 0 0.516357 0.26001 0.516357 0.617516V25.3825C0.516357 25.7076 0.806368 26 1.20513 26H21.7952C22.1577 26 22.4839 25.74 22.4839 25.3825V5.85003C22.4839 5.68751 22.4114 5.525 22.3027 5.42751L16.4301 0.162513C16.2851 0.0650159 16.1401 0 15.9589 0Z" fill="#EBF0F3"/>
<path d="M16.9014 5.58971H22.4114C22.3752 5.5247 22.3389 5.45973 22.2664 5.4272L19.3302 2.79467L16.4301 0.162204C16.3576 0.0971885 16.3214 0.0647075 16.2489 0.0322266V4.9722C16.2126 5.3297 16.5389 5.58971 16.9014 5.58971Z" fill="#D5D6DB"/>
<path d="M5.30097 22.9778C4.79347 22.9778 4.39471 22.7178 4.21345 22.5553C3.5972 21.9053 3.5972 21.3528 3.70594 20.9953C3.77846 20.6702 3.99596 20.3777 4.3222 20.1828C4.79347 19.8577 6.09843 19.0453 8.0197 18.3303C9.03471 16.6728 9.72348 15.3402 10.1947 14.2678C9.39718 12.9028 9.10716 11.7977 9.03471 11.2452C8.96219 10.7902 8.99848 10.3352 9.14345 9.94525C9.50598 8.90527 10.3034 8.87273 10.6297 8.90527C10.7022 8.90527 11.9709 9.06778 12.1884 10.6927C12.1884 10.7578 12.3334 11.7977 11.3547 14.2352C11.9709 15.1777 12.8409 16.2178 14.1822 17.2253C15.4509 17.2253 16.8285 17.3228 18.2785 17.6478C18.6047 17.7128 18.8947 17.8753 19.1122 18.1028C19.4747 18.4603 19.5472 18.9153 19.3659 19.3703C19.3659 19.3703 19.2934 19.5978 19.0759 19.8253C18.6772 20.3128 17.9159 20.4753 17.2997 20.1828C15.9222 19.5328 14.7622 18.8503 13.8197 18.1353C11.8984 18.2003 10.1947 18.5903 8.81715 19.0778C8.2009 20.0853 7.43968 21.1903 6.56964 22.4253C6.38838 22.6528 6.17089 22.8478 5.88088 22.9453C5.62721 22.9453 5.44595 22.9778 5.30097 22.9778ZM7.07721 19.6953C5.98968 20.2153 5.22846 20.6703 4.93845 20.8978C4.8297 20.9953 4.72095 21.0928 4.72095 21.1903C4.64843 21.4177 4.75718 21.6453 5.01096 21.9053C5.01096 21.9053 5.22846 22.0678 5.44595 22.0028C5.51847 21.9703 5.59093 21.9377 5.62721 21.8403C6.13472 21.0928 6.64222 20.3777 7.07721 19.6953ZM15.5235 18.1353C16.1759 18.5253 16.9009 18.9478 17.6984 19.3053C17.8434 19.3703 18.0247 19.3378 18.1334 19.2078C18.2422 19.0778 18.2784 18.9803 18.2784 18.9803C18.3509 18.8178 18.3509 18.7528 18.2422 18.6553C18.1697 18.5903 18.0609 18.5253 17.9159 18.4928C17.1185 18.2978 16.321 18.2003 15.5235 18.1353ZM10.8109 15.2428C10.4484 15.9903 10.0134 16.8353 9.43346 17.8103C10.4122 17.5503 11.4635 17.3228 12.6235 17.2253C11.8985 16.5428 11.2822 15.8602 10.8109 15.2428ZM10.4485 9.78274C10.3035 9.78274 10.1948 9.91272 10.0859 10.2053C9.9772 10.4653 9.9772 10.7578 10.0134 11.0828C10.0859 11.4728 10.2309 12.1228 10.6297 12.9678C11.1734 11.4078 11.101 10.7578 11.101 10.7578C10.9922 9.88024 10.4847 9.78274 10.4485 9.78274Z" fill="#E56353"/>
</svg>
