<svg width="16" height="16" viewBox="0 0 16 16" fill="none" xmlns="http://www.w3.org/2000/svg">
<path d="M12.1999 10.1443C11.0646 10.1443 10.1443 11.0646 10.1443 12.1999C10.1443 13.3351 11.0646 14.2555 12.1999 14.2555C13.3351 14.2555 14.2555 13.3351 14.2555 12.1999C14.2555 11.0646 13.3351 10.1443 12.1999 10.1443ZM12.1999 10.1443V5.34804C12.1999 4.9846 12.0555 4.63604 11.7985 4.37905C11.5415 4.12205 11.193 3.97767 10.8295 3.97767H8.77397M3.97767 6.03323C5.11293 6.03323 6.03323 5.11293 6.03323 3.97767C6.03323 2.84242 5.11293 1.92212 3.97767 1.92212C2.84242 1.92212 1.92212 2.84242 1.92212 3.97767C1.92212 5.11293 2.84242 6.03323 3.97767 6.03323ZM3.97767 6.03323V14.2555" stroke="#FCFCFC" stroke-width="2" stroke-linecap="round" stroke-linejoin="round"/>
</svg>
