<svg width="132" height="115" viewBox="0 0 132 115" fill="none" xmlns="http://www.w3.org/2000/svg">
<path d="M20.1386 103.838C26.2219 103.838 31.8775 106.402 37.8356 107.24C43.6267 108.046 49.3553 106.716 55.0526 105.816C57.9221 105.366 60.8228 105.01 63.7341 105.157C66.7392 105.314 69.5252 106.13 72.2591 107.344C74.7321 108.454 77.1529 109.741 79.772 110.484C82.2658 111.196 84.8327 111.228 87.3787 110.778C93.3681 109.72 98.8776 106.444 105.065 106.476C105.264 106.476 105.264 106.161 105.065 106.161C99.6497 106.13 94.7142 108.611 89.5804 109.961C86.9092 110.662 84.1232 111.039 81.3893 110.537C78.6242 110.034 76.0781 108.757 73.553 107.585C71.0487 106.423 68.5131 105.408 65.7584 105.031C62.9202 104.644 60.0507 104.811 57.2229 105.188C51.4839 105.931 45.7763 107.501 39.9538 107.145C33.2235 106.727 26.9524 103.534 20.1595 103.534C19.9404 103.524 19.9404 103.838 20.1386 103.838Z" fill="#161616"/>
<path d="M11.7487 105.094C12.9904 104.623 14.2634 104.288 15.5781 104.09C15.7764 104.058 15.6929 103.755 15.4947 103.786C14.1799 103.974 12.9069 104.309 11.6652 104.791C11.4774 104.864 11.5609 105.168 11.7487 105.094Z" fill="#161616"/>
<path d="M9.51563 107.816C16.5068 104.728 24.0509 108.214 30.8856 109.983C32.889 110.506 34.9342 110.893 37.0106 111.008C37.2089 111.019 37.2089 110.705 37.0106 110.694C29.4769 110.286 22.6318 106.068 15.0042 106.319C13.0634 106.382 11.1434 106.769 9.36955 107.554C9.18173 107.628 9.33825 107.9 9.51563 107.816Z" fill="#161616"/>
<path d="M41.8835 113.573C43.4904 113.332 45.0138 112.798 46.5477 112.275C48.0712 111.762 49.605 111.323 51.1702 110.998C54.4049 110.339 57.7231 110.119 61.01 110.349C62.9195 110.485 64.8186 110.778 66.6759 111.207C66.8742 111.249 66.9577 110.946 66.7594 110.904C60.3109 109.407 53.4867 109.679 47.1842 111.731C45.3999 112.306 43.6574 112.987 41.7896 113.269C41.6017 113.301 41.6852 113.604 41.8835 113.573Z" fill="#161616"/>
<path d="M79.2705 114.002C81.4409 115.122 83.9243 115.143 86.2929 114.818C89.0372 114.452 91.7293 113.719 94.3901 112.924C99.6804 111.343 104.95 109.417 110.511 109.082C113.569 108.894 116.647 109.219 119.516 110.318C119.704 110.391 119.788 110.087 119.6 110.014C109.092 105.974 98.4491 112.16 88.2442 114.17C85.3538 114.735 82.1504 115.122 79.4374 113.719C79.2496 113.636 79.0931 113.908 79.2705 114.002Z" fill="#161616"/>
<path d="M111.294 106.612C113.662 106.549 116.01 107.009 118.181 107.993C118.358 108.077 118.525 107.805 118.337 107.721C116.125 106.716 113.725 106.235 111.294 106.298C111.085 106.308 111.085 106.622 111.294 106.612Z" fill="#161616"/>
<path d="M37.5332 106.821C36.7193 105.963 36.0828 104.947 35.6759 103.827C35.4985 103.325 35.3628 102.812 35.2793 102.289C35.2272 101.975 35.0185 101.095 35.7385 101.294C36.0202 101.378 36.3437 101.818 36.5002 102.048C36.615 102.215 36.8863 102.058 36.7715 101.891C36.2289 101.106 35.8219 100.237 35.5715 99.316C35.4463 98.8554 35.3628 98.374 35.3106 97.8925C35.2898 97.6622 35.2793 97.4319 35.2793 97.1912C35.2793 97.076 35.2793 96.9609 35.2898 96.8457C35.2689 96.6155 35.3732 96.4375 35.6237 96.3119C35.728 96.2805 35.8219 96.2596 35.9263 96.2282C35.7593 95.799 35.6341 95.3594 35.5506 94.9093C35.5089 94.6581 35.4776 94.3964 35.4567 94.1347C35.4567 94.1033 35.4776 93.1403 35.6445 93.3183C35.7489 93.4334 35.9576 93.3183 35.9054 93.1613C35.3733 91.476 35.2689 89.6861 35.6445 87.9486C35.7176 87.6136 35.7802 87.1217 36.0202 86.8495C36.3332 86.4936 36.7819 86.6821 37.0115 87.017C37.1576 87.2263 37.2515 87.4671 37.3349 87.7078C37.5958 88.5033 37.6897 89.3617 37.8462 90.1781C38.5245 93.7474 39.1714 97.3272 39.5471 100.949C39.7558 102.98 39.881 105.021 39.881 107.062C39.881 107.261 40.194 107.261 40.194 107.062C40.194 102.823 39.6514 98.6042 38.9419 94.4278C38.5871 92.3658 38.2323 90.2828 37.7941 88.2312C37.648 87.5613 37.408 86.5983 36.688 86.3262C36.1558 86.1273 35.7698 86.5564 35.5924 87.017C34.8515 88.943 35.008 91.2981 35.6132 93.2345C35.6967 93.1822 35.7906 93.1299 35.8741 93.0775C35.488 92.6798 35.175 93.1927 35.1437 93.559C35.0707 94.4697 35.3002 95.4431 35.6237 96.2805C35.6967 96.4689 35.9889 96.3956 35.9263 96.1968C35.8324 95.8932 35.4672 95.799 35.2167 96.0084C34.7994 96.3538 34.9559 97.3272 34.9976 97.7773C35.1124 99.3055 35.6446 100.76 36.5002 102.017C36.5941 101.964 36.6776 101.912 36.7715 101.86C36.5002 101.472 35.8637 100.666 35.3002 100.886C34.7263 101.106 34.9246 101.996 34.9976 102.435C35.2898 104.162 36.1141 105.753 37.3141 107.02C37.4497 107.187 37.6793 106.968 37.5332 106.821Z" fill="#E8E8E8"/>
<path d="M39.7665 99.1487C39.7665 98.1229 39.8604 97.1076 40.0586 96.1132C40.1421 95.7259 40.643 93.2242 41.0916 93.2975C41.1647 93.308 41.269 93.2766 41.2795 93.1928C41.4882 92.0833 41.7803 90.9947 42.1664 89.9375C42.542 88.9327 42.9594 87.6347 43.8255 86.9439C43.7525 86.9439 43.6794 86.9439 43.6064 86.9439C44.1594 87.551 44.0029 88.6501 44.0133 89.4142C44.0133 90.2515 43.9924 91.0889 43.9403 91.9368C43.8359 93.7057 43.6272 95.4642 43.3455 97.2018C42.8029 100.604 41.989 103.964 41.1647 107.313C41.1125 107.512 41.4151 107.596 41.4673 107.397C42.3647 103.786 43.2307 100.174 43.7733 96.49C44.0342 94.742 44.2116 92.994 44.2846 91.2355C44.3263 90.2934 44.3368 89.3514 44.3055 88.4093C44.2846 87.8022 44.2533 87.1951 43.8255 86.7346C43.7629 86.6717 43.669 86.6822 43.6064 86.7346C42.7716 87.394 42.3751 88.5454 41.9995 89.5084C41.5403 90.6807 41.2064 91.8844 40.9769 93.1196C41.0395 93.0882 41.1021 93.0463 41.1647 93.0149C40.8412 92.9626 40.6743 93.151 40.5386 93.4336C40.2673 94.0198 40.0795 94.6687 39.923 95.2968C39.5891 96.5633 39.443 97.8717 39.443 99.1801C39.4534 99.3476 39.7665 99.3476 39.7665 99.1487Z" fill="#E8E8E8"/>
<path d="M86.7207 110.631C86.199 109.773 85.7608 108.873 85.4164 107.92C85.2599 107.491 85.1243 107.051 85.0095 106.601C84.9469 106.36 84.8947 106.12 84.8425 105.879C84.8217 105.764 84.7904 105.638 84.7695 105.513C84.6651 105.261 84.7695 105.094 85.0721 105.01C85.1764 105 85.2808 104.979 85.3747 104.968C85.093 104.194 84.8947 103.398 84.7904 102.571C84.7382 102.163 84.7069 101.765 84.7069 101.357C84.7069 101.158 84.853 100.195 84.7382 100.07C84.8321 100.174 85.0095 100.091 85.0095 99.9545C84.9886 98.9601 85.0408 97.9762 85.2077 96.9923C85.2808 96.5422 85.3851 96.1025 85.4999 95.6629C85.5625 95.4431 85.6251 95.2233 85.6877 95.0035C85.7295 94.8779 85.7712 94.7523 85.8129 94.6371C85.8547 94.365 86.0216 94.2498 86.3347 94.3022C86.3973 94.4592 86.6477 94.4487 86.6373 94.2603C86.6268 93.2241 86.7833 92.2087 87.1486 91.2353C87.2425 90.9945 87.5451 90.0211 87.8999 90.0002C88.359 89.9792 88.3694 91.2248 88.3903 91.476C88.5677 93.5381 88.7033 95.6106 88.7763 97.6831C88.9329 101.901 88.8911 106.12 88.6407 110.327C88.6303 110.526 88.9433 110.526 88.9537 110.327C89.1729 106.633 89.2355 102.938 89.1415 99.2427C89.0894 97.4109 89.0059 95.5792 88.8807 93.7579C88.8181 92.8577 88.7555 91.968 88.6616 91.0678C88.6094 90.513 88.505 90.0002 88.0251 89.6652C87.9729 89.6338 87.9207 89.6443 87.8685 89.6652C87.1903 89.9897 86.9294 90.8271 86.7207 91.5074C86.439 92.3971 86.3138 93.3287 86.3242 94.2708C86.4286 94.2603 86.5329 94.2394 86.6268 94.2289C86.5225 93.9463 86.2199 93.8207 85.9382 93.9568C85.479 94.1661 85.3643 94.993 85.239 95.4012C84.8217 96.8876 84.6443 98.4263 84.686 99.9649C84.7799 99.9231 84.8634 99.8917 84.9573 99.8498C84.9364 99.8289 84.926 99.8184 84.9051 99.7975C84.8738 99.7556 84.8008 99.7347 84.7486 99.7556C84.5191 99.8393 84.4669 99.9859 84.4251 100.216C84.3312 100.771 84.3625 101.378 84.4043 101.933C84.4773 103 84.7069 104.047 85.0721 105.052C85.1243 105.209 85.3956 105.199 85.3747 105.01C85.3434 104.686 84.999 104.508 84.6964 104.675C84.206 104.937 84.4773 105.743 84.5608 106.141C84.926 107.784 85.573 109.344 86.439 110.778C86.5538 110.956 86.8251 110.799 86.7207 110.631Z" fill="#E8E8E8"/>
<path d="M89.2359 102.781C89.2255 102.216 89.2777 101.661 89.3924 101.106C89.4446 100.855 89.5177 100.604 89.6011 100.363C89.6324 100.279 89.9663 99.3162 90.1646 99.6093C90.2481 99.7349 90.4463 99.6931 90.4568 99.5256C90.4881 99.065 90.5507 98.6149 90.6759 98.1753C90.7281 97.9869 91.1872 96.6785 91.3959 96.8041C91.5002 96.8774 91.6254 96.7832 91.6359 96.668C91.6985 95.7469 91.9072 94.8467 92.2828 94.0093C92.4602 93.6011 92.6793 93.2034 92.9298 92.837C93.128 92.5335 93.4306 92.0206 93.7437 91.8217C94.5576 91.2983 94.4115 92.5753 94.401 92.9521C94.3802 93.4232 94.3489 93.8942 94.3176 94.3757C94.2445 95.391 94.1402 96.3959 94.0045 97.4007C93.4619 101.493 92.5019 105.513 91.5524 109.522C91.5107 109.721 91.8028 109.804 91.855 109.606C92.7524 105.848 93.6497 102.08 94.2028 98.2486C94.4636 96.4273 94.6515 94.5955 94.7245 92.7533C94.7454 92.3136 94.808 91.6019 94.328 91.3611C93.8271 91.1099 93.4097 91.7275 93.1384 92.052C92.0637 93.3708 91.4376 94.9828 91.3228 96.689C91.4063 96.6471 91.4794 96.5948 91.5628 96.5529C90.6655 95.9772 90.175 99.0755 90.1542 99.5465C90.2481 99.5151 90.3524 99.4942 90.4463 99.4628C90.0916 98.9394 89.6429 99.4523 89.4759 99.8396C89.0898 100.771 88.9229 101.787 88.9333 102.791C88.9229 102.98 89.2359 102.98 89.2359 102.781Z" fill="#E8E8E8"/>
<path d="M14.3151 103.723C13.8977 103.555 13.5012 103.315 13.2403 102.938C13.1151 102.76 13.0316 102.561 12.9586 102.362C12.9377 102.32 12.7395 101.682 12.9899 101.807C13.1568 101.891 13.2925 101.703 13.1777 101.556C12.6142 100.834 12.2073 100.007 12.009 99.1067C11.9569 98.866 11.8316 98.5206 11.8838 98.2798C11.9882 97.7983 12.4682 97.7355 12.7812 98.0391C13.1151 98.3636 13.4073 98.7613 13.6681 99.1486C14.6385 100.562 15.2333 102.195 15.4107 103.901C15.4316 104.1 15.7446 104.1 15.7237 103.901C15.609 102.739 15.3064 101.619 14.8264 100.551C14.3777 99.5673 13.7203 98.374 12.8647 97.6937C12.5829 97.4738 12.1864 97.3273 11.863 97.5366C11.4873 97.7669 11.5708 98.2798 11.6125 98.6462C11.7586 99.808 12.2386 100.876 12.9586 101.797C13.0212 101.713 13.0838 101.629 13.1464 101.546C12.969 101.462 12.7812 101.451 12.6351 101.619C12.416 101.86 12.5516 102.195 12.656 102.456C12.9481 103.241 13.449 103.733 14.2212 104.047C14.4194 104.1 14.5029 103.796 14.3151 103.723Z" fill="#E8E8E8"/>
<path d="M14.6604 100.332C14.2326 98.6988 13.8152 97.1078 13.6065 95.4331C13.5543 95.0353 13.5022 94.6271 13.4709 94.2293C13.4396 93.8211 13.3352 93.2245 13.4396 92.8267C13.4396 92.7639 13.45 92.6907 13.45 92.6278C13.7735 92.272 14.0135 92.251 14.17 92.586C14.2639 92.7221 14.3474 92.8791 14.4204 93.0361C14.6187 93.3815 14.796 93.7374 14.963 94.1037C16.3612 97.045 17.0082 100.3 16.8725 103.556C16.8621 103.755 17.1751 103.755 17.1855 103.556C17.3525 99.777 16.476 95.8099 14.5143 92.565C14.2743 92.1673 13.69 91.623 13.283 92.1673C13.1057 92.3976 13.1265 92.7744 13.1265 93.0465C13.1057 93.5804 13.1474 94.1247 13.21 94.6585C13.3143 95.6005 13.4083 96.5635 13.6169 97.4951C13.8361 98.4895 14.1178 99.463 14.3787 100.447C14.41 100.604 14.7126 100.52 14.6604 100.332Z" fill="#E8E8E8"/>
<path d="M8.19117 75.7965C15.0884 75.6291 21.8082 77.3771 28.3507 79.3973C34.8931 81.4174 41.3834 83.7621 48.1659 84.8821C51.5675 85.4473 55.0214 85.6671 58.4648 85.4054C62.2525 85.1228 65.9776 84.3483 69.6506 83.4062C73.3966 82.4432 77.1008 81.3232 80.8468 80.3288C84.6033 79.324 88.3806 78.4133 92.1892 77.6283C99.8794 76.0373 107.695 74.9696 115.563 74.7812C116.512 74.7603 117.472 74.7498 118.422 74.7498C118.62 74.7498 118.62 74.4358 118.422 74.4358C110.71 74.4149 103.02 75.2732 95.4343 76.6758C87.7858 78.0993 80.3147 80.1614 72.8227 82.2339C69.108 83.2701 65.362 84.2227 61.5429 84.7669C57.9013 85.2798 54.2283 85.3426 50.5762 84.9135C43.7103 84.118 37.1261 81.8571 30.5732 79.7741C24.1038 77.7225 17.4988 75.7651 10.685 75.5035C9.85026 75.4721 9.0155 75.4721 8.18074 75.493C7.98248 75.493 7.98248 75.807 8.19117 75.7965Z" fill="#E8E8E8"/>
<path d="M76.1182 77.4086C83.245 75.4408 90.1944 72.9182 97.2481 70.6991C104.281 68.4801 111.46 66.5436 118.816 65.79C122.917 65.3713 127.06 65.319 131.16 65.79C131.359 65.8109 131.359 65.4969 131.16 65.476C123.877 64.6491 116.521 65.455 109.394 67.0356C102.163 68.6371 95.1508 71.0341 88.1284 73.3578C84.1215 74.6872 80.1146 75.9851 76.0452 77.1051C75.8365 77.1574 75.9199 77.461 76.1182 77.4086Z" fill="#E8E8E8"/>
<path d="M53.173 94.0307C55.8443 94.6482 58.599 94.3656 61.2702 93.8737C64.0667 93.3608 66.8109 92.6281 69.5552 91.8535C75.0855 90.3043 80.5845 88.7238 86.334 88.2841C89.5791 88.0434 92.8451 88.1062 96.0798 88.4516C96.2781 88.4725 96.2781 88.1585 96.0798 88.1376C90.466 87.5305 84.7897 87.8131 79.2593 88.9854C73.7603 90.1473 68.4387 92.0314 62.9502 93.2142C59.7885 93.8946 56.4703 94.4703 53.2669 93.7271C53.0582 93.6852 52.9748 93.9888 53.173 94.0307Z" fill="#E8E8E8"/>
<path d="M105.044 96.0606C112.035 95.6838 118.504 98.8135 125.214 100.237C127.092 100.635 128.991 100.896 130.911 100.928C131.109 100.928 131.109 100.614 130.911 100.614C123.93 100.499 117.534 97.2852 110.731 96.1234C108.852 95.7989 106.953 95.6419 105.044 95.7466C104.846 95.7675 104.835 96.0815 105.044 96.0606Z" fill="#E8E8E8"/>
<path d="M3.21363 63.7589C10.4448 63.6752 17.6655 64.994 24.3957 67.6422C26.3261 68.4064 28.2148 69.2856 30.0513 70.2591C30.2286 70.3533 30.3852 70.0811 30.2078 69.9869C23.7905 66.5746 16.7264 64.4393 9.50566 63.717C7.41875 63.5077 5.31097 63.4135 3.21363 63.4449C3.01538 63.4449 3.01538 63.7589 3.21363 63.7589Z" fill="#E8E8E8"/>
<path d="M10.4967 51.4809C16.2044 52.9149 21.4113 55.7306 26.8059 58.0229C32.2527 60.3361 37.9709 61.9376 43.8247 62.7331C47.122 63.1832 50.461 63.3821 53.7896 63.3298C53.9879 63.3298 53.9879 63.0157 53.7896 63.0157C47.7898 63.1099 41.7795 62.3772 35.9779 60.849C33.1293 60.0954 30.3432 59.1533 27.6198 58.0229C24.9173 56.9029 22.2669 55.6259 19.5957 54.4431C16.6636 53.1451 13.6897 51.9519 10.5802 51.1773C10.3924 51.125 10.3089 51.4285 10.4967 51.4809Z" fill="#E8E8E8"/>
<path d="M49.3864 69.5579C54.8019 71.6513 60.7496 70.5104 66.0608 68.6682C68.9198 67.6738 71.6954 66.4805 74.5336 65.4442C77.3197 64.4289 80.1474 63.5497 83.0169 62.8065C86.3351 61.9482 89.7055 61.2783 93.0967 60.7968C93.2949 60.7654 93.2115 60.4618 93.0132 60.4932C87.1386 61.3306 81.3578 62.7332 75.7545 64.6801C70.245 66.5956 64.913 69.3067 59.0801 70.1336C55.8558 70.5941 52.5272 70.4371 49.4699 69.2543C49.282 69.1811 49.1986 69.4846 49.3864 69.5579Z" fill="#E8E8E8"/>
<path d="M29.6229 50.9582C30.2107 50.9582 30.6872 50.4895 30.6872 49.9115C30.6872 49.3334 30.2107 48.8647 29.6229 48.8647C29.0351 48.8647 28.5586 49.3334 28.5586 49.9115C28.5586 50.4895 29.0351 50.9582 29.6229 50.9582Z" fill="#5222D0"/>
<path d="M70.3071 64.7648C70.7566 64.7648 71.1209 64.4087 71.1209 63.9693C71.1209 63.53 70.7566 63.1738 70.3071 63.1738C69.8576 63.1738 69.4932 63.53 69.4932 63.9693C69.4932 64.4087 69.8576 64.7648 70.3071 64.7648Z" fill="#5222D0"/>
<path d="M88.7878 7.45657C89.0875 7.45657 89.3304 7.21757 89.3304 6.92274C89.3304 6.62792 89.0875 6.38892 88.7878 6.38892C88.4882 6.38892 88.2452 6.62792 88.2452 6.92274C88.2452 7.21757 88.4882 7.45657 88.7878 7.45657Z" fill="#5222D0"/>
<path d="M30.4061 79.9737C30.8383 79.9737 31.1887 79.6316 31.1887 79.2096C31.1887 78.7875 30.8383 78.4454 30.4061 78.4454C29.9739 78.4454 29.6235 78.7875 29.6235 79.2096C29.6235 79.6316 29.9739 79.9737 30.4061 79.9737Z" fill="#5222D0"/>
<path d="M97.9073 43.8609C98.011 43.8609 98.0951 43.7766 98.0951 43.6725C98.0951 43.5685 98.011 43.4841 97.9073 43.4841C97.8036 43.4841 97.7195 43.5685 97.7195 43.6725C97.7195 43.7766 97.8036 43.8609 97.9073 43.8609Z" fill="#5222D0"/>
<path d="M27.5158 49.3469C28.0863 49.3469 28.5488 48.8923 28.5488 48.3316C28.5488 47.7709 28.0863 47.3163 27.5158 47.3163C26.9453 47.3163 26.4828 47.7709 26.4828 48.3316C26.4828 48.8923 26.9453 49.3469 27.5158 49.3469Z" fill="#EC615B"/>
<path d="M31.5424 76.6032C31.7383 76.6032 31.8972 76.4486 31.8972 76.2578C31.8972 76.067 31.7383 75.9124 31.5424 75.9124C31.3465 75.9124 31.1876 76.067 31.1876 76.2578C31.1876 76.4486 31.3465 76.6032 31.5424 76.6032Z" fill="#EC615B"/>
<path d="M12.5109 19.9858C12.9374 19.9858 13.2831 19.6484 13.2831 19.2322C13.2831 18.8159 12.9374 18.4785 12.5109 18.4785C12.0845 18.4785 11.7388 18.8159 11.7388 19.2322C11.7388 19.6484 12.0845 19.9858 12.5109 19.9858Z" fill="#EC615B"/>
<path d="M91.3738 37.0997C91.8003 37.0997 92.146 36.7623 92.146 36.346C92.146 35.9298 91.8003 35.5924 91.3738 35.5924C90.9474 35.5924 90.6017 35.9298 90.6017 36.346C90.6017 36.7623 90.9474 37.0997 91.3738 37.0997Z" fill="#EC615B"/>
<path d="M94.4952 34.2838C94.8525 34.2838 95.1421 34.0026 95.1421 33.6557C95.1421 33.3089 94.8525 33.0277 94.4952 33.0277C94.1379 33.0277 93.8483 33.3089 93.8483 33.6557C93.8483 34.0026 94.1379 34.2838 94.4952 34.2838Z" fill="#EC615B"/>
<path d="M24.0614 64.6279C23.1015 64.6489 22.6945 65.9887 23.0075 66.7842C23.1536 67.1505 23.4771 67.2447 23.8423 67.1819C23.9571 67.161 24.1032 67.0877 24.2284 67.0877C24.7188 67.1191 24.7084 67.4227 24.5623 67.7158C24.4579 67.9251 24.3432 68.0926 24.291 68.3229C24.2284 68.616 24.2806 68.9404 24.5832 69.066C24.7501 69.1393 24.9484 69.0137 25.0944 69.066C25.6162 69.2335 25.1988 69.893 25.1571 70.2174C25.1153 70.5733 25.2092 70.9815 25.5536 71.149C25.8562 71.2956 26.2214 71.2014 26.3779 70.8978C26.4718 70.7199 26.2005 70.5629 26.1066 70.7408C25.7518 71.0234 25.5431 70.9187 25.4597 70.4058C25.4597 70.2593 25.4805 70.1232 25.5223 69.9872C25.5744 69.7569 25.6788 69.5475 25.6996 69.3068C25.7101 69.1393 25.6996 68.9614 25.5744 68.8358C25.324 68.6055 24.7188 68.9404 24.5832 68.5322C24.4997 68.281 24.8753 67.8623 24.9484 67.632C25.0944 67.1819 24.9171 66.7319 24.3849 66.7423C23.9467 66.7528 23.4249 67.2029 23.2684 66.4178C23.1536 65.8735 23.4145 64.942 24.0823 64.9315C24.2597 64.9315 24.2701 64.6175 24.0614 64.6279Z" fill="#EC615B"/>
<path d="M82.2133 54.2659C81.1594 54.2868 80.1786 55.0195 79.9281 56.0662C79.709 56.9769 80.2725 58.0655 81.3055 57.5003C81.6707 57.3014 82.0359 56.9455 82.0985 56.5059C82.1403 56.1605 81.9211 55.8674 81.5559 55.8988C81.0446 55.9406 80.5751 56.5477 80.3038 56.9246C79.9907 57.3537 79.6673 57.9504 79.7194 58.5051C79.8238 59.4576 81.1907 59.6461 81.6707 58.8924C81.7542 58.7668 81.5872 58.5784 81.4516 58.6726C80.7316 59.2274 79.9803 60.138 80.262 61.1219C80.4812 61.8965 81.3159 62.4513 82.0985 62.1791C82.2863 62.1163 82.2029 61.8128 82.015 61.8756C81.3159 62.1163 80.5855 61.5302 80.5229 60.8184C80.4603 60.0543 81.0342 59.3844 81.6081 58.9447C81.535 58.8715 81.462 58.7982 81.389 58.7249C81.1803 59.0599 80.7107 59.1332 80.3664 58.9552C79.876 58.6935 80.0116 58.1283 80.1994 57.7096C80.3559 57.3537 80.5855 57.0292 80.8464 56.7466C80.9507 56.6315 81.222 56.3175 81.3681 56.2965C81.5037 56.3279 81.6498 56.3698 81.7855 56.4012C81.775 56.5373 81.7333 56.6524 81.6603 56.7676C81.3785 57.2281 80.669 57.5945 80.2829 57.0606C80.022 56.7152 80.189 56.0663 80.3664 55.7208C80.7212 55.03 81.4307 54.5904 82.1924 54.5799C82.4115 54.5694 82.4116 54.2554 82.2133 54.2659Z" fill="#EC615B"/>
<path d="M0.26064 38.408C0.594545 37.9998 1.16845 38.1359 1.3354 38.6069C1.43974 38.8895 1.42931 39.1303 1.69017 39.3291C2.15973 39.685 2.7858 39.4129 3.28666 39.3082C4.59098 39.0465 4.16316 40.3549 4.90401 40.8678C5.22748 41.0981 5.71791 41.0353 5.88486 40.6585C5.96834 40.4805 5.69704 40.3131 5.61356 40.5015C5.34227 41.1086 4.84141 40.3235 4.75793 40.0828C4.70576 39.9362 4.67445 39.7897 4.61185 39.6536C4.51794 39.4338 4.39272 39.2245 4.18403 39.0884C3.5997 38.722 2.95275 39.1721 2.35798 39.1826C1.72148 39.2035 1.78408 38.7639 1.56496 38.3348C1.47105 38.1464 1.31453 38.0103 1.11627 37.9265C0.730196 37.78 0.291944 37.8637 0.0415153 38.1882C-0.0941338 38.3452 0.135425 38.565 0.26064 38.408Z" fill="#EC615B"/>
<path d="M1.37741 41.3699C2.03478 40.6581 2.98432 40.9931 3.3704 41.7676C3.6104 42.2491 3.77735 42.7725 4.29908 43.0132C5.0921 43.3796 6.12512 42.9714 6.39641 42.1444C6.45902 41.956 6.15642 41.8723 6.09381 42.0607C5.89556 42.6678 5.16514 42.9609 4.58081 42.7829C3.86082 42.5736 3.80865 41.7467 3.41214 41.2233C2.86955 40.5011 1.76349 40.4906 1.15828 41.1501C1.02263 41.2966 1.24176 41.5164 1.37741 41.3699Z" fill="#EC615B"/>
<path d="M75.4318 87.3317C75.8179 86.8816 76.3396 86.8921 76.8092 87.2061C76.9657 87.3108 77.1222 87.4154 77.3205 87.3422C77.5709 87.248 77.6127 86.913 77.79 86.7455C78.1553 86.4001 78.7605 86.4001 79.1361 86.7141C79.2926 86.8397 79.5117 86.6199 79.3552 86.4943C78.7918 86.0233 77.8631 86.0651 77.4144 86.6932C77.3727 86.756 77.3205 86.9235 77.2683 86.9549C77.0283 87.1119 76.9344 86.8711 76.7779 86.8083C76.6109 86.7455 76.4544 86.6723 76.277 86.6618C75.8597 86.6304 75.4736 86.7979 75.2023 87.1119C75.0875 87.2584 75.3066 87.4783 75.4318 87.3317Z" fill="#5222D0"/>
<path d="M78.488 87.8653C79.1975 86.8081 81.7645 88.2421 82.0253 86.5465C82.0566 86.3476 81.754 86.2638 81.7227 86.4627C81.5871 87.3524 80.3558 87.1431 79.7297 87.1221C79.1454 87.1117 78.561 87.1954 78.2167 87.7083C78.1019 87.8758 78.3732 88.0328 78.488 87.8653Z" fill="#5222D0"/>
<path d="M23.1848 92.2614C23.5917 91.5601 24.1343 90.9739 24.8021 90.5238C24.9691 90.4087 24.8126 90.1366 24.6456 90.2517C23.9361 90.7437 23.3517 91.3612 22.9135 92.1044C22.8091 92.2719 23.0804 92.4289 23.1848 92.2614Z" fill="#5222D0"/>
<path d="M24.6669 91.7596C25.2199 91.3828 25.7729 90.9955 26.326 90.6187C26.4929 90.5036 26.3364 90.2314 26.1694 90.3465C25.6164 90.7234 25.0634 91.1107 24.5103 91.4875C24.3434 91.6026 24.4999 91.8748 24.6669 91.7596Z" fill="#5222D0"/>
<path d="M24.3017 2.52476C24.2078 10.6473 22.1209 18.7071 18.2914 25.8667C17.2166 27.8869 15.9958 29.8233 14.6602 31.676C14.5454 31.8435 14.8167 32.0005 14.9315 31.833C19.7105 25.2073 22.8722 17.4406 24.0721 9.33894C24.406 7.07801 24.5834 4.79615 24.6147 2.51429C24.6252 2.32588 24.3121 2.32588 24.3017 2.52476Z" fill="#E8E8E8"/>
<path d="M25.6054 2.87024C30.6975 5.99995 37 6.96293 42.812 5.65453C44.4607 5.28817 46.0571 4.72294 47.5701 4.0007C47.7475 3.91696 47.591 3.64482 47.4136 3.72855C42.1233 6.26163 35.873 6.57564 30.3218 4.73341C28.7254 4.19958 27.1915 3.48781 25.762 2.60856C25.595 2.49342 25.4385 2.76557 25.6054 2.87024Z" fill="#E8E8E8"/>
<path d="M50.1587 3.92783C52.3813 7.46576 55.9186 10.0826 59.9046 11.2758C64.7149 12.7203 69.9009 11.7678 74.6382 10.4908C77.2781 9.77902 79.8554 8.80556 82.151 7.31921C82.318 7.21454 82.1615 6.94239 81.9945 7.04707C79.9702 8.345 77.7477 9.25565 75.4521 9.93603C73.0521 10.6373 70.5687 11.1816 68.0853 11.4852C65.6958 11.7783 63.2645 11.7783 60.9167 11.2235C58.9342 10.7525 57.0351 9.91509 55.3343 8.78463C53.3726 7.47622 51.6926 5.77006 50.43 3.77082C50.3257 3.60334 50.0544 3.76035 50.1587 3.92783Z" fill="#E8E8E8"/>
<path d="M83.3811 7.52845C82.6507 11.5269 82.0872 15.7138 82.2855 19.7856C82.442 23.1246 83.3498 26.6102 86.0628 28.7665C87.6801 30.054 89.6523 30.7657 91.5827 31.4566C91.7705 31.5298 91.854 31.2263 91.6662 31.153C89.9653 30.5355 88.2227 29.9179 86.7306 28.8712C85.3011 27.8768 84.2472 26.4846 83.5898 24.8727C82.3064 21.7116 82.4733 18.1213 82.7342 14.7823C82.922 12.3748 83.2455 9.97779 83.6733 7.60172C83.715 7.41331 83.4124 7.32958 83.3811 7.52845Z" fill="#E8E8E8"/>
<path d="M15.4622 33.6236C23.2464 34.8482 30.4254 39.3178 35.0061 45.7551C36.2896 47.5659 37.3643 49.5233 38.1782 51.5854C38.2513 51.7738 38.5539 51.69 38.4808 51.5016C35.5592 44.1118 29.455 38.2082 22.1612 35.1832C20.0326 34.3039 17.81 33.6759 15.5457 33.32C15.3475 33.2886 15.264 33.5922 15.4622 33.6236Z" fill="#E8E8E8"/>
<path d="M40.192 51.8464C43.8754 48.9784 48.7588 48.2666 53.2769 48.9365C58.0977 49.6483 62.4698 51.972 66.414 54.7563C68.7931 56.4311 71.0365 58.2838 73.2799 60.1365C73.4365 60.2621 73.6556 60.0423 73.4991 59.9167C69.4505 56.5672 65.3393 53.1758 60.5707 50.9044C56.3134 48.8737 51.5135 47.8584 46.818 48.6644C44.3345 49.0936 41.9763 50.067 39.9729 51.6162C39.8164 51.7522 40.0355 51.972 40.192 51.8464Z" fill="#E8E8E8"/>
<path d="M73.1454 58.2003C74.9402 50.4232 79.834 43.5148 86.3868 39.0243C88.2651 37.7369 90.2789 36.6483 92.3867 35.79C92.5745 35.7167 92.491 35.4131 92.3032 35.4864C84.8321 38.5429 78.5818 44.415 75.0862 51.7106C74.1054 53.7622 73.3541 55.908 72.8428 58.1166C72.8011 58.3155 73.1037 58.3992 73.1454 58.2003Z" fill="#E8E8E8"/>
<path d="M26.0755 39.5895C27.6406 40.2594 28.8197 41.5887 29.9362 42.8343C31.0945 44.1218 32.1588 45.493 33.1396 46.927C35.0387 49.7218 36.5517 52.7573 37.6369 55.9602C37.6995 56.1486 38.0021 56.0649 37.9395 55.8765C36.823 52.6002 35.2578 49.481 33.3066 46.6235C32.3466 45.2208 31.2927 43.881 30.1554 42.6145C29.018 41.3584 27.818 39.9977 26.232 39.3278C26.0546 39.2336 25.8876 39.5057 26.0755 39.5895Z" fill="#161616"/>
<path d="M49.8241 5.60225C51.5458 8.38654 54.2484 10.4277 57.3579 11.3906C57.5561 11.4534 57.6292 11.1499 57.4413 11.0871C54.4049 10.1555 51.765 8.15626 50.0954 5.44524C49.9911 5.2673 49.7198 5.43477 49.8241 5.60225Z" fill="#161616"/>
<path d="M24.4887 0.295691C27.8278 2.56708 32.0538 3.29979 35.9667 2.35774C36.165 2.3054 36.0815 2.01232 35.8832 2.05419C32.0433 2.98577 27.9113 2.2426 24.6453 0.0235424C24.4783 -0.08113 24.3218 0.191019 24.4887 0.295691Z" fill="#161616"/>
<path d="M13.4278 29.6254C15.0973 27.7727 16.5477 25.742 17.7477 23.5544C17.8416 23.3764 17.5703 23.2194 17.4764 23.3974C16.2869 25.5641 14.8574 27.5738 13.2087 29.4056C13.0731 29.5521 13.2922 29.7719 13.4278 29.6254Z" fill="#161616"/>
<path d="M23.5594 17.3573C23.4133 18.8436 22.6308 20.2462 22.0255 21.586C21.3995 22.9573 20.7525 24.3075 20.0952 25.6578C20.0012 25.8357 20.2725 25.9928 20.3665 25.8148C21.0969 24.3494 21.796 22.863 22.4742 21.3662C23.0586 20.0788 23.7472 18.7704 23.8829 17.3468C23.8933 17.1584 23.5803 17.1584 23.5594 17.3573Z" fill="#161616"/>
<path d="M72.143 52.6947C73.7812 48.4554 76.4212 44.6558 79.802 41.6308C79.9481 41.4947 79.7289 41.2749 79.5828 41.411C76.1603 44.4779 73.4995 48.3194 71.8404 52.6109C71.7673 52.7994 72.0699 52.8726 72.143 52.6947Z" fill="#161616"/>
<path d="M23.0485 4.74433C22.8711 5.86433 22.6833 6.98432 22.5059 8.10432C22.4746 8.30319 22.7772 8.38693 22.8085 8.18806C22.9859 7.06806 23.1738 5.94806 23.3511 4.82807C23.3824 4.62919 23.0798 4.54545 23.0485 4.74433Z" fill="#EC615B"/>
<path d="M49.7403 1.17483C51.9941 3.87538 54.7906 6.0735 57.9418 7.62265C58.1192 7.70639 58.2757 7.44471 58.0984 7.3505C54.968 5.81182 52.1924 3.63463 49.9594 0.955016C49.8342 0.798007 49.6151 1.01782 49.7403 1.17483Z" fill="#EC615B"/>
<path d="M68.2199 13.3692C70.8494 13.4948 73.4685 12.9819 75.8475 11.8514C76.0249 11.7677 75.8684 11.4955 75.691 11.5793C73.3537 12.6784 70.7972 13.1808 68.2199 13.0552C68.0112 13.0447 68.0216 13.3587 68.2199 13.3692Z" fill="#EC615B"/>
<path d="M77.5368 8.57539C79.7593 7.4868 81.7628 6.02139 83.474 4.22102C83.6097 4.07448 83.3906 3.85467 83.2549 4.00121C81.5645 5.78064 79.582 7.22512 77.3803 8.30324C77.2029 8.38698 77.3594 8.65913 77.5368 8.57539Z" fill="#EC615B"/>
<path d="M40.8294 49.8373C43.4589 47.0635 47.4658 45.7865 51.2222 46.4564C51.4205 46.4878 51.504 46.1842 51.3057 46.1528C47.4345 45.462 43.3233 46.7495 40.6103 49.6175C40.4642 49.7536 40.6834 49.9839 40.8294 49.8373Z" fill="#EC615B"/>
<path d="M17.5704 32.3153C19.7825 32.7759 21.9112 33.519 23.925 34.5448C24.1024 34.639 24.2589 34.3669 24.0815 34.2727C22.0468 33.2364 19.8869 32.4723 17.6539 32.0118C17.4556 31.9699 17.3721 32.2734 17.5704 32.3153Z" fill="#5222D0"/>
<path d="M25.7822 6.80638C25.9075 8.03105 25.9283 9.26619 25.8553 10.4909C25.8449 10.6897 26.1579 10.6897 26.1683 10.4909C26.2414 9.25572 26.2101 8.03105 26.0953 6.80638C26.0744 6.60751 25.7614 6.60751 25.7822 6.80638Z" fill="#5222D0"/>
<path d="M66.5397 48.9474C67.7709 46.5399 69.764 44.6244 72.1848 43.4416C72.3622 43.3579 72.2056 43.0858 72.0283 43.1695C69.5553 44.3732 67.5205 46.3411 66.2684 48.7904C66.1745 48.9683 66.4458 49.1358 66.5397 48.9474Z" fill="#5222D0"/>
<path d="M60.0077 26.3801C60.9259 25.7416 61.9902 25.4485 63.1067 25.5113C63.305 25.5218 63.305 25.2078 63.1067 25.1973C61.9381 25.1345 60.8111 25.4485 59.8512 26.1184C59.6842 26.2231 59.8407 26.4953 60.0077 26.3801Z" fill="#EC615B"/>
<path d="M62.5429 23.554C63.4507 23.7424 64.3273 24.004 65.1829 24.3495C65.3707 24.4227 65.4542 24.1192 65.2664 24.0459C64.4107 23.7005 63.5342 23.4388 62.6264 23.2504C62.4281 23.2085 62.3447 23.5121 62.5429 23.554Z" fill="#EC615B"/>
<path d="M39.7953 15.4832C40.1188 14.0178 40.8596 12.7094 41.924 11.6522C42.0701 11.5056 41.8509 11.2858 41.7048 11.4324C40.5988 12.521 39.8266 13.8817 39.4927 15.3994C39.4405 15.5983 39.7431 15.6821 39.7953 15.4832Z" fill="#EC615B"/>
<path d="M42.091 15.8187C43.6457 14.6045 45.3987 13.6939 47.2874 13.1077C47.4752 13.0449 47.4022 12.7414 47.2039 12.8042C45.2631 13.4008 43.4683 14.3428 41.8718 15.5884C41.7153 15.7245 41.9344 15.9443 42.091 15.8187Z" fill="#EC615B"/>
<path d="M38.9506 36.5225C39.3367 37.5273 39.3784 38.574 39.0863 39.6103C39.0341 39.8092 39.3367 39.8929 39.3889 39.694C39.7019 38.6054 39.6497 37.4959 39.2532 36.4387C39.1802 36.2503 38.8776 36.334 38.9506 36.5225Z" fill="#5222D0"/>
<path d="M41.6219 36.8682C42.1749 37.5381 42.8636 38.0824 43.6357 38.4697C43.8131 38.5639 43.9696 38.2917 43.7922 38.1975C43.0305 37.8207 42.3732 37.2974 41.841 36.6379C41.7158 36.4914 41.4966 36.7112 41.6219 36.8682Z" fill="#5222D0"/>
<path d="M75.6485 34.8059C76.1181 35.3293 76.3268 36.0097 76.212 36.711C76.1807 36.9099 76.4833 36.9936 76.5146 36.7947C76.6502 35.9783 76.4207 35.1932 75.8676 34.5861C75.732 34.4291 75.5129 34.6489 75.6485 34.8059Z" fill="#5222D0"/>
<path d="M78.2471 34.3251C78.6332 34.7647 79.0088 35.1939 79.3949 35.6335C79.5306 35.7905 79.7497 35.5602 79.6141 35.4137C79.228 34.9741 78.8523 34.5449 78.4662 34.1053C78.341 33.9483 78.1219 34.1681 78.2471 34.3251Z" fill="#5222D0"/>
<path d="M63.1068 38.0717C63.8268 36.8051 64.7763 35.7061 65.9346 34.8268C66.0911 34.7012 65.9346 34.4291 65.7781 34.5547C64.5781 35.4758 63.5868 36.5958 62.8355 37.9147C62.7416 38.0926 63.0129 38.2496 63.1068 38.0717Z" fill="#5222D0"/>
<path d="M100.964 15.4411C101.805 15.4411 102.487 14.7756 102.487 13.9547C102.487 13.1338 101.805 12.4684 100.964 12.4684C100.122 12.4684 99.4401 13.1338 99.4401 13.9547C99.4401 14.7756 100.122 15.4411 100.964 15.4411Z" fill="#EC615B"/>
<path d="M103.77 18.8015C104.479 18.8015 105.053 18.2438 105.053 17.5559C105.053 16.868 104.479 16.3103 103.77 16.3103C103.061 16.3103 102.487 16.868 102.487 17.5559C102.487 18.2438 103.061 18.8015 103.77 18.8015Z" fill="#5222D0"/>
<path d="M26.7839 25.8677C26.93 26.6318 27.1074 27.4378 27.337 28.2752C28.0987 31.0071 29.1839 33.289 30.2586 35.1103C30.5717 35.1835 31.0204 35.2882 31.5734 35.351C32.3351 35.4452 33.5664 35.6022 34.9542 35.2045C35.2881 35.1103 35.142 35.1207 36.6133 34.5136C38.0845 33.9065 38.168 33.9275 38.7315 33.6762C39.6915 33.2576 40.5575 32.6505 42.2584 31.4677C42.7488 31.1222 43.427 30.6408 44.2201 30.0441C44.2722 29.7092 44.3348 29.2172 44.3244 28.6206C44.3035 27.6785 44.1053 26.9982 43.8235 26.0142C43.3749 24.4755 43.0618 23.4288 42.8636 22.7694C42.467 22.5182 42.0392 22.267 41.5488 22.0367C39.9315 21.2516 38.3976 20.9376 37.2185 20.812C36.0081 20.9062 35.0481 21.126 34.4011 21.304C31.563 22.089 29.6117 23.5649 28.4013 24.4965C27.6813 25.0408 27.1283 25.5327 26.7839 25.8677Z" fill="white"/>
<path d="M70.8808 22.026C70.0461 22.9262 69.1591 24.0043 68.3139 25.2709C67.8966 25.8989 67.5314 26.506 67.2079 27.0922C67.8444 28.0447 68.4809 28.9972 69.1278 29.9392C70.5574 30.494 71.9869 31.0488 73.4164 31.614C74.7729 30.1905 76.1399 28.7669 77.4963 27.3329C77.1416 26.1815 76.7868 25.0406 76.4425 23.8892C75.7433 23.5333 74.9399 23.1774 74.0216 22.8529C72.853 22.4552 71.7991 22.1935 70.8808 22.026Z" fill="white"/>
<path d="M26.6802 25.9623C27.035 29.3328 28.5167 32.3997 30.1236 35.341C30.2175 35.5189 30.4888 35.3619 30.3949 35.184C28.8193 32.3055 27.3376 29.2804 26.9932 25.9623C26.9724 25.7634 26.6593 25.753 26.6802 25.9623Z" fill="#161616"/>
<path d="M26.9714 26.0457C29.5279 23.251 33.0339 21.4402 36.7799 20.9482C36.9782 20.9273 36.9782 20.6132 36.7799 20.6342C32.9504 21.1366 29.361 22.9579 26.7419 25.8155C26.6167 25.9725 26.8358 26.1923 26.9714 26.0457Z" fill="#161616"/>
<path d="M36.8012 20.9061C38.502 23.4706 39.295 26.4537 40.0567 29.395C40.1089 29.5939 40.4115 29.5102 40.3593 29.3113C39.5872 26.3386 38.7837 23.3345 37.0725 20.7491C36.9577 20.5816 36.6864 20.7386 36.8012 20.9061Z" fill="#161616"/>
<path d="M30.4879 35.3302C32.3974 34.7545 34.2339 33.9904 35.9869 33.0379C36.8529 32.5669 37.6877 32.0435 38.5016 31.4783C39.232 30.9758 39.9937 30.4525 40.3902 29.636C40.4842 29.4581 40.2129 29.3011 40.1189 29.479C39.6911 30.3478 38.8146 30.8921 38.0425 31.4155C37.2807 31.9284 36.4877 32.4099 35.6738 32.8495C33.9939 33.7497 32.2304 34.4719 30.4148 35.0267C30.2166 35.0895 30.3 35.393 30.4879 35.3302Z" fill="#161616"/>
<path d="M36.9682 20.9268C39.0342 21.0106 41.0168 21.7014 42.6863 22.9365C42.8532 23.0517 43.0098 22.7795 42.8428 22.6644C41.1315 21.3978 39.0968 20.6965 36.9682 20.6128C36.7699 20.6023 36.7699 20.9164 36.9682 20.9268Z" fill="#161616"/>
<path d="M42.6655 22.8007C43.615 24.9883 44.1159 27.333 44.1263 29.73C44.1263 29.9288 44.4394 29.9288 44.4394 29.73C44.4185 27.2806 43.9072 24.8836 42.9263 22.6436C42.8533 22.4552 42.5924 22.6122 42.6655 22.8007Z" fill="#161616"/>
<path d="M40.1924 29.667C41.4863 30.5044 43.0202 30.2741 44.4288 29.8973C44.6271 29.845 44.5436 29.5414 44.3454 29.5938C43.0202 29.9496 41.5802 30.1799 40.3594 29.3949C40.182 29.2902 40.0255 29.5624 40.1924 29.667Z" fill="#161616"/>
<path d="M30.321 35.383C32.1783 35.8017 34.1087 35.6656 35.8826 34.9643C36.0704 34.891 35.9869 34.5875 35.7991 34.6607C34.0774 35.3411 32.2096 35.4981 30.4045 35.0794C30.2062 35.0376 30.1227 35.3411 30.321 35.383Z" fill="#161616"/>
<path d="M35.9658 34.9424C39.0648 33.7701 41.9448 32.0849 44.4699 29.9286C44.6264 29.7926 44.3969 29.5728 44.2508 29.7088C41.7674 31.8232 38.9396 33.4875 35.8927 34.6389C35.6945 34.7122 35.7779 35.0157 35.9658 34.9424Z" fill="#161616"/>
<path d="M70.6406 21.9948C69.3154 23.5649 68.105 25.2292 67.0198 26.9667C66.9155 27.1342 67.1868 27.2912 67.2911 27.1237C68.3659 25.4071 69.5658 23.7637 70.8597 22.2146C70.9953 22.0681 70.7762 21.8378 70.6406 21.9948Z" fill="#161616"/>
<path d="M70.7859 22.2674C72.6641 22.5709 74.4693 23.1676 76.1493 24.0363C76.3267 24.1306 76.4832 23.8584 76.3058 23.7642C74.5945 22.8745 72.7685 22.2778 70.859 21.9638C70.6711 21.9324 70.5877 22.236 70.7859 22.2674Z" fill="#161616"/>
<path d="M67.0305 27.3019C68.6582 28.045 70.2652 28.8196 71.8616 29.6361C72.039 29.7303 72.1955 29.4581 72.0182 29.3639C70.4217 28.5579 68.8148 27.7834 67.187 27.0297C66.9992 26.946 66.8426 27.2181 67.0305 27.3019Z" fill="#161616"/>
<path d="M76.233 23.8894C74.8348 25.763 73.4783 27.668 72.1635 29.6045C72.2366 29.5835 72.3096 29.5626 72.3827 29.5521C72.2679 29.4893 72.1531 29.4161 72.0279 29.3533C71.8505 29.2486 71.694 29.5207 71.8714 29.6254C71.9861 29.6882 72.1009 29.7615 72.2261 29.8243C72.2992 29.8662 72.3931 29.8347 72.4453 29.7719C73.7496 27.8355 75.1061 25.92 76.5147 24.0568C76.6191 23.8894 76.3478 23.7324 76.233 23.8894Z" fill="#161616"/>
<path d="M76.2023 24.0669C76.6719 25.166 77.0162 26.2965 77.2458 27.4688C77.2875 27.6677 77.5901 27.5839 77.5484 27.3851C77.3188 26.1918 76.9536 25.0299 76.4736 23.9099C76.4006 23.732 76.1293 23.889 76.2023 24.0669Z" fill="#161616"/>
<path d="M72.2683 29.8448C72.6753 30.3891 73.0301 30.9544 73.3431 31.5615C73.437 31.7394 73.7083 31.5824 73.6144 31.4045C73.3014 30.7974 72.9466 30.2321 72.5396 29.6878C72.4248 29.5308 72.1536 29.6878 72.2683 29.8448Z" fill="#161616"/>
<path d="M73.6131 31.5411C74.9696 30.285 76.2426 28.9661 77.453 27.574C77.5887 27.417 77.3591 27.1972 77.2339 27.3542C76.0235 28.7463 74.7505 30.0757 73.394 31.3213C73.2479 31.4573 73.467 31.6772 73.6131 31.5411Z" fill="#161616"/>
<path d="M67.0607 27.3857C67.7285 28.2545 68.3963 29.1338 69.0641 30.0025C69.1894 30.1595 69.4607 30.0025 69.3354 29.8455C68.6676 28.9767 67.9998 28.0975 67.332 27.2287C67.2068 27.0717 66.9355 27.2183 67.0607 27.3857Z" fill="#161616"/>
<path d="M69.1274 30.1171C70.5256 30.651 71.9238 31.1848 73.322 31.7186C73.5098 31.7919 73.5933 31.4883 73.4055 31.4151C72.0073 30.8812 70.6091 30.3474 69.2108 29.8136C69.023 29.7403 68.9395 30.0438 69.1274 30.1171Z" fill="#161616"/>
<path d="M29.9766 23.1353C31.3017 26.6523 32.6374 30.1693 33.9626 33.6967C34.9538 33.9794 35.9555 34.2515 36.9468 34.5341C37.6877 34.1992 38.4285 33.8537 39.1694 33.5188C38.3242 33.1524 37.479 32.7861 36.6338 32.4197C35.2773 28.8609 33.9208 25.2915 32.5643 21.7327C32.1887 21.9001 31.7922 22.0886 31.3852 22.3084C30.8531 22.57 30.3939 22.8631 29.9766 23.1353Z" fill="#EC615B"/>
<path d="M39.525 21.0627C40.3807 22.6119 41.3093 24.7786 41.6954 27.4687C41.8206 28.348 41.8728 29.1853 41.8728 29.939C40.2137 31.216 38.1894 32.5663 35.7582 33.8223C34.4017 34.5236 33.0869 35.1098 31.8661 35.5913C32.5443 35.5913 33.2226 35.5913 33.9008 35.5913C35.3512 34.9842 36.9581 34.2201 38.659 33.2466C40.5059 32.1894 42.0919 31.0904 43.4171 30.0646C43.1667 28.8085 42.8954 27.521 42.6032 26.2231C42.2798 24.7891 41.9459 23.3969 41.6119 22.0257C41.4241 21.8373 41.1111 21.5756 40.6624 21.3663C40.2033 21.1569 39.7963 21.0837 39.525 21.0627Z" fill="#EC615B"/>
<path d="M31.2399 22.3404C31.0104 22.152 31.313 21.0215 32.1477 20.6657C32.7842 20.3935 33.6086 20.6133 34.1825 21.2414C33.859 21.3356 33.3686 21.4821 32.7842 21.7228C31.7408 22.152 31.3964 22.466 31.2399 22.3404Z" fill="#EC615B"/>
<path d="M32.6907 21.2411C33.1811 20.9271 33.8906 20.3828 34.5063 19.514C35.5602 18.0172 35.6436 16.489 35.6332 15.8505C35.8106 15.7981 36.8645 15.4736 37.4488 15.9865C38.2418 16.6774 37.5114 18.3312 37.3549 18.6766C36.8958 19.7129 36.1445 20.2781 35.9045 20.4456C34.5689 21.3876 33.1081 21.283 32.6907 21.2411Z" fill="#EC615B"/>
<path d="M27.3471 18.4573C27.8688 18.3735 28.161 19.3051 29.2462 20.2262C30.2166 21.0427 31.3018 21.409 32.147 21.5975C31.7922 21.8696 31.1244 22.3197 30.1957 22.4348C28.8497 22.6023 27.0132 22.0894 26.5749 20.8019C26.2515 19.8285 26.7628 18.541 27.3471 18.4573Z" fill="#EC615B"/>
<path d="M72.7999 22.4233C71.4538 24.2237 70.0973 26.0241 68.7512 27.8244C69.2312 28.7037 69.7112 29.5829 70.2016 30.4622C70.619 30.6297 71.0364 30.8076 71.4538 30.9751C71.1512 30.2424 70.8486 29.4992 70.5355 28.7665C71.7355 26.7882 72.946 24.8203 74.1459 22.842C73.6972 22.706 73.2486 22.5699 72.7999 22.4233Z" fill="#5222D0"/>
<path d="M76.8911 25.3336C75.5138 26.8723 74.126 28.4005 72.7486 29.9392C71.1417 29.4682 69.5348 28.9972 67.9279 28.5261C68.1992 28.8716 68.4705 29.217 68.7417 29.5624C70.2548 30.0648 71.7573 30.5672 73.2703 31.0697C74.5747 29.5938 75.8685 28.1284 77.1729 26.6525C77.0894 26.2129 76.9955 25.7732 76.8911 25.3336Z" fill="#5222D0"/>
<path d="M74.1464 22.8005C74.1986 22.5807 74.9708 22.3609 75.4925 22.7586C75.8264 23.0098 76.0246 23.5018 75.8786 23.6483C75.6073 23.9205 74.0734 23.1354 74.1464 22.8005Z" fill="#5222D0"/>
<path d="M73.3323 19.4189C73.5618 19.2933 74.0209 19.6911 74.1462 19.7957C74.2714 19.9004 74.7096 20.2982 75.0122 21.4391C75.1687 22.0148 75.3983 22.8731 75.1583 22.9883C74.887 23.1243 74.0627 22.266 73.614 21.3449C73.2697 20.6122 73.0297 19.5864 73.3323 19.4189Z" fill="#5222D0"/>
<path d="M79.3842 23.1352C79.405 22.884 78.8416 22.6851 78.685 22.6328C78.539 22.5805 77.9859 22.4025 76.8068 22.6642C76.2121 22.8003 75.3356 22.9991 75.3251 23.2504C75.3147 23.5434 76.4625 23.8261 77.4955 23.7737C78.3198 23.7319 79.3529 23.4597 79.3842 23.1352Z" fill="#5222D0"/>
<path opacity="0.09" d="M30.4043 35.2876C31.0199 35.0678 31.9277 34.7433 33.0129 34.2827C34.8598 33.5082 36.1642 32.9639 37.6146 31.98C38.3345 31.488 39.3049 30.7344 40.338 29.6353C40.8493 28.6095 41.4753 27.0813 41.7153 25.1344C41.8614 23.9516 41.8405 22.9049 41.7571 22.057C42.1327 22.2768 42.4979 22.4966 42.8736 22.706C43.2492 23.6899 43.6353 24.8936 43.9066 26.2858C44.1779 27.636 44.2926 28.8607 44.324 29.897C43.197 30.8809 42.1953 31.6136 41.444 32.1265C37.8232 34.6072 35.3294 35.1934 34.7764 35.319C33.9207 35.5074 33.2634 35.5388 32.9712 35.5493C31.8756 35.5912 30.9886 35.4237 30.4043 35.2876Z" fill="#353535"/>
<path opacity="0.09" d="M67.239 27.1337C67.9068 28.0862 68.5642 29.0387 69.232 29.9808C70.6198 30.5251 72.018 31.0589 73.4058 31.6032C74.731 30.1587 76.0562 28.7247 77.3814 27.2802C77.0579 26.1707 76.724 25.0612 76.4005 23.9517C75.0441 25.7939 73.6876 27.6361 72.3311 29.4784C70.6302 28.7038 68.9294 27.9187 67.239 27.1337Z" fill="#353535"/>
<path d="M50.1045 107.669C50.5219 107.145 50.7723 106.904 50.8662 106.967C51.1062 107.114 50.2506 109.228 48.2889 113.321C43.4786 113.551 41.0369 113.436 40.9743 112.965C40.9221 112.557 42.7064 111.876 46.3272 110.934C47.1202 109.249 47.9132 107.564 48.7063 105.879C49.1758 106.475 49.6349 107.072 50.1045 107.669Z" fill="black"/>
<path d="M52.5447 74.2991C52.1482 77.1148 51.6891 79.9829 51.1882 82.8928C49.7065 91.434 47.9013 99.5252 45.8875 107.135C46.1796 107.459 46.9413 108.203 48.1935 108.548C49.7691 108.977 51.0734 108.506 51.4491 108.36C53.8073 100.09 56.155 91.8109 58.5133 83.5417C61.6123 80.1503 61.0175 75.7646 58.6489 74.1735C57.0837 73.1268 54.6629 73.2734 52.5447 74.2991Z" fill="#EC615B"/>
<path opacity="0.15" d="M52.6705 74.477C52.9731 74.5084 52.7853 79.2082 52.5453 83.437C52.0027 93.0354 50.2184 101.462 48.1002 108.485C47.8706 108.422 47.5993 108.328 47.328 108.192C46.6602 107.857 46.2115 107.417 45.9507 107.103C46.5872 104.822 47.5054 101.388 48.455 97.1805C51.4288 84.0022 52.2427 74.4456 52.6705 74.477Z" fill="#353535"/>
<path opacity="0.13" d="M50.908 85.4573C50.6784 88.2206 50.3445 91.1305 49.8749 94.166C49.1132 99.1589 48.1011 103.744 46.9846 107.899C46.8594 107.878 46.6715 107.826 46.4628 107.69C46.1811 107.501 46.0455 107.261 45.9933 107.145C46.828 103.66 47.6419 100.143 48.4558 96.5944C49.301 92.8472 50.1149 89.1313 50.908 85.4573Z" fill="#353535"/>
<path d="M70.088 107.355C69.6289 106.831 69.3472 106.591 69.2428 106.654C68.982 106.8 69.9211 108.914 72.0706 113.007C77.3609 113.237 80.0321 113.122 80.1052 112.651C80.1678 112.243 78.2061 111.563 74.2201 110.621C73.3436 108.935 72.4775 107.25 71.601 105.565C71.1002 106.162 70.5993 106.758 70.088 107.355Z" fill="black"/>
<path d="M56.5542 76.8025C56.1681 78.6656 57.0446 80.2043 57.3681 80.7172C60.8115 89.9493 64.2444 99.1919 67.6878 108.424C68.2722 108.508 69.4826 108.591 70.8808 108.1C72.4564 107.545 73.3746 106.55 73.7294 106.111C71.6738 101.714 70.3799 98.03 69.5869 95.5283C67.5104 88.9863 64.714 82.6641 62.7314 76.0907C62.3975 74.9916 61.8341 73.0656 60.561 72.8249C59.0793 72.5528 57.0029 74.6043 56.5542 76.8025Z" fill="#EC615B"/>
<path opacity="0.1" d="M59.7886 72.8862C59.0686 73.4095 60.4042 76.2043 61.0407 77.5964C62.5746 80.9564 63.3676 84.6095 64.8389 88.0009C66.4249 91.654 68.7518 97.568 72.0387 107.491C72.2683 107.376 72.5604 107.219 72.8526 106.978C73.2387 106.664 73.4995 106.34 73.6665 106.088C72.8422 104.298 71.6526 101.587 70.4005 98.2065C69.9518 97.0027 69.8996 96.7829 69.4092 95.2756C68.8875 93.6741 68.0736 91.2457 67.9066 90.7538C67.124 88.4928 67.124 88.7964 65.6528 84.7874C65.3397 83.9396 64.9119 82.7673 64.4006 81.239C64.1502 80.4959 63.9624 79.8992 63.8267 79.4701C63.8059 79.4073 63.1172 77.2615 62.1468 74.7179C61.8963 74.048 61.625 73.3886 60.9468 73.0432C60.9051 73.0118 60.1433 72.6245 59.7886 72.8862Z" fill="#353535"/>
<path opacity="0.12" d="M64.8804 82.6313C64.8178 82.6522 66.216 87.0171 72.9045 106.926C73.1758 106.664 73.4471 106.402 73.7184 106.13C73.3115 105.22 72.675 103.775 71.9445 101.975C70.2646 97.8612 69.5446 95.4642 67.6664 90.1782C66.623 87.2369 64.943 82.6104 64.8804 82.6313Z" fill="#353535"/>
<path d="M67.8322 43.6511C67.5922 43.672 67.4253 42.9603 67.1644 42.9707C66.9557 42.9812 66.8096 43.4522 66.7992 43.515C66.674 43.9442 66.7366 44.3838 67.1644 45.5352C67.2896 45.8702 67.4566 46.2993 67.6757 46.7913C67.5609 47.6077 67.3522 48.7382 66.9766 50.0675C66.507 51.7109 65.714 54.4114 63.6167 57.1957C62.9697 58.054 61.9993 59.1949 60.5907 60.3673C60.1211 61.4977 60.0585 62.4398 60.0794 63.026C60.0898 63.3714 60.1315 64.931 60.7054 65.0775C61.0915 65.1717 61.5506 64.6065 61.7802 64.3239C64.1175 61.3617 65.2966 59.8858 65.7662 59.0275C66.8618 57.0596 67.7488 55.4582 68.5 53.0507C69.0531 51.2922 69.3139 49.7535 69.46 48.623C69.7 48.2253 70.0339 47.6601 70.42 46.9692C71.4739 45.0851 71.8495 44.2373 72.0791 43.2952C72.3191 42.3218 72.3608 41.4844 72.1208 41.3902C71.9434 41.3274 71.7243 41.6519 71.5261 41.5681C71.2339 41.4425 71.5469 40.5737 71.2339 40.3853C71.1191 40.3121 70.8895 40.3225 70.42 40.6365C70.0965 39.9562 69.8878 39.8306 69.7522 39.841C69.4705 39.8829 69.3348 40.6575 69.2722 41.5367C69.1887 41.1076 68.98 40.2074 68.7192 40.2074C68.5 40.2074 68.2705 40.8668 68.2079 41.3902C68.114 42.1124 68.3227 42.6358 68.0618 43.3685C68.0096 43.4732 67.9366 43.6302 67.8322 43.6511Z" fill="white"/>
<path d="M67.4674 46.655C67.4361 48.0366 66.9979 49.366 66.5805 50.6744C66.1736 51.9095 65.7144 53.1342 65.151 54.3065C64.1075 56.4837 62.6988 58.4725 60.8519 60.0321C60.6954 60.1577 60.925 60.388 61.071 60.2519C62.991 58.6399 64.431 56.557 65.4953 54.296C66.0483 53.1237 66.5075 51.9095 66.904 50.6744C67.3214 49.3764 67.7492 48.0471 67.77 46.6654C67.7909 46.4561 67.4779 46.4561 67.4674 46.655Z" fill="#161616"/>
<path d="M69.3249 48.4773C69.0432 51.7849 67.6032 54.8937 66.1424 57.8245C64.8068 60.5042 63.1894 63.1105 60.7791 64.9423C60.6225 65.0679 60.7791 65.34 60.9356 65.2144C63.3981 63.3408 65.0572 60.7135 66.4137 57.9816C67.9059 54.9984 69.3458 51.8373 69.638 48.4773C69.6484 48.2784 69.3354 48.2784 69.3249 48.4773Z" fill="#161616"/>
<path d="M67.7288 46.4874C67.374 45.7233 67.0401 44.8336 66.988 43.9858C66.9775 43.8706 66.9567 43.3787 67.0401 43.3159C67.301 43.1379 67.374 43.4415 67.4367 43.5671C67.5514 43.7869 67.6349 43.9439 67.854 44.0695C68.0314 44.1637 68.1879 43.902 68.0105 43.7974C67.6453 43.588 67.6766 43.0123 67.2593 42.8553C66.9045 42.7192 66.7793 43.0123 66.7062 43.3159C66.4558 44.394 66.9984 45.6815 67.4367 46.6444C67.5514 46.8329 67.8123 46.6654 67.7288 46.4874Z" fill="#161616"/>
<path d="M68.0822 43.976C68.437 43.1596 68.3535 42.3222 68.3848 41.4534C68.3952 41.2545 68.3535 40.794 68.4683 40.637C68.677 40.3753 68.8335 40.9301 68.8857 41.108C69.0318 41.6732 69.0631 42.2385 69.0213 42.8142C69.0005 43.013 69.3135 43.013 69.3344 42.8142C69.3657 42.4164 69.3239 39.6426 68.437 40.0927C68.0718 40.2811 68.0926 41.0243 68.0822 41.3488C68.0509 42.1757 68.1657 43.0235 67.8213 43.8086C67.7378 43.997 68.0092 44.1644 68.0822 43.976Z" fill="#161616"/>
<path d="M69.3659 42.8347C69.4285 42.4579 69.4807 42.0811 69.512 41.6938C69.5433 41.2646 69.4807 40.7831 69.6163 40.3749C69.7311 39.9981 69.7937 39.9248 69.9502 40.2598C70.065 40.5005 70.1068 40.7517 70.1381 41.0029C70.1902 41.474 70.232 42.0287 70.0859 42.4893C70.0233 42.6882 70.3259 42.7614 70.3885 42.573C70.5554 42.0183 70.5137 41.3379 70.4198 40.7726C70.3676 40.4691 70.2007 39.6736 69.7937 39.6736C69.4389 39.6736 69.2929 40.2702 69.2616 40.5214C69.1572 41.2541 69.1781 42.0078 69.0633 42.7405C69.032 42.9498 69.3346 43.0336 69.3659 42.8347Z" fill="#161616"/>
<path d="M70.5038 42.563C70.5456 42.2386 70.5456 41.9036 70.5456 41.5791C70.556 41.2965 70.5352 40.5429 70.8899 40.5743C71.1508 40.5952 71.1299 40.815 71.1508 41.0453C71.1612 41.2023 71.1612 41.3698 71.1612 41.5268C71.1612 41.9141 71.1403 42.2909 71.0673 42.6782C71.0256 42.8771 71.3282 42.9608 71.3699 42.7619C71.4742 42.249 71.829 40.1451 70.8899 40.1242C70.0239 40.1033 70.2534 42.092 70.1908 42.5735C70.1699 42.7619 70.483 42.7619 70.5038 42.563Z" fill="#161616"/>
<path d="M71.62 41.6411C71.7452 41.6307 71.86 41.6202 71.9852 41.6097C72.0061 41.704 72.027 41.7982 72.0374 41.9028C72.0583 42.0912 72.0687 42.2692 72.0687 42.4576C72.0583 42.7925 72.0061 43.138 71.9122 43.4624C71.7452 44.1009 71.4635 44.708 71.1505 45.2942C70.5766 46.3828 69.9609 47.4609 69.3662 48.5391C69.2722 48.717 69.5435 48.874 69.6374 48.6961C70.1383 47.7854 70.6496 46.8748 71.1505 45.9641C71.62 45.1163 72.0896 44.2266 72.2878 43.2636C72.3922 42.7402 72.6113 41.5365 72.0687 41.1701C71.7244 40.9294 71.2757 41.2539 71.3174 41.6516C71.3278 41.84 71.6409 41.84 71.62 41.6411Z" fill="#161616"/>
<path opacity="0.08" d="M71.0894 40.4589C70.9329 40.4694 70.8911 41.1183 70.7868 41.8929C70.6198 43.2536 70.432 44.7819 69.7851 46.0589C69.5764 46.4776 69.2007 47.0951 68.5225 47.765C68.4182 48.5082 68.2199 49.5759 67.886 50.8319C67.3017 53.03 66.446 56.1493 64.0252 59.0696C63.3678 59.8547 62.3557 60.9433 60.8636 62.0005C60.8218 63.0263 60.7801 64.0416 60.7279 65.0674C61.3748 64.5754 62.314 63.7904 63.2844 62.6704C64.5574 61.1945 65.3817 59.5197 66.9782 56.233C68.2512 53.6057 68.5955 52.5904 68.8042 51.8577C69.2007 50.5179 69.399 49.356 69.5034 48.5187C70.2129 47.3987 70.7346 46.4043 71.0998 45.6192C71.7363 44.2585 72.7589 42.0604 72.1329 41.5161C71.9555 41.3695 71.6946 41.38 71.4963 41.4114C71.4024 40.9718 71.2355 40.4484 71.0894 40.4589Z" fill="#353535"/>
<path opacity="0.1" d="M70.6915 46.5925C70.1385 47.1787 69.5854 47.7753 69.0324 48.3615C68.9802 48.8639 68.8863 49.6071 68.6672 50.4968C68.2498 52.1716 67.6446 53.3439 67.4046 53.8359C66.789 55.071 65.9855 56.9551 65.2134 59.7708C65.5577 59.1742 67.3838 55.9921 68.4063 53.2706C68.7924 52.2239 69.0011 51.6796 69.1681 50.8318C69.3768 49.8164 69.3246 49.3454 69.5959 48.529C69.8985 47.6393 70.3576 46.9903 70.6915 46.5925Z" fill="#353535"/>
<path d="M41.7028 41.3587C41.3689 41.4529 41.3585 42.3635 41.4106 42.8764C41.4941 43.7871 41.8489 44.4674 42.0054 44.7605C42.6732 45.9956 43.3202 47.1575 43.9775 48.2775C44.061 49.0311 44.2071 50.0569 44.4993 51.2502C45.0106 53.3437 45.6679 54.7672 46.5757 56.7246C48.0157 59.8124 48.8713 61.5814 50.6974 63.4655C51.3861 64.1668 52.0121 64.6901 52.4399 65.0251C52.5965 64.8471 53.5564 63.7376 53.3686 62.1571C53.2225 60.8696 52.4086 60.0845 52.1791 59.8752C51.6782 59.4565 50.9165 58.7761 50.1339 57.8132C48.4853 55.7616 47.7966 53.71 46.7949 50.6326C46.5236 49.7953 46.1584 48.6125 45.7931 47.1575C45.9914 46.5085 46.1584 45.9956 46.2731 45.6712C46.6175 44.6768 46.8366 44.1743 46.6801 43.5358C46.6383 43.3684 46.5549 43.0543 46.3462 42.9915C46.1062 42.9287 45.741 43.2218 45.4592 43.7557C45.3027 42.8973 45.2297 42.1856 45.1984 41.6517C45.1566 40.8772 45.1775 40.3119 45.0106 40.2701C44.8332 40.2282 44.5619 40.8562 44.5306 40.919C44.2697 41.5052 44.2697 42.06 44.3114 42.4054C44.3949 40.4585 44.1758 39.9665 43.9358 39.9037C43.7375 39.8514 43.4871 40.1131 43.4141 40.1968C42.9237 40.7202 43.1741 41.4843 43.195 41.5366C42.9758 40.3747 42.7463 40.3015 42.6732 40.3015C42.4854 40.291 42.2976 40.7097 42.2245 40.9504C42.1411 41.2435 42.1932 41.5052 42.2245 41.6413C42.0576 41.4843 41.8593 41.3168 41.7028 41.3587Z" fill="white"/>
<path d="M45.7003 46.6759C45.7316 48.0157 46.1177 49.3136 46.5142 50.5906C46.9107 51.8572 47.3594 53.1028 47.9124 54.3065C48.9455 56.557 50.3437 58.64 52.2115 60.2624C52.368 60.3985 52.5871 60.1682 52.4306 60.0426C50.6254 58.4725 49.2689 56.4837 48.2568 54.317C47.7038 53.1447 47.2551 51.92 46.869 50.6848C46.4516 49.3764 46.0342 48.0471 46.0029 46.6654C46.0029 46.477 45.6899 46.477 45.7003 46.6759Z" fill="#161616"/>
<path d="M43.9058 48.5082C44.1771 51.8159 45.5544 54.9246 46.9735 57.8869C48.2883 60.6398 49.9056 63.3194 52.3264 65.2244C52.483 65.35 52.7021 65.1302 52.5456 65.0046C50.1769 63.1519 48.6117 60.556 47.3074 57.8869C45.8779 54.9351 44.4797 51.8159 44.2084 48.5187C44.1979 48.3093 43.8849 48.3093 43.9058 48.5082Z" fill="#161616"/>
<path d="M46.0248 46.6753C46.463 45.6914 47.0161 44.362 46.7135 43.263C46.6404 42.9908 46.5048 42.771 46.1917 42.8966C45.7848 43.0536 45.8265 43.6293 45.4613 43.8387C45.2839 43.9433 45.4405 44.2155 45.6178 44.1108C45.7848 44.0166 45.8787 43.891 45.9726 43.7235C46.0144 43.6398 46.0561 43.4514 46.1291 43.3886C46.5361 43.085 46.463 43.7445 46.463 43.9329C46.4422 44.8121 46.0978 45.7332 45.7431 46.5288C45.67 46.6962 45.9413 46.8532 46.0248 46.6753Z" fill="#161616"/>
<path d="M45.67 43.8396C45.3466 43.086 45.4405 42.2695 45.4196 41.474C45.4092 41.1391 45.4509 40.3227 45.0648 40.1238C44.1988 39.6737 44.1466 42.458 44.1779 42.8452C44.1988 43.0441 44.5118 43.0441 44.4909 42.8452C44.4492 42.301 44.4701 41.7567 44.5953 41.2228C44.6266 41.0868 44.7414 40.4587 45.0022 40.5739C45.117 40.6262 45.1066 41.3484 45.1066 41.474C45.1274 42.3428 45.0544 43.1802 45.3987 43.9966C45.4822 44.185 45.7535 44.028 45.67 43.8396Z" fill="#161616"/>
<path d="M44.4587 42.7718C44.3439 42.0391 44.3647 41.296 44.2604 40.5737C44.2291 40.312 44.0934 39.7154 43.7282 39.7049C43.3526 39.6945 43.1856 40.4481 43.1335 40.7203C43.0187 41.3169 42.977 42.0182 43.1439 42.6044C43.1961 42.7928 43.4987 42.7195 43.4465 42.5206C43.3213 42.1019 43.3526 41.6204 43.3839 41.1808C43.4048 40.9191 43.4465 40.647 43.5404 40.3958C43.6969 39.998 43.7595 39.9143 43.9056 40.3958C44.0204 40.7831 43.9682 41.2332 43.9995 41.6309C44.0308 42.0391 44.083 42.4474 44.1561 42.8556C44.1874 43.0545 44.49 42.9707 44.4587 42.7718Z" fill="#161616"/>
<path d="M43.3632 42.5841C43.3006 42.1131 43.5302 40.1034 42.6745 40.1348C41.7563 40.1662 42.1111 42.2701 42.205 42.7725C42.2467 42.9714 42.5493 42.8876 42.5076 42.6888C42.4346 42.3119 42.4137 41.9246 42.4137 41.5374C42.4137 41.2548 42.3302 40.6163 42.6641 40.5849C43.0084 40.5534 42.9876 41.3176 42.998 41.5897C43.0084 41.9246 42.998 42.2491 43.0398 42.5736C43.0711 42.783 43.3945 42.7934 43.3632 42.5841Z" fill="#161616"/>
<path d="M42.2882 41.662C42.33 41.2747 41.9022 40.9398 41.5578 41.1805C41.0465 41.5364 41.2344 42.6773 41.3283 43.1798C41.4952 44.1113 41.9126 44.9697 42.3613 45.807C42.8726 46.7805 43.4047 47.7435 43.916 48.7065C44.0099 48.8844 44.2812 48.7274 44.1873 48.5494C43.5926 47.4399 42.9769 46.3409 42.403 45.2209C42.1213 44.6661 41.8604 44.0904 41.7143 43.4728C41.6309 43.1483 41.5787 42.8134 41.5683 42.468C41.5683 42.3424 41.5683 42.2168 41.5787 42.0807C41.5787 41.9446 41.5996 41.8085 41.6309 41.6829C41.6413 41.5259 41.7665 41.5155 41.9856 41.6515C41.9543 41.8609 42.2674 41.8609 42.2882 41.662Z" fill="#161616"/>
<path opacity="0.09" d="M42.7579 40.3958C43.05 40.5004 42.8413 41.7565 42.7892 42.2275C42.6744 43.3056 42.9144 44.9385 44.6152 47.2623C45.0639 49.5023 45.9195 52.5587 47.6725 55.8663C49.1542 58.6715 50.8342 60.8069 52.2324 62.3351C52.3368 63.2562 52.4307 64.1773 52.535 65.1089C51.8881 64.6588 50.9907 63.947 50.1038 62.9108C49.3316 62.0001 48.8725 61.2046 48.2047 59.9381C46.483 56.6618 45.6169 55.0185 45.0117 53.0297C44.6778 51.9411 44.2813 50.371 44.0517 48.4241C43.2274 47.3565 42.6639 46.3725 42.2883 45.6189C41.5579 44.164 41.3701 43.2428 41.3909 42.4159C41.4118 41.4739 41.5788 41.3483 41.6518 41.3169C41.8083 41.2541 42.017 41.3797 42.1527 41.4843C42.1422 41.432 42.0379 40.961 42.3509 40.6156C42.4031 40.5737 42.6118 40.3434 42.7579 40.3958Z" fill="#353535"/>
<path opacity="0.09" d="M41.9226 44.1328C42.027 44.0805 42.6635 44.9806 43.1226 45.7343C44.1974 47.5032 44.6356 49.0838 44.7504 49.4711C45.4391 51.8681 46.326 53.8987 48.1103 57.9496C48.6529 59.1742 49.4772 60.9536 50.6355 63.0576C50.3016 62.7435 49.8216 62.2725 49.3103 61.655C48.8616 61.1211 47.3903 59.3103 45.8565 55.1548C45.2617 53.5324 44.5626 51.3447 44.0617 48.6546C43.7069 48.0475 43.2165 47.1788 42.6948 46.0902C42.4652 45.5982 41.8079 44.1956 41.9226 44.1328Z" fill="#353535"/>
<path d="M56.7402 58.9638C56.375 58.9324 55.728 58.8801 54.8828 58.9638C53.902 59.0685 53.0255 59.1522 52.3681 59.7279C51.8777 60.1571 51.7316 60.6909 51.4603 61.7481C51.3038 62.3656 51.0951 63.203 51.116 64.3335C51.1577 66.4269 51.9507 66.6991 52.3681 69.2321C52.5768 70.4568 52.5559 71.4093 52.5455 72.5503C52.5246 74.068 52.3681 75.3555 52.2011 76.3499C52.6498 76.7058 53.3385 77.1872 54.2776 77.5641C54.8515 77.7943 56.4793 78.4119 58.5662 78.0456C60.7575 77.6687 62.1035 76.4336 62.5522 75.9835C61.8218 74.0052 61.7488 72.4142 61.8114 71.3361C61.8948 70.0277 62.1661 69.745 62.5522 66.9294C62.8444 64.8359 62.834 63.9671 62.8131 63.4961C62.74 61.612 62.6983 60.6595 62.0722 60.021C61.4566 59.393 59.881 59.2464 56.7402 58.9638Z" fill="white"/>
<path d="M56.2201 58.8909C55.4479 58.8386 54.6757 58.8805 53.914 59.0166C53.2671 59.1317 52.5993 59.2468 52.1715 59.7807C51.3889 60.7436 51.055 62.073 50.9924 63.2872C50.8358 66.3855 52.3697 69.2116 52.8914 72.2053C52.9227 72.4042 53.2253 72.3204 53.194 72.1215C52.7245 69.421 51.4306 66.8984 51.3054 64.135C51.2532 62.8685 51.441 61.5706 52.088 60.461C52.3071 60.0842 52.5471 59.7179 52.9749 59.5608C53.2671 59.4562 53.5906 59.3934 53.8932 59.3306C54.6549 59.184 55.4375 59.1526 56.2096 59.1945C56.4183 59.2154 56.4183 58.9014 56.2201 58.8909Z" fill="#161616"/>
<path d="M52.1723 69.1915C52.4749 71.4943 52.4436 73.818 52.0679 76.1104C52.0366 76.3092 52.3392 76.393 52.3705 76.1941C52.7566 73.8704 52.7984 71.5257 52.4853 69.1915C52.454 68.9926 52.141 68.9926 52.1723 69.1915Z" fill="#161616"/>
<path d="M57.5032 59.1738C58.9014 59.0901 60.6231 59.2576 61.8127 60.095C62.5326 60.6079 62.5639 61.4662 62.637 62.2721C62.71 62.9944 62.7413 63.7166 62.6892 64.4493C62.4805 67.3069 61.3327 70.0179 61.3431 72.9069C61.3431 73.1058 61.6561 73.1058 61.6561 72.9069C61.6457 69.6516 63.1274 66.5847 63.0231 63.3189C62.9813 62.0733 63.0231 60.4718 61.8335 59.7391C60.5918 58.975 58.9327 58.7761 57.5032 58.8598C57.2945 58.8703 57.2945 59.1843 57.5032 59.1738Z" fill="#161616"/>
<path d="M61.6665 69.7666C61.6456 71.8182 61.8961 73.8488 62.3969 75.8376C62.4491 76.0364 62.7517 75.9527 62.6995 75.7538C62.2091 73.7965 61.9587 71.7868 61.9795 69.7666C61.9795 69.5677 61.6665 69.5677 61.6665 69.7666Z" fill="#161616"/>
<path d="M52.0864 76.4027C53.5055 77.5855 55.3107 78.2973 57.168 78.3077C59.2654 78.3182 61.0184 77.2924 62.6357 76.0468C62.7923 75.9212 62.6357 75.649 62.4792 75.7747C60.9453 76.947 59.3071 77.9518 57.335 77.9832C55.5089 78.0146 53.7142 77.3343 52.316 76.1724C52.149 76.0468 51.9299 76.2666 52.0864 76.4027Z" fill="#161616"/>
<path opacity="0.11" d="M59.9866 59.1002C60.3101 59.8853 60.7275 61.0681 60.9362 62.5439C61.3431 65.5062 60.6544 67.7776 59.8301 70.4048C59.2145 72.3622 58.1815 75.0628 56.3658 78.0878C56.9397 78.1401 57.6493 78.1401 58.4423 77.9936C60.5084 77.6168 61.8857 76.4863 62.5013 75.9106C62.4283 75.3873 62.3031 74.5708 62.1257 73.5869C61.844 72.0482 61.7501 71.9331 61.7188 71.3783C61.677 70.6979 61.7918 70.7817 62.4074 67.9032C62.6474 66.7727 62.8248 65.7469 62.9292 64.4071C62.9396 64.292 62.9396 64.1768 62.95 64.0617C63.0022 62.3346 63.0231 61.2774 62.2927 60.3772C61.5935 59.5189 60.5814 59.2154 59.9866 59.1002Z" fill="#353535"/>
<path opacity="0.08" d="M63.0017 64.1138C62.9287 64.0929 62.5635 64.6686 61.7079 66.9609C60.7687 69.4835 59.6105 73.1157 58.7131 77.8155C59.1723 77.7526 59.8088 77.6166 60.5079 77.3026C61.447 76.8734 62.0731 76.2977 62.4278 75.9104C62.1148 74.8114 61.76 73.1785 61.7705 71.1897C61.7809 67.2749 63.1687 64.1662 63.0017 64.1138Z" fill="#353535"/>
<path d="M52.9752 51.3433C52.5683 52.1807 52.6831 53.0285 52.777 53.4263C52.7352 53.4263 52.2448 53.4054 51.9839 53.7612C51.6709 54.1799 51.9631 54.7033 52.0152 54.787C52.0883 54.9126 52.1822 55.0906 52.3805 55.1429C52.6935 55.2371 52.9857 54.965 53.0065 54.944C53.1631 55.3418 53.4239 55.8442 53.8309 56.3571C54.4569 57.1526 55.156 57.6237 55.6256 57.8853C55.6465 58.3878 55.6673 58.8797 55.6778 59.3822C55.7926 59.4868 56.0325 59.6752 56.3873 59.738C57.0864 59.8741 57.629 59.4136 57.6916 59.3508C57.6812 58.7227 57.6708 58.0947 57.6603 57.4667C57.9316 57.2573 58.2447 56.9642 58.5473 56.5769C59.1525 55.7814 59.3716 54.9754 59.4551 54.494C59.5699 54.5358 59.7577 54.5777 59.9977 54.5777C60.2272 54.5777 60.5194 54.5672 60.6551 54.3788C60.8011 54.1695 60.6446 53.8659 60.4881 53.5414C60.3316 53.2379 60.2168 53.196 60.1751 53.1855C59.9977 53.1332 59.8307 53.2379 59.7786 53.2693C59.8203 52.9343 59.8412 52.3063 59.5803 51.605C59.5073 51.4061 59.0899 50.3384 58.0777 49.7732C56.4186 48.873 53.81 49.6371 52.9752 51.3433Z" fill="white"/>
<path d="M52.787 51.3652C52.1714 54.0762 53.1731 57.5723 56.2409 58.1584C56.4391 58.2003 56.5226 57.8967 56.3243 57.8549C53.4235 57.3001 52.5157 54.0029 53.0896 51.4489C53.1314 51.25 52.8288 51.1663 52.787 51.3652Z" fill="#161616"/>
<path d="M56.2837 58.1473C56.7115 58.2729 57.2958 57.8647 57.6401 57.6344C58.0993 57.3308 58.5062 56.9435 58.8297 56.4934C59.6331 55.4153 59.9357 54.0546 59.8105 52.7357C59.7897 52.5368 59.4766 52.5368 59.4975 52.7357C59.6123 53.8766 59.4036 55.0385 58.7879 56.012C58.5271 56.4202 58.2036 56.7865 57.828 57.1005C57.5254 57.3518 56.7845 57.9589 56.3671 57.8437C56.1689 57.7914 56.0854 58.0949 56.2837 58.1473Z" fill="#161616"/>
<path d="M55.3632 57.8968C55.5197 58.3259 55.5615 58.776 55.4884 59.2261C55.4571 59.425 55.7597 59.5087 55.791 59.3099C55.8745 58.797 55.8432 58.305 55.6658 57.8131C55.6032 57.6246 55.3006 57.6979 55.3632 57.8968Z" fill="#161616"/>
<path d="M57.5249 57.5403C57.4727 58.0741 57.5145 58.5975 57.6501 59.1208C57.7023 59.3197 58.0049 59.236 57.9527 59.0371C57.8275 58.5451 57.7962 58.0427 57.8379 57.5403C57.8588 57.3414 57.5458 57.3414 57.5249 57.5403Z" fill="#161616"/>
<path d="M55.4992 59.4246C56.2192 60.2305 57.7218 60.2096 57.9826 58.9849C58.0244 58.7861 57.7218 58.7023 57.68 58.9012C57.4609 59.8956 56.2923 59.8328 55.7184 59.2047C55.5827 59.0582 55.3636 59.278 55.4992 59.4246Z" fill="#161616"/>
<path d="M55.5628 58.1059C56.168 58.6607 57.1176 58.5351 57.5036 57.7919C57.5976 57.614 57.3263 57.457 57.2324 57.6349C56.9402 58.1897 56.2411 58.3153 55.7819 57.8861C55.6359 57.7501 55.4167 57.9699 55.5628 58.1059Z" fill="#161616"/>
<path d="M56.1891 58.3361C56.3352 58.3256 56.4708 58.3361 56.6065 58.378C56.8047 58.4303 56.8882 58.1268 56.69 58.0744C56.523 58.0325 56.3561 58.0116 56.1891 58.0221C55.9908 58.0325 55.9908 58.3466 56.1891 58.3361Z" fill="#161616"/>
<path d="M52.8186 54.9758C52.3908 55.3212 52.0151 54.8397 51.9734 54.4315C51.9212 54.0337 52.2656 53.5418 52.7038 53.8139C52.8708 53.9186 53.0273 53.6465 52.8603 53.5418C52.2134 53.1336 51.5873 53.8244 51.6604 54.4734C51.7438 55.1642 52.4221 55.698 53.0377 55.1956C53.1942 55.07 52.9751 54.8502 52.8186 54.9758Z" fill="#161616"/>
<path d="M59.8616 53.4475C60.1955 53.1335 60.519 53.7301 60.5086 54.0023C60.5086 54.1697 60.4251 54.3372 60.279 54.4314C60.1642 54.5047 59.8929 54.5989 59.799 54.4523C59.6947 54.2849 59.4234 54.4419 59.5277 54.6093C59.6843 54.871 60.039 54.8815 60.2999 54.7768C60.6025 54.6512 60.8007 54.3686 60.8112 54.0441C60.8425 53.4684 60.1851 52.7043 59.6321 53.2277C59.4964 53.3638 59.7156 53.594 59.8616 53.4475Z" fill="#161616"/>
<path d="M55.6665 51.3339C55.75 52.0666 55.7083 52.7574 55.6352 53.4901C55.5935 53.9821 55.8544 54.1914 56.2404 54.5054C56.397 54.631 56.6161 54.4112 56.4596 54.2856C56.1883 54.0553 55.9483 53.8983 55.9587 53.4796C55.9587 53.2808 56.0109 53.0609 56.0318 52.8621C56.0735 52.3492 56.0526 51.8363 55.99 51.3339C55.9587 51.135 55.6457 51.135 55.6665 51.3339Z" fill="#161616"/>
<path d="M53.9235 52.8205C53.9131 52.5902 54.247 52.4436 54.4348 52.4541C54.654 52.4541 54.7687 52.6321 54.8835 52.7995C54.9983 52.967 55.2696 52.81 55.1548 52.6425C54.9461 52.339 54.7061 52.0878 54.3096 52.1506C53.9757 52.2134 53.5896 52.4541 53.6001 52.8309C53.6105 53.0298 53.9235 53.0298 53.9235 52.8205Z" fill="#161616"/>
<path d="M57.5032 52.5366C57.785 52.0028 58.5467 52.0865 58.6823 52.6832C58.7241 52.8821 59.0267 52.7983 58.985 52.5994C58.7971 51.7411 57.6389 51.605 57.2319 52.3692C57.1485 52.5471 57.4093 52.7146 57.5032 52.5366Z" fill="#161616"/>
<path d="M53.6217 51.7103C53.799 51.4381 54.1016 51.2602 54.4251 51.2183C54.6234 51.1974 54.6234 50.8834 54.4251 50.9043C53.9764 50.9567 53.6008 51.1765 53.3504 51.5533C53.2356 51.7208 53.5069 51.8778 53.6217 51.7103Z" fill="#161616"/>
<path d="M57.5034 51.1246C57.8791 51.1037 58.2234 51.2188 58.4947 51.47C58.6408 51.6061 58.8704 51.3863 58.7138 51.2502C58.3799 50.9466 57.9521 50.7896 57.493 50.8106C57.2947 50.821 57.2947 51.1351 57.5034 51.1246Z" fill="#161616"/>
<path d="M54.0084 53.6258C54.0084 53.6153 54.0084 53.6153 54.0084 53.6049C54.0084 53.5211 53.9353 53.4479 53.8518 53.4479C53.7684 53.4479 53.6953 53.5211 53.6953 53.6049C53.6953 53.6153 53.6953 53.6153 53.6953 53.6258C53.6953 53.7096 53.7684 53.7828 53.8518 53.7828C53.9353 53.7828 54.0084 53.72 54.0084 53.6258Z" fill="#161616"/>
<path d="M54.4889 53.5534C54.4994 53.5534 54.5098 53.5534 54.5098 53.5534C54.5933 53.5534 54.6663 53.4801 54.6663 53.3964C54.6663 53.3126 54.5933 53.2394 54.5098 53.2394C54.4994 53.2394 54.4889 53.2394 54.4889 53.2394C54.4054 53.2394 54.3324 53.3126 54.3324 53.3964C54.3428 53.4801 54.4054 53.5534 54.4889 53.5534Z" fill="#161616"/>
<path d="M54.4683 54.2433C54.4787 54.2433 54.4892 54.2433 54.4892 54.2433C54.5726 54.2433 54.6457 54.1701 54.6457 54.0863C54.6457 54.0026 54.5726 53.9293 54.4892 53.9293C54.4787 53.9293 54.4683 53.9293 54.4683 53.9293C54.3848 53.9293 54.3118 54.0026 54.3118 54.0863C54.3118 54.1701 54.3848 54.2433 54.4683 54.2433Z" fill="#161616"/>
<path d="M57.8471 53.3221C57.8575 53.3221 57.8679 53.3221 57.8679 53.3221C57.9514 53.3221 58.0245 53.2488 58.0245 53.1651C58.0245 53.0813 57.9514 53.0081 57.8679 53.0081C57.8575 53.0081 57.8471 53.0081 57.8471 53.0081C57.7636 53.0081 57.6906 53.0813 57.6906 53.1651C57.701 53.2488 57.7636 53.3221 57.8471 53.3221Z" fill="#161616"/>
<path d="M58.7651 53.3007C58.9634 53.3007 58.9634 52.9867 58.7651 52.9867C58.5669 52.9867 58.5669 53.3007 58.7651 53.3007Z" fill="#161616"/>
<path d="M58.4221 53.8039C58.6204 53.8039 58.6204 53.4899 58.4221 53.4899C58.2135 53.4899 58.2135 53.8039 58.4221 53.8039Z" fill="#161616"/>
<path d="M54.9672 55.1749C55.6037 56.3263 57.2733 56.1588 57.6802 54.9132C57.7428 54.7248 57.4402 54.6411 57.3776 54.8295C57.0541 55.8343 55.7394 55.9181 55.2385 55.0179C55.1446 54.8399 54.8733 54.9969 54.9672 55.1749Z" fill="#161616"/>
<path d="M51.2426 52.6109C50.8566 53.1866 50.3035 54.1809 50.0844 55.5103C49.9279 56.4628 49.6566 58.1271 50.7001 59.446C50.9818 59.8019 52.0148 60.9637 53.4339 60.7753C54.3834 60.6497 55.3956 59.9379 55.5834 58.9435C55.6773 58.483 55.573 58.0852 55.4791 57.8549C55.0304 57.6351 54.2269 57.1746 53.6009 56.2744C53.2878 55.8348 53.1 55.4056 52.9956 55.0707C52.9435 55.1125 52.7765 55.2381 52.547 55.2277C52.2757 55.2172 52.1087 55.0288 52.067 54.9765C51.7435 54.6101 51.7748 53.8565 52.2026 53.6052C52.4218 53.4796 52.6722 53.5215 52.8078 53.5529C52.7452 53.1656 52.6826 52.3387 53.1209 51.4699C53.413 50.8838 53.8617 50.4546 54.8947 49.8056C55.7504 49.2718 56.126 49.3137 56.2617 49.3346C56.7208 49.4183 57.0025 49.7847 57.1486 49.9731C57.806 50.8105 58.6616 51.8886 59.6842 53.218C59.7259 53.197 60.0077 53.0609 60.2894 53.1866C60.4876 53.2808 60.5816 53.4587 60.6442 53.5948C60.6963 53.7099 60.7798 53.8774 60.7381 54.0763C60.6963 54.3275 60.4981 54.5578 60.2268 54.6415C59.8929 54.7462 59.6216 54.5682 59.5798 54.5368C59.4964 54.9346 59.3294 55.5312 58.9329 56.1697C58.526 56.8187 58.0564 57.2479 57.7329 57.4991C57.6912 57.7503 57.639 58.2108 57.8373 58.7342C58.1503 59.5925 58.9642 60.1368 59.7155 60.3043C61.1242 60.6078 62.2615 59.5506 62.5537 59.268C63.5554 58.326 64.1606 56.7454 63.6493 55.2277C63.2632 54.0972 62.4076 53.4796 62.0737 53.2598C61.6667 52.3178 61.2494 51.5851 60.9155 51.0617C59.9764 49.5858 59.3294 48.5914 58.1503 48.2251C57.4303 48.0053 56.773 48.089 56.3347 48.1937C55.6252 48.0367 55.0721 48.0995 54.6965 48.1937C52.9643 48.6228 51.6496 50.3604 51.2426 52.6109Z" fill="#5222D0"/>
<path opacity="0.08" d="M58.401 51.4487C58.3175 51.4801 58.4845 52.0244 58.5679 52.5687C58.5784 52.6419 58.7557 53.9922 58.2549 55.2797C57.6914 56.7241 56.5228 57.4987 56.0115 57.7918C56.3349 57.8651 56.6688 57.9383 56.9923 58.0221C57.0862 58.5873 57.1697 59.163 57.2636 59.7282C57.4723 59.477 57.6914 59.2258 57.9001 58.9746C57.994 59.1525 58.161 59.4142 58.4218 59.655C58.5053 59.7387 59.1105 60.283 60.0079 60.3563C61.0096 60.4505 61.7505 59.9062 62.1678 59.6026C62.4496 59.4038 63.2843 58.7757 63.6704 57.572C64.0878 56.2636 63.6808 55.1645 63.5556 54.861C63.42 55.3843 63.1382 56.1694 62.533 56.9335C62.387 57.1219 61.0722 58.7653 60.2583 58.4826C59.5592 58.2419 59.3192 56.5881 59.6636 54.4214C59.6844 54.4423 59.8514 54.6412 60.0914 54.6307C60.394 54.6202 60.5296 54.3167 60.5505 54.2853C60.6966 53.9713 60.5192 53.6258 60.3418 53.4374C60.1122 53.1862 59.7992 53.1443 59.7053 53.1443C59.5696 53.0083 59.3714 52.7989 59.1627 52.5268C58.6618 51.9092 58.474 51.4277 58.401 51.4487Z" fill="#353535"/>
<path opacity="0.09" d="M55.876 53.7725C55.9594 53.6365 56.4185 53.6051 56.5542 53.8877C56.6585 54.1075 56.5229 54.4006 56.3768 54.432C56.1472 54.4948 55.7612 53.9505 55.876 53.7725Z" fill="#353535"/>
<path opacity="0.09" d="M53.4654 58.2003C53.2462 58.5771 52.808 58.9226 52.3697 58.8807C52.1089 58.8598 51.8167 58.7028 50.8046 57.0803C50.4707 56.5465 50.2098 56.0859 50.0324 55.7824C49.9385 56.1278 49.8133 56.7454 49.9176 57.4885C49.9594 57.7816 50.0637 58.2841 50.3454 58.8284C50.5228 59.1738 50.9402 59.9379 51.8271 60.4194C52.088 60.5659 52.5471 60.8067 53.1628 60.8067C54.1958 60.7962 54.8636 60.1054 54.9992 59.9588C55.2392 59.7181 55.5836 59.3517 55.6357 58.776C55.6879 58.2213 55.427 57.7921 55.3644 57.7084C55.0514 57.2269 54.7175 57.2792 54.1853 56.8186C53.5071 56.2325 53.3193 55.5102 53.2358 55.5416C53.1106 55.6149 54.0601 57.1745 53.4654 58.2003Z" fill="#353535"/>
<path opacity="0.13" d="M59.622 53.7933C59.5594 53.7724 59.3715 54.4318 58.8289 55.3215C58.0568 56.5881 57.1073 57.415 56.4186 57.9174C56.8986 57.7814 57.7542 57.4673 58.4637 56.6928C59.5907 55.4786 59.7159 53.8247 59.622 53.7933Z" fill="#353535"/>
</svg>
