<svg width="558" height="389" viewBox="0 0 558 389" fill="none" xmlns="http://www.w3.org/2000/svg">
<g opacity="0.2">
<path d="M327.065 434.071C329.244 442.482 334.349 449.352 341.267 453.182C348.186 457.013 356.357 457.494 364.001 454.521C367.785 453.034 371.323 450.739 374.412 447.767C377.501 444.795 380.08 441.204 382.003 437.2C383.926 433.196 385.154 428.856 385.618 424.43C386.081 420.004 385.771 415.578 384.704 411.404C383.642 407.23 381.844 403.389 379.414 400.101C376.983 396.814 373.968 394.145 370.54 392.246C367.111 390.347 363.338 389.257 359.435 389.036C355.532 388.815 351.576 389.469 347.793 390.961C340.17 393.995 333.715 400.228 329.833 408.302C325.951 416.376 324.956 425.638 327.065 434.071Z" fill="#23B3E8"/>
<path d="M55.493 384.863C57.7286 393.067 62.8752 399.79 69.8112 403.569C76.7471 407.347 84.9102 407.874 92.5216 405.034C100.109 402.129 106.506 396.104 110.32 388.271C114.135 380.438 115.057 371.431 112.888 363.209C110.662 354.998 105.522 348.265 98.5884 344.476C91.6546 340.687 83.4894 340.151 75.8735 342.984C68.2725 345.886 61.8637 351.919 58.0455 359.764C54.2273 367.61 53.3097 376.633 55.493 384.863Z" fill="#F15832"/>
<path d="M352.984 330.62L239.235 479.135C237.375 481.573 235.114 483.607 232.582 485.12C230.051 486.632 227.299 487.593 224.485 487.948C221.671 488.316 218.848 488.071 216.18 487.227C213.512 486.383 211.051 484.957 208.938 483.03L205.786 480.175C203.666 478.254 201.934 475.871 200.69 473.161C199.446 470.452 198.715 467.469 198.537 464.385C198.36 461.301 198.739 458.175 199.655 455.186C200.571 452.198 202.004 449.406 203.873 446.97L319.77 295.613C322.966 291.449 327.466 288.764 332.282 288.146C337.099 287.529 341.837 289.03 345.457 292.32L351.071 297.415C353.188 299.338 354.917 301.722 356.159 304.432C357.401 307.141 358.132 310.123 358.309 313.206C358.487 316.29 358.108 319.414 357.194 322.402C356.28 325.39 354.85 328.182 352.984 330.62Z" fill="#4DBD98"/>
<path d="M268.726 322.154L118.851 518.134C115.222 522.872 110.116 525.935 104.649 526.654C101.947 527.014 99.2358 526.779 96.6758 525.962C94.1109 525.152 91.7451 523.781 89.7146 521.928L85.4096 517.902C83.3906 516.041 81.7353 513.751 80.5331 511.156C79.3493 508.542 78.6529 505.67 78.4827 502.701C78.3073 499.737 78.6716 496.731 79.5545 493.859C80.4442 490.987 81.8201 488.301 83.6066 485.949L235.87 286.788C237.349 284.847 239.145 283.226 241.156 282.018C243.166 280.81 245.352 280.04 247.587 279.75C249.822 279.461 252.062 279.658 254.179 280.331C256.296 281.004 258.248 282.14 259.924 283.672L267 290.105C269.037 291.952 270.701 294.243 271.898 296.85C273.095 299.456 273.801 302.325 273.975 305.294C274.149 308.263 273.788 311.274 272.913 314.153C272.038 317.033 270.666 319.726 268.875 322.078L268.726 322.154Z" fill="#F3E503"/>
<path opacity="0.15" d="M404.774 127.336L291.175 275.856C288.361 279.523 284.669 282.249 280.562 283.693C276.455 285.136 272.117 285.232 268.095 283.969C265.426 283.119 262.963 281.693 260.845 279.771L257.692 276.916C253.429 273.014 250.83 267.335 250.456 261.11C250.29 258.031 250.665 254.914 251.563 251.928C252.481 248.941 253.913 246.15 255.778 243.712L371.702 92.3681C373.275 90.3019 375.188 88.5773 377.33 87.2941C379.473 86.011 381.803 85.1947 384.185 84.8925C389.002 84.2707 393.744 85.7627 397.373 89.0421L402.981 94.1637C405.099 96.0867 406.828 98.4711 408.07 101.181C409.312 103.89 410.042 106.872 410.22 109.955C410.398 113.038 410.019 116.163 409.105 119.151C408.191 122.138 406.761 124.931 404.895 127.368L404.774 127.336Z" fill="#A5A4A4"/>
<path opacity="0.15" d="M488.758 382.575L375.029 531.063C373.172 533.508 370.91 535.549 368.377 537.067C365.843 538.584 363.087 539.547 360.269 539.901C357.448 540.277 354.618 540.03 351.946 539.175C349.28 538.319 346.817 536.893 344.695 534.976L341.542 532.121C337.274 528.23 334.679 522.547 334.329 516.321C334.147 513.24 334.524 510.117 335.437 507.131C336.35 504.145 337.783 501.355 339.651 498.923L455.561 347.574C458.756 343.418 463.25 340.734 468.061 340.111C472.872 339.488 477.609 340.976 481.235 344.249L486.868 349.377C491.139 353.265 493.737 358.946 494.092 365.171C494.446 371.397 492.528 377.657 488.758 382.575Z" fill="#A5A4A4"/>
<path opacity="0.15" d="M113.285 283.35L-0.444519 431.838C-2.30155 434.283 -4.56278 436.324 -7.09659 437.842C-9.6304 439.359 -12.3862 440.322 -15.2037 440.676C-18.0247 441.052 -20.855 440.805 -23.5271 439.95C-26.1936 439.094 -28.6558 437.669 -30.7777 435.752L-33.9313 432.896C-38.1993 429.005 -40.7937 423.322 -41.1441 417.096C-41.326 414.015 -40.9495 410.892 -40.0361 407.906C-39.1226 404.92 -37.6903 402.13 -35.8217 399.698L80.0878 248.349C83.2826 244.193 87.7768 241.509 92.5879 240.886C97.3991 240.263 102.136 241.751 105.762 245.024L111.395 250.152C115.666 254.04 118.264 259.721 118.619 265.946C118.973 272.172 117.055 278.432 113.285 283.35Z" fill="#A5A4A4"/>
<path opacity="0.15" d="M93.8008 415.298L-19.9289 563.785C-21.7859 566.231 -24.0472 568.272 -26.581 569.789C-29.1148 571.307 -31.8705 572.27 -34.6881 572.624C-37.5091 573 -40.3394 572.753 -43.0114 571.897C-45.6779 571.042 -48.1402 569.616 -50.2621 567.699L-53.4157 564.844C-57.6837 560.952 -60.278 555.269 -60.6285 549.044C-60.8104 545.963 -60.4339 542.839 -59.5204 539.853C-58.607 536.867 -57.1747 534.078 -55.3061 531.646L60.6034 380.297C63.7982 376.14 68.2924 373.457 73.1036 372.834C77.9147 372.211 82.6512 373.698 86.2774 376.971L91.9105 382.1C96.1815 385.987 98.78 391.668 99.1345 397.894C99.489 404.119 97.5704 410.379 93.8008 415.298Z" fill="#A5A4A4"/>
<path opacity="0.15" d="M273.516 196.823L159.787 345.311C157.93 347.756 155.668 349.797 153.135 351.315C150.601 352.832 147.845 353.795 145.028 354.149C142.207 354.525 139.376 354.278 136.704 353.422C134.038 352.567 131.575 351.141 129.454 349.224L126.3 346.369C122.032 342.478 119.438 336.795 119.087 330.569C118.905 327.488 119.282 324.365 120.195 321.379C121.109 318.393 122.541 315.603 124.41 313.171L240.319 161.822C243.514 157.665 248.008 154.982 252.819 154.359C257.63 153.736 262.367 155.224 265.993 158.497L271.626 163.625C275.897 167.513 278.496 173.194 278.85 179.419C279.205 185.645 277.286 191.905 273.516 196.823Z" fill="#A5A4A4"/>
<path opacity="0.15" d="M528.118 185.664L414.388 334.151C412.531 336.597 410.27 338.638 407.736 340.155C405.202 341.673 402.447 342.636 399.629 342.99C396.808 343.366 393.978 343.119 391.306 342.263C388.639 341.408 386.177 339.982 384.055 338.065L380.902 335.21C376.634 331.318 374.039 325.635 373.689 319.41C373.507 316.329 373.883 313.205 374.797 310.219C375.71 307.233 377.143 304.444 379.011 302.012L494.921 150.663C498.115 146.506 502.61 143.823 507.421 143.2C512.232 142.577 516.969 144.064 520.595 147.337L526.228 152.466C530.499 156.353 533.097 162.034 533.452 168.26C533.806 174.485 531.888 180.745 528.118 185.664Z" fill="#A5A4A4"/>
</g>
</svg>
