<svg width="124" height="28" viewBox="0 0 124 28" fill="none" xmlns="http://www.w3.org/2000/svg">
<path d="M57.2676 21.5875L57.7354 18.5345H50.1925L58.4412 6.40521L58.392 6.19009H46.0887L45.6208 9.25137H53.0078L44.8 21.3476L44.8493 21.5875H57.2676ZM70.7118 19.5522L68.6434 17.7237C68.2388 18.1387 67.7519 18.4631 67.2144 18.6755C66.677 18.8879 66.1011 18.9837 65.5245 18.9565C64.6876 18.9712 63.8779 18.6566 63.2674 18.0794C62.9374 17.7166 62.718 17.2656 62.6354 16.7805H71.1632V16.0441C71.2263 15.2183 71.1189 14.3883 70.8476 13.6064C70.5764 12.8246 70.1472 12.108 69.5873 11.5018C69.0238 10.9472 68.3539 10.5143 67.6186 10.2298C66.8833 9.94523 66.0981 9.81501 65.3111 9.84708C63.6888 9.8327 62.126 10.4628 60.961 11.6011C60.4203 12.1607 59.9964 12.8239 59.7145 13.5515C59.4325 14.2792 59.2982 15.0564 59.3195 15.8373C59.2943 16.6199 59.4267 17.3995 59.7089 18.129C59.991 18.8585 60.417 19.5228 60.961 20.0817C61.5588 20.6549 62.2633 21.1028 63.034 21.3997C63.8046 21.6965 64.626 21.8363 65.4506 21.8109C66.4398 21.8587 67.4268 21.6803 68.3379 21.2892C69.249 20.898 70.0606 20.3042 70.7118 19.5522ZM63.3248 13.2476C63.5912 12.9951 63.9047 12.7985 64.2471 12.6692C64.5895 12.54 64.9539 12.4806 65.3193 12.4947C65.6695 12.4818 66.0188 12.5404 66.346 12.6669C66.6732 12.7935 66.9717 12.9853 67.2235 13.231C67.5869 13.6098 67.8175 14.0979 67.8801 14.621H62.5943C62.698 14.1006 62.9522 13.6227 63.3248 13.2476ZM84.2381 19.5522L82.1698 17.7237C81.7642 18.1398 81.2759 18.4648 80.737 18.6772C80.198 18.8897 79.6206 18.9848 79.0426 18.9565C78.2057 18.9712 77.3961 18.6566 76.7855 18.0794C76.4555 17.7166 76.2361 17.2656 76.1535 16.7805H84.6649V16.0441C84.73 15.2181 84.6235 14.3876 84.3522 13.6054C84.0808 12.8233 83.6506 12.1068 83.089 11.5018C82.5255 10.9472 81.8555 10.5143 81.1202 10.2298C80.3849 9.94523 79.5997 9.81501 78.8128 9.84708C77.1927 9.8322 75.6324 10.4626 74.4709 11.6011C73.9279 12.159 73.5025 12.8219 73.2204 13.55C72.9383 14.278 72.8053 15.056 72.8294 15.8373C72.8008 16.6203 72.9317 17.4009 73.214 18.1309C73.4963 18.8609 73.9241 19.5248 74.4709 20.0817C75.0636 20.6495 75.7617 21.0938 76.525 21.3891C77.2884 21.6844 78.1021 21.825 78.9195 21.8026C79.9107 21.854 80.9005 21.6782 81.8146 21.2884C82.7287 20.8986 83.5433 20.305 84.197 19.5522H84.2381ZM76.8511 13.2476C77.1182 12.9962 77.4319 12.8003 77.7741 12.6712C78.1163 12.542 78.4804 12.482 78.8456 12.4947C79.1959 12.4813 79.5452 12.5397 79.8725 12.6663C80.1998 12.7928 80.4982 12.985 80.7498 13.231C81.1157 13.609 81.3491 14.0971 81.4146 14.621H76.1207C76.2117 14.1083 76.445 13.6321 76.7937 13.2476H76.8511ZM96.0736 21.5875H98.618V5.04004H95.3349V11.2702C94.9138 10.8203 94.4044 10.4637 93.8392 10.223C93.274 9.98229 92.6653 9.86272 92.0518 9.8719C91.3055 9.84399 90.5614 9.97055 89.8654 10.2438C89.1695 10.517 88.5364 10.9311 88.0054 11.4605C86.8958 12.6548 86.2784 14.2299 86.2784 15.8662C86.2784 17.5026 86.8958 19.0776 88.0054 20.272C88.5345 20.7954 89.1643 21.2042 89.8559 21.4731C90.5476 21.742 91.2864 21.8654 92.0272 21.8357C92.7748 21.8601 93.516 21.6893 94.179 21.34C94.8419 20.9906 95.4041 20.4745 95.8109 19.8418L96.0736 21.5875ZM92.5525 18.791C92.1541 18.8122 91.7556 18.7515 91.3812 18.6124C91.0069 18.4734 90.6646 18.2589 90.3751 17.9822C90.0857 17.7054 89.8552 17.3722 89.6977 17.0027C89.5401 16.6332 89.4589 16.2353 89.4589 15.8331C89.4589 15.431 89.5401 15.033 89.6977 14.6636C89.8552 14.2941 90.0857 13.9608 90.3751 13.6841C90.6646 13.4073 91.0069 13.1929 91.3812 13.0538C91.7556 12.9148 92.1541 12.854 92.5525 12.8753C92.9509 12.854 93.3494 12.9148 93.7237 13.0538C94.098 13.1929 94.4404 13.4073 94.7298 13.6841C95.0193 13.9608 95.2498 14.2941 95.4073 14.6636C95.5649 15.033 95.6461 15.431 95.6461 15.8331C95.6461 16.2353 95.5649 16.6332 95.4073 17.0027C95.2498 17.3722 95.0193 17.7054 94.7298 17.9822C94.4404 18.2589 94.098 18.4734 93.7237 18.6124C93.3494 18.7515 92.9509 18.8122 92.5525 18.791ZM109.255 21.5875H111.75V14.8113C111.767 14.1502 111.651 13.4925 111.408 12.8781C111.166 12.2637 110.802 11.7054 110.339 11.2371C109.238 10.2633 107.804 9.76158 106.341 9.83881C104.441 9.81086 102.591 10.4483 101.105 11.6425L102.722 13.9426C103.627 13.1213 104.788 12.6444 106.005 12.594C106.706 12.5427 107.399 12.7716 107.934 13.231C108.172 13.4893 108.35 13.7978 108.455 14.1342C108.56 14.4705 108.589 14.8261 108.541 15.1754C107.584 14.836 106.577 14.6598 105.562 14.6541C103.001 14.6541 100.957 15.9779 100.957 18.2118C100.957 20.4457 102.714 21.7861 105.233 21.7861C105.94 21.7941 106.642 21.6575 107.295 21.3844C107.948 21.1114 108.54 20.7076 109.034 20.1975L109.255 21.5875ZM104.224 18.0794C104.224 17.2521 104.995 16.7722 106.169 16.7722C106.98 16.781 107.783 16.9351 108.541 17.2273V18.4352C107.802 18.9897 106.901 19.2807 105.98 19.2626C104.921 19.246 104.224 18.8158 104.224 18.0794ZM118.431 14.5466C117.446 14.3563 117.069 14.0998 117.069 13.5537C117.069 13.0076 117.726 12.5112 118.645 12.5112C119.799 12.5135 120.923 12.8779 121.862 13.5537L122.937 11.0716C121.587 10.2477 120.035 9.82073 118.456 9.83881C115.747 9.83881 113.892 11.3612 113.892 13.4875C113.892 15.6139 115.255 16.5405 117.233 16.8963L118.71 17.1859C119.466 17.3265 119.909 17.583 119.909 18.0877C119.909 18.7744 119.203 19.1716 118.169 19.1716C116.985 19.1531 115.831 18.8006 114.836 18.1539L113.613 20.6857C115.1 21.4396 116.742 21.8307 118.407 21.8274C121.222 21.8274 123.2 20.3133 123.2 18.1539C123.2 16.1682 121.862 15.2416 119.72 14.7948L118.431 14.5466Z" fill="white"/>
<path d="M30.7562 14.1365C31.2451 14.8837 32.0073 15.4094 32.8794 15.6007C33.7515 15.7921 34.6638 15.6338 35.4205 15.1599C36.1653 14.6711 36.6893 13.9103 36.8805 13.0401C37.0717 12.17 36.9149 11.2595 36.4438 10.5034C35.9549 9.75625 35.1926 9.23055 34.3205 9.03921C33.4485 8.84787 32.5362 9.00614 31.7795 9.48004C31.0347 9.96885 30.5107 10.7297 30.3195 11.5998C30.1283 12.47 30.285 13.3804 30.7562 14.1365Z" fill="#23B3E8"/>
<path d="M0.559138 16.2459C1.08705 17.0541 1.91034 17.6235 2.85279 17.8324C3.79524 18.0412 4.782 17.8729 5.60192 17.3634C6.41262 16.8354 6.98382 16.0104 7.19279 15.0657C7.40175 14.1211 7.2318 13.1321 6.71944 12.3114C6.18996 11.5022 5.36432 10.9329 4.41976 10.7257C3.4752 10.5185 2.48704 10.6899 1.66745 11.2031C0.860798 11.7325 0.293237 12.5564 0.0861289 13.4988C-0.12098 14.4411 0.0487889 15.4271 0.559138 16.2459Z" fill="#F15832"/>
<path d="M30.5788 3.62184L22.7512 20.5022C22.619 20.7748 22.4381 21.0207 22.2173 21.2276C21.9935 21.4359 21.7312 21.5983 21.4452 21.7056C21.158 21.8068 20.854 21.8515 20.5499 21.8375C20.2453 21.8281 19.946 21.7551 19.671 21.6232L19.2604 21.4336C18.9846 21.3039 18.7364 21.122 18.5293 20.8978C18.3241 20.6729 18.1651 20.4096 18.0612 20.1231C17.9578 19.8353 17.9104 19.5303 17.9215 19.2246C17.9388 18.9201 18.0112 18.6213 18.1351 18.3427L26.1188 1.14089C26.2266 0.906039 26.3796 0.694894 26.569 0.519601C26.7585 0.344309 26.9805 0.208325 27.2225 0.119468C27.4645 0.0306122 27.7216 -0.00936303 27.979 0.00184326C28.2364 0.0130495 28.4891 0.0752172 28.7225 0.184767L29.4618 0.530946C29.7381 0.65938 29.9865 0.841436 30.1924 1.06662C30.3983 1.2918 30.5578 1.55567 30.6616 1.84299C30.7655 2.13031 30.8116 2.43542 30.7974 2.74072C30.7832 3.04602 30.7089 3.34548 30.5788 3.62184Z" fill="#4DBD98"/>
<path d="M21.0525 4.64153L11.2604 26.7148C11.1438 26.977 10.9799 27.213 10.7778 27.4097C10.5722 27.6092 10.3316 27.7647 10.0695 27.8675C9.80725 27.9645 9.52999 28.0089 9.25216 27.9984C8.98311 27.9799 8.71942 27.9107 8.47377 27.794L7.93669 27.5324C7.68669 27.4069 7.46207 27.232 7.27508 27.0173C7.08668 26.8035 6.94076 26.5524 6.84586 26.2787C6.75097 26.0049 6.709 25.7141 6.72241 25.4231C6.73468 25.1397 6.80084 24.8617 6.91701 24.6056L16.8414 2.18894C16.9376 1.96814 17.0747 1.76964 17.2447 1.60501C17.4146 1.44037 17.6141 1.31288 17.8314 1.22996C18.0487 1.14703 18.2795 1.11033 18.5105 1.12198C18.7414 1.13364 18.9678 1.19341 19.1766 1.29784L20.0561 1.72295C20.5647 1.97156 20.9586 2.42199 21.1512 2.97533C21.3439 3.52868 21.3195 4.1397 21.0836 4.67423L21.0525 4.64153Z" fill="#F3E503"/>
</svg>
