<?xml version="1.0" standalone="no"?>
<!DOCTYPE svg PUBLIC "-//W3C//DTD SVG 20010904//EN"
 "http://www.w3.org/TR/2001/REC-SVG-20010904/DTD/svg10.dtd">
<svg version="1.0" xmlns="http://www.w3.org/2000/svg"
 width="1056.000000pt" height="1056.000000pt" viewBox="0 0 1056.000000 1056.000000"
 preserveAspectRatio="xMidYMid meet">
<metadata>
Created by potrace 1.11, written by Peter Selinger 2001-2013
</metadata>
<g transform="translate(0.000000,1056.000000) scale(0.100000,-0.100000)"
fill="#000000" stroke="none">
<path d="M7970 9346 c-5 -5 -10 -7 -10 -4 0 3 -30 -5 -67 -18 -75 -27 -148
-71 -200 -121 -44 -41 -113 -132 -113 -149 0 -7 -6 -19 -13 -26 -7 -7 -14 -16
-15 -20 -2 -9 -81 -173 -196 -410 -42 -86 -76 -162 -76 -167 0 -6 -4 -11 -10
-11 -5 0 -10 -4 -10 -10 0 -5 -43 -99 -96 -207 -53 -109 -107 -223 -121 -253
-14 -30 -31 -58 -37 -62 -6 -4 -8 -8 -4 -8 4 0 -18 -51 -49 -112 -75 -152
-216 -442 -218 -448 -1 -6 -53 -114 -205 -425 -62 -126 -148 -304 -192 -395
-44 -91 -113 -233 -154 -317 -41 -83 -74 -155 -74 -160 0 -5 -6 -15 -12 -22
-7 -6 -13 -15 -14 -19 0 -4 -20 -47 -44 -97 -23 -49 -42 -92 -41 -94 2 -2 -1
-7 -6 -10 -5 -3 -17 -24 -27 -46 -11 -22 -45 -92 -77 -157 -31 -64 -55 -118
-53 -121 2 -2 -2 -10 -11 -17 -8 -7 -15 -16 -15 -20 0 -5 -53 -118 -119 -252
-65 -134 -148 -304 -184 -378 -36 -74 -112 -232 -169 -350 -159 -326 -180
-370 -182 -383 -1 -7 -8 -28 -14 -47 -7 -20 -13 -51 -15 -70 -2 -20 -5 -40 -8
-45 -10 -21 5 -168 22 -225 11 -35 29 -81 52 -130 18 -39 80 -122 126 -167 39
-40 121 -102 131 -99 3 0 19 -9 37 -22 17 -12 35 -22 40 -22 5 0 36 -13 69
-29 152 -73 334 -98 489 -65 75 15 270 107 279 130 3 8 10 14 16 14 31 0 144
149 197 260 108 223 204 425 233 485 19 39 39 73 44 77 6 4 8 8 3 8 -4 0 8 30
27 68 58 113 196 404 196 413 0 5 4 9 10 9 5 0 9 3 8 8 -2 7 15 42 182 387 51
105 114 235 141 291 27 56 49 106 49 113 0 6 5 11 10 11 6 0 10 4 10 9 0 5 29
70 65 143 36 73 65 139 65 146 0 6 5 12 10 12 6 0 10 9 10 20 0 11 5 20 10 20
6 0 10 5 10 12 0 7 36 85 80 175 44 90 80 167 80 171 0 5 6 14 13 20 6 7 12
16 12 20 0 4 16 39 35 77 19 39 35 72 35 75 1 3 39 82 85 175 182 375 240 496
240 505 0 6 5 10 10 10 6 0 10 6 10 13 0 6 18 48 40 92 22 44 40 86 40 93 0 6
5 12 10 12 6 0 10 4 10 9 0 5 39 90 86 188 184 382 214 443 289 598 42 88 102
210 132 270 58 115 79 177 89 260 3 28 7 56 9 63 3 6 1 12 -3 12 -4 0 -6 17
-5 38 1 35 -12 120 -24 152 -3 8 -7 20 -8 25 -15 66 -86 175 -165 254 -57 57
-245 168 -315 185 -5 2 -41 17 -80 35 -38 18 -101 39 -140 48 -76 16 -239 15
-255 -1z"/>
<path d="M5325 9037 c-22 -5 -47 -12 -55 -15 -8 -3 -21 -6 -29 -8 -8 -1 -41
-16 -75 -33 -80 -39 -206 -159 -206 -196 0 -8 -4 -15 -9 -15 -6 0 -42 -69 -56
-110 -2 -7 -34 -76 -78 -170 -19 -41 -44 -95 -55 -120 -11 -25 -55 -119 -97
-210 -42 -91 -81 -178 -87 -195 -6 -16 -17 -37 -24 -45 -7 -8 -13 -18 -14 -22
-1 -12 -38 -95 -135 -303 -13 -27 -38 -81 -55 -120 -18 -38 -73 -158 -122
-265 -104 -224 -121 -263 -123 -270 -1 -3 -23 -50 -49 -105 -26 -55 -65 -139
-86 -187 -22 -48 -43 -95 -49 -105 -10 -19 -35 -72 -120 -263 -28 -63 -56
-122 -61 -130 -6 -8 -13 -22 -16 -30 -3 -8 -21 -48 -40 -88 -19 -39 -34 -74
-34 -77 0 -2 -27 -61 -60 -131 -33 -69 -60 -128 -60 -130 0 -2 -16 -36 -35
-75 -19 -40 -35 -78 -35 -86 0 -7 -4 -13 -10 -13 -5 0 -10 -6 -10 -13 0 -8
-16 -46 -35 -86 -19 -39 -35 -73 -35 -76 0 -2 -21 -48 -46 -102 -25 -54 -60
-127 -76 -163 -17 -36 -37 -77 -45 -92 -8 -16 -11 -28 -6 -28 4 0 4 -4 -2 -8
-12 -8 -17 -18 -122 -252 -18 -41 -40 -87 -48 -101 -8 -14 -12 -29 -8 -33 3
-3 1 -6 -5 -6 -7 0 -12 -4 -12 -9 0 -5 -16 -45 -36 -88 -32 -69 -50 -108 -125
-269 -10 -22 -19 -46 -19 -52 0 -7 -4 -12 -10 -12 -5 0 -9 -3 -8 -7 1 -5 -9
-30 -21 -58 -31 -65 -77 -166 -108 -235 -14 -30 -40 -86 -58 -125 -18 -38 -48
-104 -66 -145 -18 -41 -37 -78 -42 -81 -5 -3 -8 -8 -7 -10 3 -8 -27 -76 -131
-296 -21 -46 -39 -85 -39 -87 0 -2 -27 -61 -60 -131 -33 -70 -60 -128 -60
-131 0 -2 -18 -39 -39 -83 -21 -44 -36 -82 -33 -85 3 -3 0 -6 -6 -6 -7 0 -12
-6 -12 -12 -1 -7 -9 -31 -20 -53 -11 -22 -19 -46 -20 -52 0 -7 -4 -13 -10 -13
-5 0 -10 -7 -10 -15 0 -8 -8 -29 -18 -47 -28 -51 -92 -201 -97 -226 -2 -12 -6
-26 -9 -31 -5 -8 -19 -123 -17 -146 0 -5 2 -66 4 -135 2 -69 9 -145 16 -170
17 -59 90 -210 102 -210 5 0 9 -6 9 -14 0 -8 33 -44 72 -81 59 -54 100 -79
213 -134 198 -96 216 -102 361 -106 103 -4 185 12 274 52 38 18 108 61 128 80
7 7 19 16 26 20 6 5 36 37 66 73 48 58 75 108 163 300 23 52 173 378 238 518
16 35 29 68 29 73 0 5 4 9 9 9 5 0 12 12 16 27 3 15 27 70 52 123 43 91 59
126 109 235 13 28 46 99 73 159 28 59 51 110 51 111 0 2 23 52 51 112 28 59
60 128 71 153 12 25 40 87 64 138 24 52 44 100 44 108 0 8 5 14 10 14 6 0 10
4 10 10 0 8 12 36 90 205 100 216 150 327 150 335 0 6 5 10 10 10 6 0 10 6 10
13 0 8 14 42 30 78 54 113 87 185 213 459 116 255 135 294 174 380 50 108 152
329 171 370 9 19 15 38 14 43 -1 4 3 7 8 7 6 0 10 4 10 9 0 9 19 51 95 216 36
80 75 165 107 235 16 36 38 83 48 105 10 22 21 47 24 55 3 8 10 22 15 30 20
33 84 176 84 188 0 6 4 12 9 12 4 0 8 4 8 9 0 5 17 47 39 93 65 140 91 198 92
206 0 4 6 13 12 21 6 7 12 18 13 25 2 9 117 261 239 521 65 139 79 170 80 175
1 3 13 30 27 60 14 30 38 82 53 115 51 109 92 199 145 310 77 162 83 188 84
343 1 61 4 112 8 112 4 0 5 6 3 13 -2 6 -6 39 -9 72 -4 65 -32 172 -50 194 -6
8 -9 16 -8 18 15 17 -150 233 -178 233 -4 0 -10 3 -12 8 -6 13 -82 60 -143 88
-33 15 -105 49 -161 75 -115 54 -166 70 -244 75 -30 2 -59 5 -65 7 -5 2 -28
-1 -50 -6z"/>
<path d="M997 6324 c-1 -1 -30 -5 -65 -8 -221 -22 -442 -120 -596 -265 -63
-60 -167 -187 -159 -195 4 -3 2 -6 -4 -6 -12 0 -104 -182 -118 -232 -2 -5 -3
-9 -5 -10 -1 -2 -3 -10 -5 -18 -1 -8 -7 -33 -13 -55 -38 -140 -40 -328 -7
-490 23 -112 86 -259 155 -360 47 -69 148 -172 225 -230 104 -78 268 -159 365
-180 3 -1 19 -4 35 -8 54 -13 80 -17 122 -21 23 -3 47 -7 53 -11 5 -3 10 -1
10 5 0 6 5 8 11 5 12 -8 89 -12 89 -5 0 3 19 5 43 6 54 1 131 12 160 23 12 5
27 9 32 9 23 2 164 58 215 85 113 60 273 200 329 287 9 14 23 33 32 43 17 18
86 153 113 221 18 43 46 147 51 186 16 122 19 227 10 290 -3 25 -8 59 -10 75
-20 138 -92 308 -185 436 -49 67 -216 229 -237 229 -3 0 -14 6 -22 14 -9 8
-54 34 -101 59 -117 61 -263 104 -385 113 -115 9 -136 10 -138 8z"/>
<path d="M9544 6161 c-2 -3 -23 -5 -47 -6 -23 -1 -55 -5 -72 -9 -16 -3 -39 -8
-50 -10 -114 -24 -278 -103 -374 -181 -35 -28 -141 -133 -141 -140 0 -5 -24
-35 -46 -59 -22 -23 -93 -164 -118 -234 -29 -83 -40 -126 -50 -212 -3 -19 -5
-37 -6 -40 -1 -3 -1 -25 -1 -50 0 -104 13 -205 36 -285 26 -88 91 -237 106
-243 5 -2 9 -10 9 -18 0 -8 4 -14 8 -14 4 0 16 -14 26 -31 28 -47 152 -168
224 -217 123 -86 314 -157 436 -164 25 -2 46 -5 46 -8 0 -11 206 4 271 20 24
6 52 12 62 15 47 11 187 70 232 98 49 30 124 89 165 128 52 50 130 143 130
155 0 4 7 15 15 24 37 41 114 219 130 301 20 102 24 137 23 224 0 55 -4 123
-9 150 -5 28 -12 66 -15 85 -3 19 -9 40 -14 45 -4 6 -10 24 -14 40 -12 48 -62
151 -108 218 -41 60 -201 227 -218 227 -5 0 -15 6 -22 13 -16 17 -138 88 -138
81 0 -2 -10 2 -22 10 -53 33 -281 91 -336 85 -9 -1 -19 0 -22 1 -11 4 -92 5
-96 1z"/>
</g>
</svg>
