<svg width="150" height="194" viewBox="0 0 150 194" fill="none" xmlns="http://www.w3.org/2000/svg">
<path fill-rule="evenodd" clip-rule="evenodd" d="M145.904 107.373C144.081 107.551 142.258 107.728 140.436 107.906C131.707 108.567 122.981 109.948 114.319 110.776C114.103 110.428 113.681 110.486 113.425 110.728C112.56 110.653 111.592 109.997 110.809 110.679C110.783 110.675 110.758 110.671 110.732 110.669C109.338 108.016 108.374 105.186 107.439 102.353C106.842 100.611 106.039 98.9248 104.555 97.7552C102.022 96.012 96.2183 92.4771 93.244 92.6257C93.1947 92.0977 92.9465 91.5536 92.5389 91.202C93.4372 89.6835 89.8453 88.6928 89.5919 88.8688C89.7543 83.7957 87.3474 79.39 82.0401 78.3798C77.2854 77.3975 70.5226 77.2325 67.9655 82.1589C67.6844 82.1275 64.811 82.1127 64.533 82.1436C64.1008 81.6008 59.3539 86.744 61.2994 88.5346C43.9055 96.1632 34.0152 95.253 29.2009 116.699C28.55 118.714 28.5026 120.918 27.8153 122.888C25.3702 128.549 23.387 134.577 22.8934 140.736C21.7013 141.039 21.5642 143.123 22.945 143.424C23.4724 143.539 23.9135 143.697 24.2981 143.995C23.9975 149.043 25.2288 160.573 26.0046 160.538C27.5865 165.529 34.6427 166.938 39.6382 165.184C38.7771 166.79 39.6382 167.8 39.6382 168.658C57.6135 169.333 77.2676 168.944 95.2379 169.869C97.5366 169.837 99.9544 170.429 102.222 170.088C103.604 169.759 103.607 167.604 102.204 167.337L108.333 166.018C108.196 165.966 110.859 164.21 112.871 160.928C114.745 157.257 113.47 152.826 114.319 148.832C120.949 148.295 127.689 148.065 134.247 146.952C135.141 149.604 139.011 146.432 140.241 145.156C140.24 145.154 140.238 145.152 140.237 145.15C140.832 144.988 141.31 144.435 141.326 143.78C141.743 143.189 141.831 142.355 141.43 141.783C143.266 131.284 146.064 120.563 147.075 109.965C147.432 109.887 147.769 109.731 148.055 109.492L148.031 109.469C148.515 108.934 148.609 108.012 147.803 107.558C147.153 107.191 146.61 107.305 145.904 107.373Z" fill="white"/>
<path fill-rule="evenodd" clip-rule="evenodd" d="M68.2971 81.0147C68.8387 79.6653 70.6694 80.1899 70.4653 81.6075C70.3432 82.4566 69.8741 83.3535 69.4528 84.0977C69.1097 84.7035 68.7183 85.2948 68.1877 85.7488C69.1323 86.6225 70.1127 87.4643 71.118 88.2636C72.2149 89.1357 73.3684 89.9395 74.5607 90.6783C75.6062 91.3262 76.6989 91.9002 77.6845 92.6395C78.6008 93.3268 79.4356 94.1535 79.8603 95.2325C80.3129 96.3817 80.1162 97.5684 79.783 98.7167L79.7447 98.8465C79.4043 99.9842 78.815 101.356 79.6321 102.428C80.0481 102.973 80.6529 103.36 81.175 103.796C81.6391 104.184 82.0748 104.605 82.4743 105.058C83.3454 106.046 84.054 107.157 84.5011 108.394L84.5411 108.507C84.9243 109.603 85.2044 110.945 84.6866 112.021C84.538 112.329 84.0588 112.229 83.9756 111.929C83.7875 111.249 83.7973 110.536 83.6395 109.846C83.4754 109.129 83.2022 108.448 82.8455 107.803C82.1552 106.557 81.2204 105.492 80.1159 104.591L79.7853 104.325C78.9237 103.624 78.1321 102.88 77.9572 101.72C77.7701 100.479 78.2717 99.2962 78.5943 98.1213C78.8191 97.3025 78.8924 96.5177 78.6495 95.7777C78.3528 96.258 77.9479 96.7138 77.6277 97.1204C76.9898 97.9304 76.346 98.7356 75.7038 99.5422C75.0455 100.369 74.4033 101.209 73.7918 102.071C73.5183 102.457 73.2477 102.845 72.978 103.233C72.7751 103.525 72.4923 103.817 72.2712 104.114C72.3249 104.273 72.3209 104.457 72.2235 104.587C71.0511 106.158 69.3832 102.881 68.9482 102.053C68.0624 100.367 67.4031 98.5757 66.5143 96.8901C65.5934 95.1427 64.5447 93.4419 63.3759 91.8466C62.6689 90.8817 61.8765 89.9753 61.2298 88.9797C59.7061 90.3495 57.7011 91.2678 55.8595 92.1004C53.8361 93.0152 51.734 93.7625 49.6594 94.5561L49.0466 94.792C45.472 96.1752 41.8101 97.6947 38.839 100.151C35.3476 103.038 33.2822 107.062 31.7445 111.229C29.9744 116.026 28.5099 120.952 27.1448 125.875C26.4462 128.394 25.7834 130.924 25.1603 133.463C24.6111 135.699 24.156 137.958 23.5203 140.171C24.8095 140.126 26.2798 140.621 27.3804 140.764C32.3966 141.415 37.3452 142.453 42.0811 144.249C42.6661 144.471 42.8353 145.05 42.7079 145.52C43.0453 145.425 43.3824 145.33 43.7197 145.236C43.3501 144.674 43.5265 143.671 43.5556 143.048L43.5574 143.005C43.5872 142.176 43.678 141.346 43.7368 140.518C43.8489 138.94 43.9948 137.374 44.1887 135.805L44.2382 135.413C44.458 133.706 44.6205 131.989 44.8603 130.285L44.8887 130.09C44.7737 129.654 44.6398 129.223 44.4992 128.795C44.1247 127.652 43.5962 126.577 43.133 125.471C43.0783 125.341 43.2655 125.266 43.3529 125.344C44.1374 126.044 44.7605 126.932 45.2611 127.86C45.2698 127.816 45.2775 127.772 45.2865 127.728L45.3437 127.45C45.4845 126.77 45.6559 126.055 46.0765 125.503C46.1213 125.445 46.2099 125.432 46.2523 125.503C46.6548 126.179 46.6999 127.034 46.7618 127.803C46.8319 128.672 46.8407 129.552 46.8283 130.424C46.8042 132.128 46.683 133.836 46.5866 135.537C46.4919 137.209 46.306 138.859 46.0664 140.514L46.0208 140.825C45.9037 141.612 45.8078 142.41 45.6534 143.192L45.6097 143.405C45.5271 143.793 45.4763 144.34 45.3119 144.795C49.5417 143.625 53.778 142.482 58.0223 141.359C61.0899 140.548 64.1607 139.748 67.2302 138.943C67.3921 138.654 67.5938 138.384 67.8455 138.142C68.6748 137.346 69.7738 136.991 70.7818 137.604C70.8637 137.654 70.8706 137.781 70.7818 137.829C70.5886 137.934 70.3951 138.041 70.2051 138.153L72.0482 137.658C73.4258 137.288 74.8199 136.825 76.23 136.567C78.8271 135.297 81.6204 134.377 84.3562 133.468L84.6786 133.36C86.0795 132.886 87.5284 132.356 88.9757 132.094C90.0352 131.901 91.279 132.133 91.705 133.209C92.2444 133.562 92.7519 133.976 93.2417 134.383C93.5958 134.678 93.9352 134.991 94.2803 135.296L94.3439 135.351C94.6261 135.594 94.8496 135.756 94.9189 136.143C94.9546 136.342 94.8267 136.612 94.5785 136.585C93.8189 136.505 93.2012 135.632 92.6861 135.111C92.2881 134.708 91.8869 134.291 91.5237 133.848C91.3119 133.963 91.0216 133.942 90.8868 133.689C90.1879 132.377 88.2732 133.286 87.2137 133.597L85.6961 134.043C84.9373 134.266 84.1788 134.49 83.4216 134.718C81.3406 135.344 79.2698 136.045 77.1698 136.621C77.3577 136.826 77.3318 137.19 76.9749 137.328C75.3311 137.968 73.5278 138.299 71.8201 138.737C70.7419 139.015 69.6644 139.293 68.5872 139.574C68.4025 139.871 68.2697 140.206 68.2138 140.597C68.0082 142.033 68.4046 143.691 68.7908 145.08L68.849 145.287C69.1665 146.404 69.6335 147.773 70.6055 148.479C70.8428 148.651 71.1449 148.77 71.4495 148.797C73.3522 147.826 75.2548 146.856 77.1586 145.886C77.5112 145.707 77.8371 145.95 77.9162 146.239C78.5875 146.13 79.2572 145.958 79.8672 145.752C80.8922 145.407 81.6925 144.749 82.6534 144.294C84.5126 143.413 86.4112 144.495 88.0759 145.317L88.4595 145.504C89.206 145.863 90.759 146.553 91.1172 145.571C91.4637 144.621 90.3684 143.605 89.661 143.178C88.8178 142.668 87.836 142.395 86.883 142.168C86.3389 142.038 85.7881 141.932 85.234 141.855C84.6055 141.767 83.9563 141.78 83.3512 141.578C83.0505 141.478 83.0043 141.004 83.3512 140.926C84.2827 140.716 85.3945 140.945 86.3666 141.18L86.8747 141.304C87.8541 141.542 88.8429 141.841 89.735 142.316C90.3837 142.662 91.0684 143.187 91.5156 143.83C91.904 143.472 92.3874 143.485 92.891 143.617L93.1643 143.693C93.6156 143.817 93.9814 143.902 94.4206 143.816C94.4793 143.499 94.5388 143.182 94.6025 142.865C95.2283 139.751 95.9146 136.648 96.6719 133.561C97.9782 128.238 99.4897 122.972 101.194 117.761L101.365 117.24C101.758 116.048 102.074 114.749 102.708 113.654C103.307 112.619 104.267 112.023 105.408 111.707C106.702 111.348 108.063 111.161 109.383 110.919C109.678 110.865 109.973 110.814 110.268 110.761C110.019 110.314 109.833 109.808 109.665 109.42L109.636 109.352C109.276 108.539 108.953 107.711 108.64 106.878L108.407 106.252C107.843 104.745 107.261 103.262 106.469 101.852C105.634 100.369 104.528 99.1557 103.148 98.1518C100.335 96.1047 96.9446 95.0606 94.2162 92.8729C94.1044 92.7833 94.2478 92.6301 94.3612 92.6868C96.2035 93.6045 98.1923 94.2285 100.108 94.9756L100.486 95.1235C102.001 95.7188 103.539 96.3668 104.85 97.3305C106.311 98.4051 107.462 99.7397 108.328 101.327C109.18 102.891 109.726 104.642 110.327 106.313L110.488 106.758C110.731 107.426 110.981 108.092 111.269 108.741C111.497 109.257 111.922 109.846 112.115 110.435C112.644 110.344 113.173 110.253 113.703 110.165C125.174 108.267 136.772 107.151 148.397 106.825C148.852 106.812 149.087 107.242 149.02 107.635C147.905 114.176 146.913 120.738 145.825 127.283C145.351 130.14 144.866 132.994 144.371 135.847C144.12 137.293 143.829 138.733 143.592 140.18C143.4 141.349 143.26 142.528 142.931 143.67C142.635 144.693 142.181 145.681 141.436 146.462C140.633 147.304 139.512 147.712 138.384 147.904C135.52 148.393 132.581 148.593 129.694 148.918L114.32 150.652C114.545 152.677 114.561 154.67 114.458 156.718L114.4 157.836C114.352 158.736 114.294 159.636 114.164 160.526C114 161.643 113.485 162.588 112.726 163.422C112.03 164.188 111.183 164.842 110.36 165.468C109.505 166.118 108.622 166.746 107.617 167.148L107.487 167.199C106.605 167.54 104.951 168.069 103.746 167.876C103.904 168.658 104.208 169.499 103.938 170.274C103.813 170.633 103.339 170.812 103.048 170.507C102.473 169.9 102.428 169.099 102.291 168.309C102.15 167.485 102.027 166.659 101.919 165.831C101.709 164.23 101.545 162.615 101.495 161C101.444 159.342 101.464 157.682 101.554 156.026C101.6 155.175 101.658 154.325 101.766 153.48C101.813 153.12 101.86 152.759 101.915 152.399C101.934 152.268 101.956 152.138 101.98 152.008L100.6 152.162C98.4842 152.396 96.3674 152.608 94.2365 152.64C93.9842 152.644 93.79 152.53 93.6632 152.364C93.528 152.583 93.2926 152.739 92.9555 152.738C89.9798 152.727 87.2088 151.762 84.5023 150.625C83.138 150.052 81.795 149.431 80.4287 148.863C79.1535 148.332 77.7901 147.954 76.5456 147.356L73.2755 149.057C73.2515 149.141 73.2207 149.22 73.188 149.286C72.9751 149.717 72.5553 149.95 72.1266 150.126C71.7151 150.296 71.2889 150.348 70.8737 150.306C68.3936 151.594 65.9129 152.881 63.4306 154.166L60.9477 155.449C56.0008 158.003 51.0735 160.598 46.0955 163.092L45.729 163.275C44.0096 164.13 42.1633 164.996 40.2552 165.643C40.2212 166.121 40.2427 166.587 40.2831 167.094L40.2929 167.204C40.3498 167.803 40.4718 168.554 39.9871 168.98C39.735 169.202 39.2847 169.203 39.1133 168.868C38.8022 168.262 39.0815 167.306 39.1801 166.648C39.215 166.413 39.2577 166.173 39.3207 165.939C37.1332 166.585 34.8795 166.898 32.6534 166.535C30.4861 166.182 28.8075 164.829 27.4542 163.173C26.026 161.426 25.0112 159.389 24.4667 157.207C23.847 154.723 23.8065 152.157 23.821 149.613C23.8365 146.904 23.9376 144.181 24.27 141.49C23.9058 141.405 23.5019 141.332 23.134 141.357C22.9517 141.646 22.5981 141.768 22.2786 141.73C21.5839 142.49 23.3461 143.266 23.9092 143.461C24.1048 143.528 24.0839 143.843 23.8583 143.834L23.7162 143.827C22.8461 143.781 21.9471 143.634 21.4354 142.832C21.0255 142.19 21.1486 141.428 21.6374 140.904C21.9602 137.878 22.7319 134.931 23.4501 131.98C24.155 129.082 24.9388 126.203 25.7696 123.339L26.1421 122.057C27.4502 117.566 28.8175 113.039 30.6219 108.726C31.5229 106.573 32.5609 104.459 33.9679 102.582C35.2794 100.831 36.8278 99.3336 38.6076 98.0545C41.9256 95.6696 45.819 94.2285 49.6444 92.8556L49.8156 92.7942C51.798 92.0832 53.7755 91.3638 55.7353 90.5935C57.4686 89.9123 59.129 89.0486 60.8541 88.3571C60.7981 88.2563 60.744 88.1543 60.6919 88.0511L60.66 88.0777C60.6545 88.082 60.649 88.0862 60.6431 88.0901C60.4697 88.2093 60.2143 88.1507 60.0713 88.017C59.6676 87.6393 59.8043 87.2201 60.0737 86.8285L60.1088 86.7787C60.4384 86.3209 60.7323 85.837 61.0365 85.3627L61.227 85.0661C61.7375 84.2737 62.2741 83.476 62.9548 82.8211C63.2701 82.5176 63.6152 82.2906 63.9809 82.1214C63.9497 82.0559 64.2238 81.9218 64.3016 81.9893C65.4602 81.5689 66.7931 81.657 68.0563 81.7729M113.576 150.736L111.965 150.918C110.193 151.118 108.42 151.311 106.647 151.502L102.796 151.917C102.786 152.135 102.76 152.348 102.755 152.512C102.73 153.36 102.711 154.208 102.693 155.055C102.657 156.755 102.697 158.456 102.809 160.152C102.919 161.795 103.063 163.439 103.287 165.071L103.332 165.397L103.359 165.569C103.542 165.586 103.721 165.672 103.87 165.849C104.196 166.235 105.376 165.86 105.836 165.697C106.594 165.43 107.307 164.979 107.965 164.526C108.608 164.084 109.187 163.568 109.743 163.025L110.198 162.579C110.651 162.133 111.104 161.658 111.382 161.097C111.758 160.336 111.807 159.402 111.917 158.573C112.053 157.554 112.214 156.535 112.385 155.521M66.8144 140.037L66.6473 140.081C60.5779 141.68 54.5175 143.326 48.4294 144.854C45.4166 145.611 42.3895 146.312 39.3729 147.054L38.8845 147.175C36.5048 147.772 34.0965 148.489 32.2742 150.201C32.2069 150.264 32.1093 150.167 32.1726 150.1C34.1366 148.027 36.9299 147.15 39.6119 146.389C40.1076 146.248 40.604 146.111 41.0999 145.971C37.4524 144.682 33.7474 143.56 29.9569 142.76C28.9808 142.554 27.9934 142.403 27.0181 142.196C26.3379 142.052 25.6736 141.844 25.0006 141.67L24.4712 141.538L24.4642 143.197C24.4554 145.547 24.4596 147.894 24.5805 150.243L24.6034 150.678C24.7444 153.292 24.9646 155.961 25.9003 158.426C26.6607 160.429 27.8726 162.316 29.4575 163.775C30.2595 164.513 31.1217 165.088 32.1875 165.371C33.1771 165.635 34.2139 165.666 35.2312 165.595C40.1108 165.258 44.4544 162.63 48.6931 160.454C55.6262 156.895 62.56 153.338 69.5001 149.793C69.3125 149.665 69.1358 149.519 68.9751 149.354C68.0445 148.401 67.5536 147.097 67.2312 145.833C66.8879 144.489 66.6827 143.047 66.6588 141.659M75.6449 151.166C75.7062 151.134 75.7771 151.175 75.7799 151.243C75.8014 151.769 75.5084 152.287 75.2896 152.76L75.2664 152.811C75.0006 153.397 74.7094 153.976 74.4083 154.545C73.8065 155.683 73.181 156.809 72.5283 157.919C71.2156 160.151 69.7569 162.29 68.0328 164.233C67.6433 164.672 67.0028 164.109 67.2528 163.637C68.4577 161.357 69.8624 159.206 71.3083 157.072C72.0321 156.004 72.7555 154.935 73.4865 153.872C73.7914 153.428 74.1003 152.986 74.4175 152.551L74.6088 152.29M147.628 108.13C141.538 108.312 135.454 108.706 129.393 109.323C123.755 109.897 118.139 110.661 112.553 111.614C111.387 111.812 110.222 112.02 109.058 112.235L108.36 112.365C107.196 112.584 105.775 112.674 104.738 113.29C103.646 113.94 103.351 115.298 102.987 116.418C102.56 117.735 102.143 119.056 101.738 120.38C100.129 125.638 98.6588 130.94 97.3474 136.278C96.6964 138.928 96.1188 141.592 95.5102 144.251C94.9696 146.614 94.373 148.95 93.7497 151.289C93.8265 151.23 93.9207 151.185 94.0345 151.161C97.1295 150.508 100.289 150.224 103.43 149.863L103.734 149.828C106.984 149.449 110.233 149.073 113.485 148.711L135.013 146.31C136.282 146.169 137.642 146.15 138.878 145.812C140.979 145.237 141.471 142.909 141.823 141.055L141.834 140.999C142.897 135.396 143.743 129.744 144.734 124.128M94.2508 144.776C93.415 144.721 92.2711 143.962 91.6369 144.017C91.9698 144.571 92.1201 145.202 91.9282 145.877C91.3943 147.754 88.9797 146.782 87.8167 146.209C86.8631 145.739 85.9423 145.163 84.8865 144.943C83.6905 144.694 82.8803 145.165 81.8699 145.709C81.04 146.155 80.1361 146.475 79.2067 146.641C78.7124 146.73 78.243 146.739 77.7744 146.705C77.7462 146.727 77.7144 146.749 77.6782 146.767L77.4303 146.896C78.5511 146.947 79.6927 147.29 80.7358 147.604C81.8167 147.929 82.8777 148.321 83.9332 148.722L84.9715 149.118C87.5327 150.09 90.1838 151.014 92.9556 151.006C93.1548 151.005 93.3181 151.06 93.4466 151.149M89.5745 138.895C90.4002 138.795 91.1623 138.902 91.8221 139.435C92.6178 140.077 93.1524 141.143 94.2963 141.213C94.6298 141.234 94.7073 141.698 94.3758 141.796C93.5243 142.046 92.8349 141.589 92.2548 140.996L91.8647 140.592C91.2914 140.003 90.7627 139.548 89.7899 139.583C88.7481 139.621 87.7045 139.86 86.6695 139.981C85.497 140.119 84.3247 140.236 83.1485 140.337C83.0939 140.342 83.0846 140.256 83.1357 140.244L84.4532 139.919M88.7775 135.548L88.9137 135.534C90.1128 135.419 91.2093 135.415 92.2801 136.054L92.4855 136.177C93.451 136.759 94.5018 137.444 95.1056 138.386C95.2044 138.541 95.0411 138.722 94.8758 138.683C93.7155 138.407 92.8672 137.563 91.8913 136.931C90.7962 136.222 89.6649 136.339 88.4162 136.449C87.2072 136.556 85.9988 136.702 84.8017 136.902C83.6768 137.089 82.5483 137.386 81.412 137.48L81.4123 137.478C81.2825 137.477 81.2084 137.284 81.3408 137.219C82.4939 136.648 83.8294 136.378 85.0837 136.117M125.202 123.799C125.086 123.249 125.768 122.994 126.084 123.43L126.151 123.522C126.834 124.449 127.821 125.613 127.771 126.793C128.371 126.806 128.993 127.167 129.227 127.704C129.335 127.953 129.372 128.247 129.348 128.552C129.893 128.594 130.488 128.949 130.822 129.294C131.375 129.868 131.418 130.678 131.022 131.347C130.157 132.807 128.268 133.338 126.673 133.457L126.617 133.461C124.97 133.574 122.596 133.543 121.467 132.142C120.377 130.791 121.582 129.696 122.816 129.102C122.495 128.811 122.328 128.394 122.485 127.954C122.76 127.181 123.73 126.882 124.278 126.344C124.946 125.689 125.388 124.79 125.212 123.85M126.107 124.987C125.925 125.77 125.479 126.485 124.858 127.052C124.62 127.269 124.36 127.463 124.084 127.628L124.051 127.648C123.805 127.784 123.203 128.04 123.249 128.346C123.297 128.66 124.279 129.153 124.546 129.153C124.607 129.153 124.642 129.247 124.579 129.275C124.095 129.487 123.671 129.578 123.197 129.354C122.88 129.674 122.572 130.006 122.267 130.335C121.728 130.917 121.913 131.531 122.55 131.965C123.573 132.661 125.129 132.644 126.323 132.593C127.525 132.543 128.81 132.277 129.748 131.483L129.789 131.448C130.299 130.998 130.765 130.236 129.984 129.802C129.678 129.633 129.348 129.643 129.057 129.56C128.785 130.088 128.344 130.512 127.806 130.593C127.371 130.659 127.072 130.117 127.467 129.858L127.556 129.803C128.053 129.489 128.477 129.005 128.466 128.374C128.458 127.936 127.841 127.384 127.44 127.795L127.421 127.815C127.085 128.19 126.493 127.717 126.714 127.301L126.725 127.282M47.7205 103.223C47.7189 103.129 47.8523 103.094 47.8989 103.175C48.6791 104.536 49.0869 106.204 49.5025 107.703C49.9377 109.274 50.2891 110.86 50.6048 112.458C51.2441 115.694 51.5848 118.912 51.6079 122.21C51.6111 122.681 50.8373 122.806 50.7617 122.323C50.2591 119.115 49.7777 115.904 49.2713 112.697C49.0165 111.083 48.72 109.477 48.4363 107.868M55.4437 105.593C55.3863 105.406 55.6617 105.343 55.7322 105.514C57.2978 109.325 57.828 113.643 56.8229 117.663C56.669 118.278 55.7606 118.011 55.8767 117.404M75.6386 102.208C75.6307 102.067 75.8147 102.045 75.884 102.142C76.6258 103.178 76.9336 104.566 78.2351 105.101C78.8849 105.369 79.6162 105.322 80.1903 105.774C80.5741 106.076 80.8685 106.553 80.5804 107.01C80.4875 107.158 80.2273 107.232 80.1012 107.072C79.9172 106.838 79.8198 106.557 79.5697 106.382C79.2171 106.135 78.7415 106.119 78.3371 106.003C77.814 105.853 77.353 105.59 76.9754 105.199M88.032 84.923C88.1085 84.8844 88.1819 84.9091 88.2307 84.9747C88.3006 85.0681 88.292 85.1589 88.2065 85.2229C88.3207 85.4544 88.4556 86.0343 88.4749 86.1187C88.553 86.4609 88.6361 86.801 88.7231 87.1409C88.8984 87.8264 89.0521 88.5173 89.2276 89.203C89.4137 89.9299 89.6354 90.6491 89.8822 91.3579C89.8981 91.4038 89.9156 91.4507 89.9339 91.4982L89.9621 91.57L89.969 91.5591C90.0191 91.4806 90.1235 91.5355 90.1112 91.6185C90.0997 91.6942 90.0842 91.7695 90.0712 91.8451L90.0971 91.9129C90.2584 92.3436 90.369 92.7972 90.0729 93.1772C89.9621 93.3193 89.8402 93.4035 89.6883 93.4285C89.4447 94.2245 89.1392 95.0057 88.812 95.7559L88.7161 95.975C88.2349 97.0697 87.7217 98.1499 86.9555 99.0819C86.1189 100.099 84.9682 100.794 84.2395 101.909C83.9005 102.428 83.6646 102.973 83.4732 103.559L83.4011 103.781C83.2652 104.195 83.1085 104.597 82.7165 104.84C82.5914 104.917 82.404 104.892 82.3032 104.787C81.4994 103.944 82.3409 102.37 82.8255 101.554C83.4992 100.419 84.4743 99.6927 85.4506 98.8365C86.503 97.9136 87.1742 96.6789 87.8236 95.4627C88.2213 94.7176 88.6052 93.9564 89.0095 93.208C88.5871 92.8379 88.452 92.1028 88.3089 91.5918L88.2958 91.546C88.0593 90.7277 87.8714 89.8882 87.7527 89.045C87.6385 88.2342 87.5908 87.4351 87.621 86.6199L87.6298 86.4122M89.6024 88.7817C89.5091 88.6549 89.6636 88.5113 89.7916 88.5377C90.57 88.6973 91.331 89.1644 92.0296 89.5422L92.1042 89.5823C92.6619 89.8804 93.223 90.2457 93.5158 90.8249C93.8343 91.4544 93.808 92.1795 93.7646 92.8636L93.7605 92.9276C93.7073 93.748 93.6987 94.6005 93.5236 95.4061C93.434 95.8184 93.0573 95.9345 92.7353 95.8371C92.3521 97.0367 91.2757 97.9205 90.4894 98.8671C89.4869 100.074 89.6756 101.703 89.7804 103.157C89.8228 103.745 89.0845 103.912 88.7042 103.598L87.8279 102.877C87.682 102.756 87.5363 102.636 87.3909 102.514C87.2664 102.411 87.1431 102.306 87.0208 102.2L86.838 102.04C86.757 101.968 86.3994 101.572 86.2949 101.556C86.0417 101.516 85.4401 102.177 85.2342 102.385L85.2082 102.411C84.8206 102.788 84.4705 103.193 84.1444 103.623C84.0844 103.702 83.9671 103.636 84.01 103.545C84.3022 102.924 84.642 102.331 85.0454 101.776L85.127 101.665C85.3954 101.306 85.7557 100.673 86.2295 100.567C86.8081 100.438 87.3858 101.013 87.8067 101.332L87.8333 101.353C88.0336 101.501 88.2316 101.653 88.4292 101.806C88.4085 100.724 88.5463 99.6302 89.1099 98.6976C89.5072 98.0399 90.1025 97.5529 90.612 96.9877C91.1791 96.3584 91.4752 95.5849 91.9886 94.9295C92.0547 94.8452 92.1458 94.7998 92.2445 94.7854C92.2642 94.2584 92.3425 93.7263 92.403 93.2051L92.4205 93.0491C92.4816 92.4828 92.6261 91.7911 92.3465 91.2607C92.0823 90.7598 91.4762 90.4062 91.0273 90.0663L90.6608 89.7844M64.3408 82.7936C64.1065 82.928 63.8874 83.0952 63.6887 83.3041C63.0631 83.962 62.6159 84.7808 62.1806 85.5685C61.9463 85.9927 61.7203 86.4215 61.4841 86.8447C61.3813 87.0288 61.2756 87.2109 61.1688 87.3928C61.1194 87.4766 60.9726 87.6431 60.8999 87.7457C60.9807 87.858 61.0643 87.9686 61.1496 88.078C61.1821 88.1197 63.4261 90.5433 64.2083 91.4919C65.4061 92.9448 66.4768 94.4794 67.3921 96.122C68.2884 97.7306 68.9707 99.4337 69.801 101.073C70.2166 101.894 70.6807 102.709 71.2724 103.42C71.2952 103.448 71.3193 103.474 71.3427 103.501C71.5685 102.896 72.147 102.249 72.4312 101.877L72.4578 101.842C73.1022 100.981 73.7828 100.145 74.4782 99.3241C75.1133 98.5743 75.7646 97.8406 76.4317 97.1191L76.6825 96.8491C77.1473 96.3513 77.7376 95.6066 78.4179 95.251C78.3451 95.1222 78.2607 94.9947 78.1637 94.8689C77.5262 94.0431 76.6252 93.4438 75.7361 92.903L75.1595 92.5553C72.986 91.2421 70.8464 89.868 68.9595 88.1618C67.9612 87.259 66.9767 86.3133 66.1376 85.2603L65.8409 84.888M67.9671 82.1436C66.9493 82.2282 65.8502 82.2081 64.9096 82.5369C65.7457 83.3206 66.5406 84.1668 67.3571 84.9637C67.4297 84.4247 67.5783 83.8923 67.7041 83.3668" fill="black"/>
<path fill-rule="evenodd" clip-rule="evenodd" d="M78.3765 32.3029C85.6241 32.3029 93.1204 37.8726 95.7771 41.4268C98.0107 44.415 99.2133 57.9273 99.2133 67.0591C99.2133 68.969 100.276 72.5692 99.9661 74.396C98.8293 81.0904 93.8765 86.7047 84.0739 86.7047C74.2713 86.7047 67.2429 82.8524 59.9569 72.5093C56.4217 72.5093 54.7083 69.8214 54.6835 65.5796C54.6586 61.3378 58.0959 59.7945 58.0959 59.7945C58.0959 59.7945 56.8703 43.0547 59.9569 38.6965C63.0435 34.3382 71.129 32.3029 78.3765 32.3029Z" fill="white"/>
<path fill-rule="evenodd" clip-rule="evenodd" d="M75.3267 29.936C79.9026 29.4766 84.3867 29.8626 88.8962 30.6612C89.2408 30.7231 89.4361 30.9472 89.5088 31.2166C91.6328 31.3128 93.7593 31.4673 95.8806 31.5825C96.6504 31.6243 97.0868 32.3784 96.7358 33.0593C96.6657 33.1946 96.5928 33.3262 96.5188 33.4578L96.6118 33.4274C97.2499 33.2245 97.9393 33.1244 98.561 33.4466C99.3524 33.8566 99.6627 34.7613 99.4878 35.594C99.443 35.8066 99.3679 36.0103 99.2823 36.2091C99.4559 36.1978 99.6308 36.2015 99.8044 36.2243C100.729 36.3458 101.415 37.0482 101.464 37.9834C101.535 39.3955 100.617 40.8282 99.5363 41.8392C99.6932 42.1595 99.7533 42.5366 99.6881 42.9188C99.5579 43.6743 98.9966 44.1267 98.3458 44.4218C98.6172 45.2761 98.7455 46.1693 98.6698 47.0821C98.6445 47.3869 98.3757 47.6386 98.092 47.7003C99.1496 50.5874 99.6849 53.6871 100.07 56.7075C100.344 58.8564 100.48 61.0178 100.496 63.183C100.504 64.1605 100.488 65.1391 100.447 66.1168L100.43 66.4834C100.379 67.5402 100.376 68.6499 100.185 69.6953C100.838 70.7974 101.101 72.1656 101.212 73.4006C101.35 74.9293 101.132 76.5061 100.645 77.9603C98.8099 83.4549 93.2705 86.9223 87.7065 87.8235C82.5563 88.6575 76.5967 87.535 73.587 82.8968C73.5397 82.8234 73.6406 82.7628 73.6993 82.8109C75.8526 84.547 78.3504 85.3215 81.0642 85.6986C85.7562 86.3492 91.0302 85.2456 94.7956 82.3199C96.603 80.9152 97.9062 78.8701 98.4795 76.6693C98.7718 75.5444 98.8726 74.3712 98.7576 73.2134C98.6402 72.039 98.1157 71.0367 97.7851 69.9269C97.6741 69.5522 97.7915 69.2042 98.0225 68.9563C98.0875 68.0551 98.2408 67.1465 98.2994 66.2481C98.3645 65.2267 98.4042 64.2055 98.4182 63.183C98.445 61.062 98.3557 58.9373 98.1757 56.8253C97.8464 52.9578 96.972 49.1842 96.4589 45.3497C96.2689 45.5186 95.9966 45.588 95.7112 45.4404L95.6816 45.4243L95.5259 45.3359C95.5169 45.3359 95.5067 45.3371 95.4977 45.3383C94.432 45.4409 93.3266 45.2941 92.3055 44.9789C91.237 44.65 90.2454 44.1438 89.3594 43.4693C89.1911 44.3158 89.1207 45.1712 89.1196 46.0343C89.1183 46.5734 88.5426 46.8532 88.0857 46.6229C86.06 45.6028 84.125 44.4272 82.2882 43.1061C82.0737 44.1957 81.8594 45.2851 81.6435 46.376C81.5607 46.7962 81.0206 46.9658 80.6747 46.7659C79.2989 45.9723 78.1106 44.9334 77.143 43.6982C76.9499 44.0644 76.7561 44.4306 76.5611 44.796L76.2674 45.3433C75.9777 45.8812 75.5896 46.4761 74.9553 46.6481C74.2839 46.8303 73.7234 46.3989 73.4976 45.7964C73.4287 45.6092 73.3649 45.4167 73.3062 45.2231C72.7342 46.5178 72.0885 47.7833 71.3584 48.9906C70.2632 50.8014 68.9484 52.4149 67.6376 54.0702C67.2394 54.5727 66.5578 54.0929 66.5029 53.6046C66.471 53.3173 66.4442 53.0288 66.4211 52.7414C65.6573 54.2696 64.8603 55.7835 63.9919 57.2535L64.1163 57.7366C64.4746 59.1638 64.7721 60.6011 65.0955 62.0359C65.1999 62.4989 64.9518 63.1607 64.4063 63.2395C63.7545 63.3337 63.1379 63.6639 62.4703 63.4367C61.7424 63.1889 61.5986 62.5652 61.2549 61.9739C61.1864 61.8561 61.1066 61.7479 61.0209 61.6452L60.999 61.6732C60.9454 61.743 60.8178 61.667 60.8497 61.5873L60.8871 61.4952C60.5919 61.1845 60.2385 60.9253 59.9137 60.6466C59.1417 60.5176 58.2734 60.6588 57.7415 60.9698C56.5302 61.6783 55.9738 63.1387 55.9623 64.4815C55.9483 66.0532 56.4396 67.8199 57.2692 69.1638C57.6344 69.7548 58.1348 70.2887 58.7958 70.5508C59.452 70.8114 60.163 70.7305 60.8305 70.9759C61.2722 71.1392 61.5441 71.6252 61.2773 72.0655C61.2594 72.096 61.239 72.1237 61.2197 72.1529L61.4183 72.4142C61.5548 72.5951 61.6972 72.7889 61.83 72.9905C62.1695 73.3779 62.5269 73.7512 62.8728 74.1321C63.5121 74.8344 64.1326 75.5558 64.7617 76.2682C65.3554 76.9403 65.9834 77.5716 66.6305 78.193C67.2419 78.7816 68.0052 79.2762 68.5668 79.904C69.113 80.5165 69.2612 81.5858 68.3625 81.9402C67.3683 82.3333 66.4881 81.412 65.8188 80.7978L65.7907 80.772C64.5638 79.6527 63.4559 78.3736 62.576 76.9652C61.7045 77.5534 60.4439 77.6096 59.5761 77.0215C59.1194 76.7121 58.769 76.1921 58.5987 75.6264C58.4382 75.6621 58.2777 75.683 58.1212 75.6806C58.0407 75.7269 57.9599 75.772 57.8782 75.814C57.2309 76.1479 56.4359 75.9987 56.1397 75.2887C55.8701 74.6441 56.148 73.912 56.3908 73.2909L56.441 73.1626C56.5788 72.8084 56.7307 72.4225 56.9196 72.0593C56.3937 71.667 55.9443 71.1796 55.5641 70.6255C54.2864 68.7589 53.6482 66.0291 53.9303 63.8019C54.1 62.458 54.7368 61.0659 55.7797 60.1597L55.7415 60.061C55.4492 59.3259 55.1836 58.588 55.0114 57.8111C54.8097 56.9025 54.7113 55.9609 54.6221 55.0359C54.4332 53.0819 54.4842 51.0837 54.7357 49.1374C55.208 45.4738 56.4052 41.8773 58.5305 38.8287C57.9279 38.1136 57.4506 37.272 57.6994 36.3041C57.8131 35.8597 58.0721 35.4385 58.4628 35.184C58.6784 35.0436 58.9351 35.0221 59.1508 34.9057L59.2156 34.8703C59.3104 34.8155 59.2379 34.8213 59.1814 34.5665C58.958 33.549 59.1431 32.5658 60.2727 32.2279C61.336 31.9103 62.3418 32.5848 62.9711 33.3884C64.6176 32.2303 66.7875 31.6243 68.6958 31.1092C70.8657 30.5257 73.0916 30.1614 75.3267 29.936ZM57.5413 64.0664C57.5335 63.2375 58.3262 62.7262 59.1062 62.8617C59.6299 62.9521 60.0669 63.262 60.4771 63.5823L60.6772 63.7392C61.1768 64.1281 61.7504 64.5473 62.0482 65.0979C62.4847 65.9103 61.562 67.0036 60.7004 66.4341C60.1094 66.0414 59.7306 65.4122 59.3429 64.8277L59.3028 64.7674C59.1266 64.5055 58.9722 64.2271 58.7308 64.017L58.6787 63.9717C58.5993 63.9047 58.5141 63.8435 58.4117 63.8145C58.2141 63.7582 57.848 63.8371 57.7608 64.0704L57.7531 64.0942C57.7212 64.212 57.5426 64.1866 57.5413 64.0664Z" fill="black"/>
<path fill-rule="evenodd" clip-rule="evenodd" d="M89.0864 74.3289C89.2822 73.9914 89.733 73.6787 90.1455 73.7267C91.9936 73.9416 91.9904 76.163 91.2768 77.4599C90.6441 78.6099 89.3346 79.2849 88.024 79.1863C86.6471 79.0827 85.474 78.2801 84.9577 77.0031C84.6162 76.1583 84.4585 74.5989 85.3668 74.0313C85.3836 74.0207 85.4114 74.0233 85.4248 74.0386C85.8604 74.5409 85.8775 75.295 86.2587 75.8542C86.6133 76.3744 87.1642 76.8039 87.8096 76.8702C88.2915 76.9198 88.7791 76.7474 88.9676 76.3184C89.0696 76.0864 89.058 75.9604 89.0197 75.8007L88.9848 75.6619C88.8641 75.1758 88.8099 74.8056 89.0864 74.3289ZM89.5805 64.5866C90.5444 65.1674 92.013 66.5219 90.9761 67.9619C89.7556 69.2317 87.9983 67.7758 87.1324 67.1174C86.3294 66.6071 85.4273 67.9195 86.1722 68.5154C92.4297 73.1085 94.9691 64.7385 90.0681 63.9036C89.5284 63.8116 89.328 64.4069 89.5805 64.5866ZM79.4021 60.6035C79.9937 59.7234 81.3442 59.853 81.67 60.8973C81.8466 61.463 81.6028 61.9715 81.6154 62.5364C81.626 63.0136 81.5945 63.5454 81.4469 64.0075C81.1105 65.0614 80.1544 65.8058 79.0234 65.7749C77.8961 65.7441 76.9032 65.0367 76.431 64.0404C75.9572 63.0403 76.0575 62.0052 76.4034 60.9883C76.42 60.9395 76.4846 60.9158 76.5235 60.9569C76.9324 61.3877 77.2317 61.8425 77.5415 62.3249L77.8589 62.8194C78.1014 63.1917 78.4539 63.6673 78.9069 63.6374L78.9748 63.6308C79.1007 63.6201 79.0814 63.6448 79.1785 63.4747C79.2234 63.396 79.2152 63.2497 79.2369 63.1568L79.2445 63.1255L79.2404 63.1086C79.2308 63.0636 79.2213 62.9788 79.2135 62.8317L79.2119 62.7992C79.1791 62.1112 78.9829 61.227 79.4021 60.6035ZM94.3986 61.1893C94.2925 60.0638 95.8885 59.8139 96.4191 60.6467C96.6959 61.081 96.7764 61.6266 96.8376 62.1434L96.8663 62.3888C96.9291 62.9196 96.9539 63.4719 96.7215 63.9671C96.3554 64.747 95.5593 65.1593 94.7006 65.094C93.8805 65.0315 93.1323 64.5601 92.7378 63.8445C92.3862 63.2059 92.0366 61.9591 92.4637 61.2931C92.4895 61.2527 92.541 61.2476 92.5764 61.2787C92.98 61.6339 93.0457 62.2818 93.2857 62.7446C93.5332 63.222 93.9086 63.6872 94.4775 63.7597C95.0217 63.829 95.2296 63.5343 95.0908 63.0199C94.9117 62.3557 94.466 61.904 94.3986 61.1893ZM79.8332 53.912L80.0942 53.8129C80.9885 53.4779 82.2163 53.0908 82.9433 53.8117C83.3919 54.2563 83.4773 54.9112 83.1571 55.4537C82.7692 56.1109 82.0735 56.1271 81.4016 56.2239C80.6374 56.334 79.8602 56.5433 79.1487 56.8417C78.3472 57.178 77.6035 57.5971 76.8748 58.0652C76.1822 58.51 75.492 59.237 74.663 59.3741C74.6292 59.3797 74.5908 59.3652 74.582 59.3284C74.3937 58.5248 74.9169 57.734 75.3838 57.1071C75.9487 56.348 76.6333 55.725 77.3984 55.1665C78.1368 54.6272 78.9805 54.2376 79.8332 53.912ZM96.0778 56.769L96.1575 56.7552C96.6998 56.6657 97.1913 56.6863 97.5999 57.1121C97.9119 57.437 98.0321 57.858 97.8834 58.2875C97.7462 58.6837 97.4394 59.0863 96.994 59.1693C95.4906 59.4497 93.8252 59.4034 92.3142 59.1911C91.6229 59.0939 90.9253 58.9749 90.252 58.7874L89.9422 58.6983C89.38 58.5391 88.7365 58.3728 88.3281 57.9629C88.1813 57.8156 88.266 57.6048 88.4416 57.5366C89.1541 57.2599 90.1307 57.4071 90.8904 57.3855C91.7742 57.3604 92.6594 57.2947 93.5389 57.2042C94.3985 57.1157 95.2302 56.9232 96.0778 56.769Z" fill="black"/>
</svg>
